<svg width="100" height="61" viewBox="0 0 100 61" fill="none" xmlns="http://www.w3.org/2000/svg">
<path fill-rule="evenodd" clip-rule="evenodd" d="M31.6464 54.1496C31.5246 53.9291 31.2931 53.782 31.0493 53.7453L20.5573 52.2875C19.0828 52.0792 17.9861 50.8174 17.9861 49.3229V38.0891C17.9861 37.4521 17.7302 36.8396 17.2672 36.3986L11.7835 31.1676H0.109497C0.21917 31.5596 0.438515 31.9271 0.755346 32.2211L8.21308 39.0692C8.68833 39.5102 8.9686 40.135 8.9686 40.7843V56.3669C8.9686 57.935 10.175 59.2335 11.7226 59.356L34.1324 60.9976C34.7904 61.0466 35.2413 60.3361 34.9001 59.7603L31.6464 54.1496Z" fill="url(#paint0_linear_2_1704)"/>
<path fill-rule="evenodd" clip-rule="evenodd" d="M11.7957 29.8323L17.2793 24.6136C17.7424 24.1726 17.9983 23.56 17.9983 22.923V11.6893C17.9983 10.1947 19.095 8.93294 20.5695 8.72468L31.0615 7.26687C31.3174 7.23012 31.5368 7.08311 31.6586 6.8626L34.9123 1.26412C35.2413 0.688344 34.8026 -0.022186 34.1445 0.026816L11.7226 1.65613C10.1628 1.76639 8.9686 3.07719 8.9686 4.64526V20.2279C8.9686 20.8772 8.68833 21.502 8.21308 21.943L0.755346 28.791C0.438515 29.085 0.231355 29.4525 0.109497 29.8446L11.7957 29.8323Z" fill="url(#paint1_linear_2_1704)"/>
<path fill-rule="evenodd" clip-rule="evenodd" d="M18.0837 50.0578C18.0593 49.9476 18.035 49.8373 18.0228 49.7271C18.0228 49.7148 18.0228 49.6903 18.0106 49.6781C17.9984 49.5678 17.9862 49.4453 17.9862 49.3228V38.0891C17.9862 37.7706 17.9253 37.4521 17.8034 37.1703C17.7425 37.0233 17.6694 36.8885 17.5719 36.766C17.4866 36.6313 17.3769 36.521 17.2673 36.4108L11.5521 30.9593C11.4912 30.8981 11.4546 30.8368 11.4181 30.7633H0.024292C0.0852212 31.3023 0.316752 31.8291 0.755442 32.2334L8.21317 39.0814C8.68842 39.5224 8.9687 40.1472 8.9687 40.7965V56.3791C8.9687 56.7711 9.04181 57.1509 9.17586 57.4939C9.27334 57.7511 9.41957 57.9961 9.57799 58.2044C9.63892 58.2779 9.68766 58.3514 9.76078 58.4127C10.2604 58.9517 10.9428 59.3069 11.7227 59.3559L24.8347 60.3115C19.6922 57.1141 18.4005 51.9566 18.0837 50.0578Z" fill="url(#paint2_linear_2_1704)"/>
<path d="M24.847 60.3114C23.9574 59.7479 23.1044 59.1231 22.3489 58.3881C21.5934 57.6408 20.9231 56.8323 20.3382 55.9502C19.7533 55.0682 19.2902 54.1127 18.9125 53.1326C18.5347 52.1403 18.2423 51.1235 18.0838 50.07C18.0595 49.9475 18.0351 49.825 18.0229 49.7025C18.0107 49.58 18.0107 49.4575 17.9985 49.335C18.0107 49.4575 18.0107 49.58 18.0229 49.7025C18.0473 49.825 18.0717 49.9475 18.096 50.07C18.4738 52.1403 19.2415 54.1494 20.3991 55.9135C20.9719 56.7955 21.6421 57.6163 22.3854 58.3636C23.1288 59.0864 23.9696 59.7234 24.847 60.3114Z" fill="url(#paint3_linear_2_1704)"/>
<path fill-rule="evenodd" clip-rule="evenodd" d="M12.2225 29.4157L17.2675 24.6013C17.3771 24.491 17.4868 24.3685 17.5721 24.246C17.6574 24.1113 17.7305 23.9765 17.8036 23.8418C17.9255 23.56 17.9864 23.2415 17.9864 22.923V11.6893C17.9864 11.5668 17.9986 11.4565 18.0108 11.334C18.0108 11.3218 18.0108 11.2972 18.023 11.285C18.0352 11.1747 18.0595 11.0645 18.0839 10.9542C18.3886 9.05541 19.6925 3.89794 24.8349 0.700562L11.7229 1.6561C10.943 1.71735 10.2606 2.06037 9.76099 2.59939C9.70006 2.66064 9.63913 2.73415 9.5782 2.80765C9.41978 3.02816 9.27355 3.26092 9.17606 3.51818C9.04202 3.86119 8.96891 4.24096 8.96891 4.63297V20.2156C8.96891 20.8649 8.68863 21.4897 8.21338 21.9307L0.755644 28.7787C0.548484 28.9625 0.402254 29.183 0.280396 29.4157H12.2225Z" fill="url(#paint4_linear_2_1704)"/>
<path d="M17.9985 11.6772C18.0107 11.5547 18.0107 11.4322 18.0229 11.3097C18.0351 11.1872 18.0595 11.0647 18.0838 10.9421C18.2423 9.90086 18.5347 8.87181 18.9125 7.87952C19.2902 6.88723 19.7655 5.94394 20.3382 5.04966C20.9231 4.16762 21.5934 3.34684 22.3489 2.61181C23.1044 1.87678 23.9574 1.23975 24.847 0.688477C23.9696 1.2765 23.1288 1.91353 22.3854 2.64856C21.6421 3.39584 20.9719 4.21662 20.3991 5.09866C19.2537 6.86273 18.4738 8.87181 18.096 10.9421C18.0717 11.0647 18.0473 11.1872 18.0229 11.3097C18.0107 11.4322 17.9985 11.5547 17.9985 11.6772Z" fill="url(#paint5_linear_2_1704)"/>
<path fill-rule="evenodd" clip-rule="evenodd" d="M17.9985 48.9799V38.0892C17.9985 37.7707 17.9376 37.4522 17.8157 37.1704C17.7548 37.0234 17.6817 36.8886 17.5842 36.7661C17.4989 36.6314 17.3892 36.5211 17.2795 36.4109L11.5644 30.9594C11.4425 30.8369 11.3694 30.6776 11.3694 30.5184C11.3694 30.3591 11.4303 30.1999 11.5644 30.0774L17.2795 24.6259C17.3892 24.5156 17.4989 24.3931 17.5842 24.2706C17.6695 24.1359 17.7426 24.0011 17.8157 23.8664C17.9376 23.5846 17.9985 23.2661 17.9985 22.9476V12.0569C12.5149 18.9294 8.21325 21.9798 8.21325 21.9798L0.755522 28.8278C0.255903 29.2933 0 29.9181 0 30.5429C0 31.1677 0.255903 31.8047 0.755522 32.258L8.21325 39.106C8.21325 39.057 12.5149 42.0951 17.9985 48.9799Z" fill="url(#paint6_linear_2_1704)"/>
<path d="M8.21326 39.0569C9.16375 39.7429 10.0411 40.4902 10.9063 41.2742C11.7715 42.0582 12.6002 42.8668 13.4166 43.6998C14.2209 44.5451 15.013 45.4026 15.7685 46.2847C16.1584 46.7134 16.524 47.1667 16.9018 47.62L17.9985 48.9798C17.2552 48.0855 16.5118 47.1912 15.7441 46.3214C14.9764 45.4516 14.1843 44.5941 13.3679 43.7611C12.5636 42.928 11.735 42.1073 10.8698 41.3232C10.4433 40.9312 10.0046 40.5392 9.56589 40.1717C9.1272 39.7797 8.67632 39.4121 8.21326 39.0569Z" fill="url(#paint7_linear_2_1704)"/>
<path fill-rule="evenodd" clip-rule="evenodd" d="M8.21325 21.9426L0.755522 28.7907C0.255903 29.2562 0 29.881 0 30.5057C0 31.1305 0.255903 31.7675 0.755522 32.2208L6.05636 37.0843C8.06703 33.1519 11.5522 30.0525 11.5522 30.0525L17.2673 24.601C17.377 24.4907 17.4867 24.3682 17.572 24.2457C17.6573 24.111 17.7304 23.9762 17.8035 23.8415C17.9254 23.5597 17.9863 23.2412 17.9863 22.9227V12.032C12.5149 18.9045 8.21325 21.9426 8.21325 21.9426Z" fill="url(#paint8_linear_2_1704)"/>
<path d="M17.9985 12.0201L16.9018 13.3799C16.524 13.821 16.1584 14.2742 15.7685 14.7152C15.0008 15.5973 14.2209 16.4548 13.4166 17.3001C12.6002 18.1331 11.7715 18.9417 10.9063 19.7257C10.0411 20.5097 9.15157 21.2693 8.21326 21.943C8.67632 21.6 9.1272 21.2203 9.56589 20.8405C10.0046 20.4607 10.4433 20.081 10.8698 19.689C11.7228 18.9049 12.5514 18.0841 13.3679 17.2511C14.1721 16.4181 14.9764 15.5605 15.7441 14.6907C16.4996 13.8087 17.2552 12.9144 17.9985 12.0201Z" fill="url(#paint9_linear_2_1704)"/>
<path fill-rule="evenodd" clip-rule="evenodd" d="M68.2651 6.85043C68.3869 7.07094 68.6185 7.21795 68.8622 7.2547L79.3542 8.71251C80.8287 8.92077 81.9254 10.1826 81.9254 11.6771V22.9108C81.9254 23.5479 82.1813 24.1604 82.6444 24.6014L88.128 29.8324H99.802C99.6923 29.4404 99.473 29.0729 99.1562 28.7788L91.6984 21.9308C91.2232 21.4898 90.9429 20.865 90.9429 20.2157V4.63309C90.9429 3.06503 89.7365 1.76647 88.1889 1.64397L65.7792 0.00240197C65.1211 -0.0466 64.6702 0.66393 65.0114 1.2397L68.2651 6.85043Z" fill="url(#paint10_linear_2_1704)"/>
<path fill-rule="evenodd" clip-rule="evenodd" d="M88.116 31.1678L82.6324 36.3865C82.1693 36.8275 81.9134 37.44 81.9134 38.077V49.3108C81.9134 50.8053 80.8167 52.0671 79.3422 52.2754L68.8624 53.7454C68.6065 53.7822 68.3871 53.9292 68.2653 54.1497L65.0117 59.7482C64.6826 60.3239 65.1213 61.0345 65.7794 60.9855L88.1892 59.3439C89.7489 59.2337 90.9432 57.9228 90.9432 56.3548V40.7722C90.9432 40.1229 91.2234 39.4981 91.6987 39.0571L99.1564 32.2091C99.4733 31.915 99.6804 31.5475 99.8023 31.1555L88.116 31.1678Z" fill="url(#paint11_linear_2_1704)"/>
<path fill-rule="evenodd" clip-rule="evenodd" d="M81.8273 10.9409C81.8516 11.0511 81.876 11.1614 81.8882 11.2716C81.8882 11.2839 81.8882 11.3084 81.9004 11.3207C81.9125 11.4309 81.9247 11.5534 81.9247 11.6759V22.9096C81.9247 23.2281 81.9857 23.5467 82.1075 23.8284C82.1685 23.9754 82.2416 24.1102 82.3391 24.2327C82.4365 24.3552 82.534 24.4777 82.6437 24.5879L88.3589 30.0394C88.4198 30.1007 88.4564 30.1619 88.4929 30.2354H99.8867C99.8257 29.6964 99.5942 29.1696 99.1555 28.7654L91.6978 21.9173C91.2225 21.4763 90.9423 20.8515 90.9423 20.2023V4.63188C90.9423 4.23986 90.8691 3.86009 90.7351 3.51708C90.6376 3.25982 90.4914 3.01481 90.333 2.80655C90.272 2.73305 90.2233 2.65954 90.1502 2.59829C89.6506 2.05927 88.9682 1.704 88.1883 1.655L75.0763 0.699463C80.2187 3.88459 81.5104 9.04206 81.8273 10.9409Z" fill="url(#paint12_linear_2_1704)"/>
<path d="M75.0651 0.688477C75.9546 1.252 76.8076 1.87678 77.5632 2.61181C78.3187 3.35909 78.9889 4.16762 79.5738 5.04966C80.1587 5.93169 80.6218 6.88723 80.9996 7.86727C81.3773 8.85956 81.6698 9.87636 81.8282 10.9299C81.8526 11.0524 81.8769 11.1749 81.8891 11.2974C81.9013 11.4199 81.9013 11.5424 81.9135 11.6649C81.9013 11.5424 81.9013 11.4199 81.8891 11.2974C81.8648 11.1749 81.8404 11.0524 81.816 10.9299C81.4382 8.85956 80.6705 6.85048 79.5129 5.08641C78.9402 4.20437 78.2699 3.38359 77.5266 2.63631C76.7833 1.91353 75.9424 1.26425 75.0651 0.688477Z" fill="url(#paint13_linear_2_1704)"/>
<path fill-rule="evenodd" clip-rule="evenodd" d="M87.689 31.5843L82.6441 36.3987C82.5344 36.509 82.4247 36.6315 82.3394 36.754C82.2541 36.8887 82.181 37.0235 82.1079 37.1583C81.986 37.44 81.9251 37.7585 81.9251 38.077V49.3107C81.9251 49.4333 81.9129 49.5435 81.9007 49.666C81.9007 49.6783 81.9007 49.7028 81.8885 49.715C81.8764 49.8253 81.852 49.9355 81.8276 50.0458C81.523 51.9446 80.2191 57.1021 75.0767 60.2995L88.1886 59.3439C88.9685 59.2827 89.6509 58.9396 90.1505 58.4006C90.2115 58.3394 90.2724 58.2659 90.3333 58.1924C90.5039 57.9719 90.638 57.7391 90.7355 57.4818C90.8695 57.1388 90.9426 56.7591 90.9426 56.367V40.7722C90.9426 40.1229 91.2229 39.4981 91.6981 39.0571L99.1559 32.209C99.363 32.0253 99.5093 31.8048 99.6311 31.572L87.689 31.5843Z" fill="url(#paint14_linear_2_1704)"/>
<path d="M81.9135 49.323C81.9013 49.4455 81.9013 49.568 81.8891 49.6905C81.8769 49.813 81.8526 49.9355 81.8282 50.058C81.6698 51.0993 81.3773 52.1284 80.9996 53.1206C80.6218 54.1129 80.1466 55.0562 79.5738 55.9505C78.9889 56.8325 78.3187 57.6533 77.5632 58.3883C76.8076 59.1234 75.9546 59.7604 75.0651 60.3117C75.9424 59.7236 76.7833 59.0866 77.5266 58.3516C78.2699 57.6043 78.9402 56.7835 79.5129 55.9015C80.6584 54.1374 81.4382 52.1284 81.816 50.058C81.8404 49.9355 81.8648 49.813 81.8891 49.6905C81.9013 49.568 81.9135 49.4455 81.9135 49.323Z" fill="url(#paint15_linear_2_1704)"/>
<path fill-rule="evenodd" clip-rule="evenodd" d="M81.9131 12.0201V22.9108C81.9131 23.2294 81.974 23.5479 82.0959 23.8296C82.1568 23.9766 82.2299 24.1114 82.3274 24.2339C82.4249 24.3564 82.5224 24.4789 82.632 24.5892L88.3472 30.0406C88.4691 30.1631 88.5422 30.3224 88.5422 30.4817C88.5422 30.6409 88.4813 30.8002 88.3472 30.9227L82.632 36.3741C82.5224 36.4844 82.4127 36.6069 82.3274 36.7294C82.2421 36.8642 82.169 36.9989 82.0959 37.1337C81.974 37.4154 81.9131 37.734 81.9131 38.0525V48.9432C87.3967 42.0706 91.6983 39.0203 91.6983 39.0203L99.156 32.1722C99.6557 31.7067 99.9116 31.0819 99.9116 30.4572C99.9116 29.8324 99.6557 29.1953 99.156 28.7421L91.6983 21.894C91.6983 21.9431 87.3967 18.9049 81.9131 12.0201Z" fill="url(#paint16_linear_2_1704)"/>
<path d="M91.6983 21.943C90.7478 21.257 89.8704 20.5097 89.0052 19.7257C88.14 18.9417 87.3114 18.1331 86.495 17.3001C85.6907 16.4548 84.8986 15.5973 84.1431 14.7152C83.7531 14.2865 83.3876 13.8332 83.0098 13.3799L81.9131 12.0201C82.6564 12.9144 83.3998 13.8087 84.1675 14.6785C84.9352 15.5483 85.7273 16.4058 86.5437 17.2389C87.348 18.0719 88.1766 18.8927 89.0418 19.6767C89.4683 20.0687 89.907 20.4607 90.3457 20.8282C90.7844 21.2203 91.2353 21.5878 91.6983 21.943Z" fill="url(#paint17_linear_2_1704)"/>
<path fill-rule="evenodd" clip-rule="evenodd" d="M91.6986 39.0572L99.1563 32.2091C99.6559 31.7436 99.9118 31.1188 99.9118 30.4941C99.9118 29.8693 99.6559 29.2322 99.1563 28.779L93.8433 23.9155C91.8326 27.8479 88.3475 30.9473 88.3475 30.9473L82.6323 36.3988C82.5226 36.509 82.4129 36.6316 82.3276 36.7541C82.2423 36.8888 82.1692 37.0236 82.0961 37.1583C81.9743 37.4401 81.9133 37.7586 81.9133 38.0771V48.9678C87.397 42.0953 91.6986 39.0572 91.6986 39.0572Z" fill="url(#paint18_linear_2_1704)"/>
<path d="M81.9131 48.9799L83.0098 47.6201C83.3876 47.1791 83.7531 46.7258 84.1431 46.2848C84.9108 45.4027 85.6907 44.5452 86.495 43.6999C87.3114 42.8669 88.14 42.0584 89.0052 41.2743C89.8704 40.4903 90.76 39.7308 91.6983 39.057C91.2353 39.4 90.7844 39.7798 90.3457 40.1595C89.907 40.5393 89.4683 40.9191 89.0418 41.3111C88.1888 42.0951 87.3602 42.9159 86.5437 43.7489C85.7394 44.582 84.9352 45.4395 84.1675 46.3093C83.4119 47.1913 82.6564 48.0733 81.9131 48.9799Z" fill="url(#paint19_linear_2_1704)"/>
<path d="M77.1124 20.3381C71.3607 14.5559 62.002 14.5559 56.2502 20.3381L49.9989 26.6349L43.7354 20.3381C37.9837 14.5559 28.625 14.5559 22.8854 20.3381C20.0949 23.1435 18.5594 26.8677 18.5594 30.8246C18.5594 34.7815 20.0949 38.5056 22.8854 41.311C25.676 44.1164 29.3805 45.6599 33.3165 45.6599C37.2525 45.6599 40.957 44.1164 43.7476 41.311L50.0111 35.0142L56.2746 41.311C59.0652 44.1164 62.7697 45.6599 66.7057 45.6599C70.6417 45.6599 74.3462 44.1164 77.1368 41.311C79.9273 38.5056 81.4627 34.7815 81.4627 30.8246C81.4384 26.8554 79.903 23.1313 77.1124 20.3381ZM39.58 37.1213C36.1192 40.6005 30.5016 40.6005 27.0408 37.1213C23.58 33.6422 23.58 27.9947 27.0408 24.5156C28.7712 22.776 31.0377 21.9062 33.3043 21.9062C35.5709 21.9062 37.8496 22.776 39.5678 24.5156L45.8435 30.8123L39.58 37.1213ZM72.957 37.1213C69.4963 40.6005 63.8786 40.6005 60.4178 37.1213L54.1543 30.8123L60.4178 24.5156C63.8786 21.0364 69.4963 21.0364 72.957 24.5156C76.4178 27.9947 76.4178 33.6422 72.957 37.1213Z" fill="url(#paint20_linear_2_1704)"/>
<path opacity="0.1" d="M54.154 30.8247L49.9987 35.0144L55.7138 32.3928L54.154 30.8247Z" fill="#010101"/>
<path opacity="0.1" d="M49.9984 26.6227L45.843 30.8246L44.1736 29.134L49.9984 26.6227Z" fill="#010101"/>
<path d="M75.296 22.1634C70.5557 17.3979 62.8299 17.3979 58.0774 22.1634L49.9982 30.2855L49.4864 30.8122L41.395 38.9466C36.935 43.4303 29.6844 43.4303 25.2244 38.9466C20.7644 34.4629 20.7644 27.1738 25.2244 22.6901C27.4544 20.4483 30.379 19.3212 33.3158 19.3212C36.2404 19.3212 39.1772 20.4483 41.4072 22.6779L47.6707 28.9746L48.1947 28.4479L41.9312 22.1511C37.1909 17.3857 29.4651 17.3857 24.7126 22.1511C19.9601 26.9166 19.9723 34.6834 24.7126 39.4611C27.0889 41.8499 30.2084 43.0382 33.328 43.0382C36.4476 43.0382 39.5671 41.8499 41.9312 39.4611L50.0104 31.339L50.5222 30.8122L58.6136 22.6779C63.0736 18.1942 70.3242 18.1942 74.7842 22.6779C79.2442 27.1616 79.2442 34.4506 74.7842 38.9343C70.3242 43.418 63.0736 43.418 58.6136 38.9343L52.3501 32.6376L51.8261 33.1643L58.0896 39.4611C60.4658 41.8499 63.5854 43.0382 66.705 43.0382C69.8246 43.0382 72.9441 41.8499 75.3204 39.4611C80.0363 34.7079 80.0363 26.9411 75.296 22.1634Z" fill="white"/>
<defs>
<linearGradient id="paint0_linear_2_1704" x1="29.3697" y1="41.0938" x2="17.6203" y2="45.8704" gradientUnits="userSpaceOnUse">
<stop stop-color="#00B3CE"/>
<stop offset="1" stop-color="#0E497C"/>
</linearGradient>
<linearGradient id="paint1_linear_2_1704" x1="37.327" y1="11.4864" x2="20.0487" y2="14.3284" gradientUnits="userSpaceOnUse">
<stop stop-color="#03AED0"/>
<stop offset="1" stop-color="#163F6C"/>
</linearGradient>
<linearGradient id="paint2_linear_2_1704" x1="17.0622" y1="59.4488" x2="11.1913" y2="41.3144" gradientUnits="userSpaceOnUse">
<stop stop-color="#03AED0"/>
<stop offset="1" stop-color="#0A2141"/>
</linearGradient>
<linearGradient id="paint3_linear_2_1704" x1="17.9564" y1="54.818" x2="24.8603" y2="54.818" gradientUnits="userSpaceOnUse">
<stop stop-color="#138FCF"/>
<stop offset="1" stop-color="#90D5E1"/>
</linearGradient>
<linearGradient id="paint4_linear_2_1704" x1="22.6028" y1="-1.39711" x2="8.7593" y2="21.2356" gradientUnits="userSpaceOnUse">
<stop stop-color="#00B3CE"/>
<stop offset="1" stop-color="#044F8E"/>
</linearGradient>
<linearGradient id="paint5_linear_2_1704" x1="24.1679" y1="0.258165" x2="17.3943" y2="11.3322" gradientUnits="userSpaceOnUse">
<stop stop-color="#90D5E1"/>
<stop offset="0.9897" stop-color="#08AEBF"/>
</linearGradient>
<linearGradient id="paint6_linear_2_1704" x1="27.9767" y1="38.9676" x2="12.9145" y2="26.3291" gradientUnits="userSpaceOnUse">
<stop stop-color="#03AED0"/>
<stop offset="1" stop-color="#163F6C"/>
</linearGradient>
<linearGradient id="paint7_linear_2_1704" x1="8.19037" y1="44.0203" x2="18.0212" y2="44.0203" gradientUnits="userSpaceOnUse">
<stop stop-color="#005993"/>
<stop offset="1" stop-color="#A6DFF9"/>
</linearGradient>
<linearGradient id="paint8_linear_2_1704" x1="3.50874" y1="29.5975" x2="20.1825" y2="19.8292" gradientUnits="userSpaceOnUse">
<stop stop-color="#00B3CE"/>
<stop offset="1" stop-color="#044F8E"/>
</linearGradient>
<linearGradient id="paint9_linear_2_1704" x1="8.19037" y1="16.9816" x2="18.0212" y2="16.9816" gradientUnits="userSpaceOnUse">
<stop stop-color="#A6DFF9"/>
<stop offset="1" stop-color="#0A71B9"/>
</linearGradient>
<linearGradient id="paint10_linear_2_1704" x1="70.5405" y1="19.9055" x2="82.2899" y2="15.1289" gradientUnits="userSpaceOnUse">
<stop stop-color="#00B3CE"/>
<stop offset="1" stop-color="#0E497C"/>
</linearGradient>
<linearGradient id="paint11_linear_2_1704" x1="62.5833" y1="49.5122" x2="79.8616" y2="46.6703" gradientUnits="userSpaceOnUse">
<stop stop-color="#03AED0"/>
<stop offset="1" stop-color="#163F6C"/>
</linearGradient>
<linearGradient id="paint12_linear_2_1704" x1="82.8473" y1="1.54937" x2="88.7181" y2="19.6838" gradientUnits="userSpaceOnUse">
<stop stop-color="#03AED0"/>
<stop offset="1" stop-color="#0A2141"/>
</linearGradient>
<linearGradient id="paint13_linear_2_1704" x1="81.9544" y1="6.18282" x2="75.0504" y2="6.18282" gradientUnits="userSpaceOnUse">
<stop stop-color="#138FCF"/>
<stop offset="1" stop-color="#90D5E1"/>
</linearGradient>
<linearGradient id="paint14_linear_2_1704" x1="77.3067" y1="62.3961" x2="91.1503" y2="39.7634" gradientUnits="userSpaceOnUse">
<stop stop-color="#00B3CE"/>
<stop offset="1" stop-color="#044F8E"/>
</linearGradient>
<linearGradient id="paint15_linear_2_1704" x1="75.7438" y1="60.7419" x2="82.5173" y2="49.6679" gradientUnits="userSpaceOnUse">
<stop stop-color="#90D5E1"/>
<stop offset="0.9897" stop-color="#08AEBF"/>
</linearGradient>
<linearGradient id="paint16_linear_2_1704" x1="71.9336" y1="22.0319" x2="86.9958" y2="34.6703" gradientUnits="userSpaceOnUse">
<stop stop-color="#03AED0"/>
<stop offset="1" stop-color="#163F6C"/>
</linearGradient>
<linearGradient id="paint17_linear_2_1704" x1="91.7199" y1="16.9816" x2="81.8891" y2="16.9816" gradientUnits="userSpaceOnUse">
<stop stop-color="#005993"/>
<stop offset="1" stop-color="#A6DFF9"/>
</linearGradient>
<linearGradient id="paint18_linear_2_1704" x1="96.4013" y1="31.4009" x2="79.7276" y2="41.1692" gradientUnits="userSpaceOnUse">
<stop stop-color="#00B3CE"/>
<stop offset="1" stop-color="#044F8E"/>
</linearGradient>
<linearGradient id="paint19_linear_2_1704" x1="91.7199" y1="44.0193" x2="81.8891" y2="44.0193" gradientUnits="userSpaceOnUse">
<stop stop-color="#A6DFF9"/>
<stop offset="1" stop-color="#0A71B9"/>
</linearGradient>
<linearGradient id="paint20_linear_2_1704" x1="31.2262" y1="49.6923" x2="68.9708" y2="12.1469" gradientUnits="userSpaceOnUse">
<stop stop-color="#6A4A9E"/>
<stop offset="1" stop-color="#71C9BA"/>
</linearGradient>
</defs>
</svg>
