<svg width="113" height="77" viewBox="0 0 113 77" fill="none" xmlns="http://www.w3.org/2000/svg">
<path d="M1.11278 40.7093L1.37263 40.9689L35.1834 74.7544C35.588 75.1668 36.0709 75.4941 36.6039 75.7169C37.1368 75.9398 37.709 76.0537 38.2867 76.0521C39.443 76.0519 40.5531 75.5981 41.3785 74.7883C42.204 73.9784 42.6788 72.8772 42.701 71.721L42.6968 60.5512C42.7108 59.0314 42.4244 57.5237 41.8543 56.1148C41.2842 54.7059 40.4415 53.4235 39.3746 52.341L25.0822 38.0594L39.3638 23.7814C41.5152 21.6184 42.723 18.6917 42.7233 15.6409L42.7191 4.48551C42.7247 3.89829 42.6131 3.31587 42.3908 2.77232C42.1685 2.22876 41.8401 1.735 41.4247 1.31992C41.0093 0.904835 40.5153 0.576766 39.9716 0.354924C39.4279 0.133074 38.8454 0.021903 38.2582 0.0279062C37.6805 0.0266732 37.1084 0.141046 36.5756 0.364307C36.0428 0.587567 35.5601 0.915202 35.1559 1.32789L1.35603 35.1531L1.11079 35.3986C0.76316 35.7435 0.487282 36.1539 0.299082 36.606C0.110882 37.0581 0.0140712 37.543 0.0142548 38.0327C0.0144384 38.5224 0.111613 39.0072 0.300152 39.4592C0.488691 39.9112 0.764876 40.3213 1.11276 40.666L1.11278 40.7093Z" fill="white"/>
<path d="M35.746 35.4289C35.3984 35.7738 35.1225 36.1842 34.9343 36.6363C34.7461 37.0884 34.6493 37.5733 34.6495 38.063C34.6496 38.5528 34.7468 39.0376 34.9354 39.4896C35.1239 39.9415 35.4001 40.3517 35.748 40.6963L69.8186 74.7415C70.2232 75.1539 70.7061 75.4811 71.2391 75.704C71.772 75.9269 72.3442 76.0408 72.9219 76.0391C74.0782 76.0389 75.1883 75.5852 76.0137 74.7753C76.8392 73.9655 77.314 72.8642 77.3362 71.7081L77.332 60.5382C77.3459 59.0184 77.0596 57.5108 76.4895 56.1019C75.9194 54.693 75.0767 53.4105 74.0097 52.3281L59.7174 38.0464L73.999 23.7685C76.1504 21.6054 77.3582 18.6788 77.3585 15.628L77.3543 4.47257C77.3599 3.88536 77.2483 3.30293 77.026 2.75938C76.8037 2.21582 76.4753 1.72206 76.0599 1.30698C75.6445 0.891896 75.1505 0.563826 74.6068 0.341984C74.0631 0.120134 73.4806 0.00896357 72.8934 0.0149668C72.3157 0.0137338 71.7436 0.128107 71.2108 0.351367C70.678 0.574628 70.1953 0.902262 69.7911 1.31495L35.9912 35.1402L35.746 35.4289Z" fill="white"/>
<path d="M70.3811 35.4159C70.0335 35.7608 69.7576 36.1711 69.5694 36.6232C69.3812 37.0754 69.2844 37.5603 69.2846 38.05C69.2848 38.5397 69.382 39.0245 69.5705 39.4765C69.759 39.9285 70.0352 40.3386 70.3831 40.6833L70.643 40.9429L104.454 74.7284C104.858 75.1408 105.341 75.4681 105.874 75.6909C106.407 75.9138 106.979 76.0277 107.557 76.0261C108.713 76.0259 109.823 75.5721 110.649 74.7623C111.474 73.9524 111.949 72.8512 111.971 71.695L111.967 60.5252C111.981 59.0054 111.695 57.4977 111.125 56.0888C110.555 54.6799 109.712 53.3975 108.645 52.315L94.3525 38.0334L108.634 23.7554C110.786 21.5924 111.993 18.6657 111.994 15.6149L111.989 4.45951C111.995 3.87229 111.883 3.28987 111.661 2.74632C111.439 2.20276 111.11 1.709 110.695 1.29392C110.28 0.878834 109.786 0.550765 109.242 0.328923C108.698 0.107073 108.116 -0.00409795 107.528 0.00190527C106.951 0.000672255 106.379 0.115045 105.846 0.338306C105.313 0.561566 104.83 0.889201 104.426 1.30189L70.6263 35.1271L70.3811 35.4159Z" fill="white"/>
<path d="M21.5466 38.6525C21.4682 38.5753 21.4061 38.4832 21.3639 38.3815C21.3217 38.2799 21.3004 38.1709 21.3011 38.0609L2.90114 38.0678C2.90043 38.1778 2.9218 38.2868 2.96398 38.3884C3.00616 38.4901 3.06828 38.5822 3.14669 38.6594L37.2174 72.7189C37.4321 72.9282 37.7036 73.0697 37.9981 73.1259C38.2926 73.1821 38.5971 73.1506 38.8738 73.0351C39.1505 72.9197 39.3872 72.7255 39.5545 72.4767C39.7218 72.2279 39.8122 71.9354 39.8146 71.6356L39.8104 60.4802C39.8076 58.1916 38.8988 55.9972 37.2827 54.3767L21.5466 38.6525Z" fill="#CC1F45"/>
<path d="M56.1818 38.6394C56.1033 38.5622 56.0412 38.4701 55.999 38.3685C55.9569 38.2669 55.9355 38.1578 55.9362 38.0478L37.5363 38.0547C37.5356 38.1647 37.5569 38.2738 37.5991 38.3754C37.6413 38.477 37.7034 38.5691 37.7818 38.6463L71.8525 72.7059C72.0672 72.9151 72.3387 73.0566 72.6332 73.1128C72.9277 73.1691 73.2323 73.1375 73.509 73.0221C73.7857 72.9067 74.0224 72.7125 74.1896 72.4637C74.3569 72.2148 74.4473 71.9223 74.4497 71.6225L74.4456 60.4671C74.4427 58.1785 73.5339 55.9841 71.9178 54.3636L56.1818 38.6394Z" fill="#EAEE38"/>
<path d="M90.8169 38.6263C90.7385 38.5492 90.6763 38.457 90.6342 38.3554C90.592 38.2538 90.5706 38.1448 90.5713 38.0347L72.1714 38.0416C72.1707 38.1517 72.1921 38.2607 72.2342 38.3623C72.2764 38.4639 72.3385 38.5561 72.417 38.6332L106.488 72.6928C106.702 72.902 106.974 73.0436 107.268 73.0998C107.563 73.156 107.867 73.1244 108.144 73.009C108.421 72.8936 108.657 72.6994 108.825 72.4506C108.992 72.2018 109.082 71.9093 109.085 71.6095L109.081 60.4541C109.078 58.1655 108.169 55.9711 106.553 54.3506L90.8169 38.6263Z" fill="#CC1F45"/>
<path d="M39.7894 4.48671C39.7867 4.18691 39.6961 3.89449 39.5286 3.64579C39.3612 3.3971 39.1243 3.20308 38.8475 3.08788C38.5707 2.97266 38.2662 2.94133 37.9717 2.99778C37.6773 3.05422 37.4059 3.19594 37.1913 3.40534L3.14616 37.476C3.06781 37.5533 3.00575 37.6454 2.96365 37.7471C2.92155 37.8487 2.90026 37.9578 2.90106 38.0678L21.301 38.0609C21.3002 37.9509 21.3215 37.8418 21.3636 37.7402C21.4057 37.6385 21.4677 37.5464 21.5461 37.4691L37.2703 21.6754C38.8817 20.0572 39.7886 17.868 39.7935 15.5844L39.7894 4.48671Z" fill="#A2122A"/>
<path d="M74.4245 4.47377C74.4219 4.17397 74.3312 3.88155 74.1637 3.63285C73.9963 3.38416 73.7595 3.19014 73.4827 3.07494C73.2059 2.95973 72.9013 2.9284 72.6068 2.98484C72.3124 3.04128 72.041 3.183 71.8264 3.3924L37.7813 37.4631C37.7029 37.5403 37.6409 37.6325 37.5988 37.7341C37.5567 37.8358 37.5354 37.9448 37.5362 38.0548L55.9361 38.048C55.9353 37.9379 55.9566 37.8289 55.9987 37.7272C56.0408 37.6256 56.1029 37.5334 56.1812 37.4562L71.9055 21.6624C73.5168 20.0443 74.4237 17.8551 74.4286 15.5715L74.4245 4.47377Z" fill="#F9D761"/>
<path d="M106.462 3.37934L72.4165 37.45C72.3381 37.5273 72.2761 37.6194 72.234 37.7211C72.1919 37.8227 72.1706 37.9318 72.1714 38.0418L90.5713 38.0349C90.5705 37.9249 90.5918 37.8158 90.6339 37.7142C90.676 37.6125 90.7381 37.5204 90.8164 37.4431L106.541 21.6494C108.152 20.0312 109.059 17.842 109.064 15.5584L109.06 4.403C109.046 4.1081 108.948 3.82339 108.776 3.58322C108.604 3.34305 108.367 3.15766 108.092 3.04944C107.818 2.94123 107.518 2.9148 107.228 2.97333C106.939 3.03187 106.673 3.17287 106.462 3.37934Z" fill="#A2122A"/>
</svg>
