<svg width="174" height="420" viewBox="0 0 174 420" fill="none" xmlns="http://www.w3.org/2000/svg">
<path opacity="0.1" d="M18.4888 413.689C18.4888 417.179 53.2693 420 96.2391 420C139.209 420 174 417.179 174 413.689C174 410.198 139.219 407.377 96.2391 407.377C53.2588 407.377 18.4888 410.208 18.4888 413.689Z" fill="#1C1918"/>
<path d="M49.0745 178.981C49.0745 178.981 26.9414 228.271 23.2421 224.99C19.5427 221.71 14.9263 223.09 18.0777 214.648C21.229 206.206 35.0148 168.639 35.0148 168.639L49.0745 178.981Z" fill="#FFBFA1"/>
<path d="M164.43 173.26C164.43 173.26 142.297 202.876 120.311 208.597L120.101 198.795C129.013 191.474 136.816 183.019 143.288 173.67C154.533 157.737 164.43 173.26 164.43 173.26Z" fill="#FFBFA1"/>
<path d="M117.887 380.082L121.766 402.266H130.841L127.805 378.141L117.887 380.082Z" fill="#16333C"/>
<path d="M133.591 391.754C133.591 391.754 138.766 398.136 146.618 400.376C154.47 402.616 161.574 405.477 160.994 409.958C160.994 409.958 149.306 415.389 130.335 409.348V411.248L117.877 410.728V395.085L128.227 395.775L127.457 394.215L133.591 391.754Z" fill="#333030"/>
<path d="M138.587 409.568C155.587 413.719 159.909 409.118 160.899 408.798C161.015 409.174 161.047 409.569 160.994 409.958C160.994 409.958 149.306 415.389 130.335 409.348V411.248L117.877 410.728V407.597C122.356 407.858 126.056 406.507 138.587 409.568Z" fill="#1C1918"/>
<path d="M131.842 400.896C131.931 400.896 132.02 400.875 132.099 400.835C132.178 400.795 132.245 400.737 132.295 400.666C133.608 398.669 135.505 397.078 137.755 396.085C137.894 396.039 138.009 395.941 138.073 395.815C138.137 395.688 138.146 395.543 138.097 395.41C138.048 395.277 137.946 395.169 137.812 395.108C137.679 395.047 137.525 395.038 137.386 395.085C134.916 396.149 132.838 397.891 131.42 400.086C131.365 400.164 131.333 400.255 131.328 400.349C131.323 400.443 131.345 400.537 131.391 400.62C131.438 400.703 131.507 400.773 131.592 400.821C131.677 400.87 131.774 400.896 131.873 400.896H131.842Z" fill="#1C1918"/>
<path d="M134.719 402.086C134.809 402.087 134.897 402.066 134.977 402.026C135.056 401.986 135.123 401.928 135.172 401.856C136.469 399.841 138.36 398.231 140.611 397.225C140.751 397.179 140.865 397.082 140.929 396.955C140.994 396.829 141.002 396.683 140.953 396.55C140.904 396.418 140.802 396.309 140.669 396.248C140.535 396.187 140.382 396.179 140.242 396.225C137.772 397.294 135.692 399.034 134.266 401.226C134.211 401.304 134.179 401.395 134.174 401.489C134.168 401.583 134.19 401.677 134.237 401.76C134.283 401.843 134.353 401.913 134.438 401.962C134.523 402.01 134.62 402.036 134.719 402.036V402.086Z" fill="#1C1918"/>
<path d="M137.575 403.317C137.665 403.316 137.753 403.295 137.832 403.255C137.911 403.215 137.978 403.157 138.028 403.087C139.322 401.08 141.2 399.472 143.435 398.456C143.575 398.409 143.69 398.312 143.754 398.185C143.818 398.059 143.827 397.913 143.778 397.78C143.729 397.648 143.626 397.539 143.493 397.478C143.36 397.417 143.206 397.409 143.066 397.455C140.6 398.525 138.524 400.266 137.101 402.456C137.046 402.535 137.014 402.626 137.009 402.72C137.003 402.814 137.025 402.907 137.072 402.99C137.118 403.074 137.188 403.143 137.273 403.192C137.358 403.24 137.455 403.266 137.554 403.267L137.575 403.317Z" fill="#1C1918"/>
<path d="M75.5079 380.082L71.6188 402.266H62.5442L65.5796 378.141L75.5079 380.082Z" fill="#16333C"/>
<path d="M59.7934 391.754C59.7934 391.754 54.6185 398.136 46.7665 400.376C38.9145 402.616 30.9571 405.477 31.5263 409.958C31.5263 409.958 44.0789 415.389 63.0501 409.348V411.248L75.5079 410.728V395.085L65.158 395.775L65.9274 394.215L59.7934 391.754Z" fill="#333030"/>
<path d="M52.2154 410.388C40.2847 412.168 32.6224 409.118 31.6211 408.798C31.51 409.175 31.4778 409.569 31.5263 409.958C31.5263 409.958 44.0789 415.389 63.0501 409.348V411.248L75.5079 410.728V406.787C71.0602 407.087 63.6719 408.678 52.2154 410.388Z" fill="#1C1918"/>
<path d="M61.5218 400.896C61.432 400.897 61.3435 400.876 61.2643 400.836C61.1852 400.796 61.1179 400.737 61.0686 400.666C59.7691 398.653 57.8791 397.044 55.6302 396.035C55.561 396.012 55.4972 395.976 55.4425 395.93C55.3879 395.884 55.3434 395.828 55.3116 395.765C55.2798 395.702 55.2613 395.634 55.2572 395.565C55.2531 395.495 55.2634 395.426 55.2876 395.36C55.3119 395.294 55.3495 395.234 55.3983 395.182C55.4472 395.13 55.5063 395.088 55.5724 395.058C55.6385 395.027 55.7101 395.01 55.7833 395.006C55.8565 395.002 55.9298 395.012 55.9991 395.035C58.4751 396.095 60.5575 397.837 61.975 400.036C62.0303 400.114 62.0622 400.205 62.0674 400.299C62.0725 400.393 62.0507 400.487 62.0041 400.57C61.9576 400.653 61.8882 400.723 61.8032 400.771C61.7183 400.82 61.621 400.846 61.5218 400.846V400.896Z" fill="#1C1918"/>
<path d="M58.6656 402.086C58.576 402.086 58.4878 402.065 58.4088 402.025C58.3298 401.985 58.2623 401.927 58.2124 401.856C56.9152 399.845 55.0292 398.236 52.7845 397.225C52.6447 397.179 52.5301 397.082 52.4659 396.955C52.4017 396.829 52.393 396.683 52.442 396.55C52.4909 396.418 52.5933 396.309 52.7267 396.248C52.8601 396.187 53.0136 396.179 53.1534 396.225C55.6195 397.295 57.6956 399.036 59.1188 401.226C59.1741 401.304 59.206 401.395 59.2112 401.489C59.2163 401.583 59.1945 401.677 59.1479 401.76C59.1014 401.843 59.032 401.913 58.947 401.962C58.8621 402.01 58.7648 402.036 58.6656 402.036V402.086Z" fill="#1C1918"/>
<path d="M55.8199 403.317C55.7302 403.317 55.6416 403.297 55.5625 403.256C55.4833 403.216 55.416 403.158 55.3667 403.087C54.0649 401.076 52.1755 399.467 49.9283 398.456C49.7885 398.409 49.6739 398.312 49.6097 398.185C49.5455 398.059 49.5369 397.913 49.5858 397.78C49.6347 397.648 49.7371 397.539 49.8705 397.478C50.004 397.417 50.1574 397.409 50.2972 397.455C52.7672 398.524 54.8472 400.264 56.2731 402.456C56.3285 402.535 56.3604 402.626 56.3655 402.72C56.3707 402.814 56.3488 402.907 56.3023 402.99C56.2558 403.074 56.1863 403.143 56.1014 403.192C56.0164 403.24 55.9191 403.266 55.8199 403.267V403.317Z" fill="#1C1918"/>
<path d="M115.674 202.886L125.16 309.968L134.645 388.404C134.645 388.404 130.05 394.405 112.828 391.674L99.8647 314.869L89.5359 241.854H83.7918L78.912 391.644C78.912 391.644 71.4605 397.085 57.6853 392.184L59.4033 199.375L115.674 202.886Z" fill="#6D6D6D"/>
<path d="M83.7919 96.9842L84.5718 127.4L103.891 119.209L103.28 87.8823L83.7919 96.9842Z" fill="#D69F8A"/>
<path d="M52.679 119.539C52.679 119.539 54.5445 173.96 58.2545 201.555C58.2545 201.555 72.4618 207.557 95.0797 206.716C111.068 206.096 115.674 202.856 115.674 202.856L141.77 111.027C141.77 111.027 127.015 108.126 102.71 108.156L91.4119 118.028C91.4119 118.028 88.3449 110.317 82.2847 108.786C73.1047 109.387 63.0816 110.427 52.3839 112.097L52.679 119.539Z" fill="#E6F9FF"/>
<path d="M143.34 173.67L121.977 117.188L141.77 110.977L164.388 171.939L143.34 173.67Z" fill="#E6F9FF"/>
<path d="M66.6755 206.827C64.1477 206.384 61.6991 205.603 59.4032 204.506C57.9804 204.066 58.1596 205.376 58.0015 206.757C57.7907 208.587 58.1174 209.567 59.4032 209.937C59.6351 210.007 60.7628 211.127 65.6005 212.228L66.6755 206.827Z" fill="#1C1918"/>
<path d="M101.519 208.297C95.621 208.775 89.6982 208.925 83.7813 208.747C79.4008 208.643 75.0336 208.245 70.7122 207.557C70.786 209.428 70.6268 211.302 70.238 213.138C74.6828 213.895 79.1824 214.326 83.697 214.428C85.8049 214.428 87.8179 214.478 89.8205 214.428C94.2787 214.358 98.3997 214.118 102.257 213.698C101.816 211.926 101.569 210.116 101.519 208.297Z" fill="#1C1918"/>
<path d="M117.371 207.837C117.097 206.466 116.918 205.246 115.495 205.696C112.099 206.75 108.605 207.496 105.061 207.927C105.187 209.717 105.461 211.487 105.746 213.258C109.476 212.729 113.143 211.858 116.697 210.657C117.687 210.307 117.645 209.227 117.371 207.837Z" fill="#1C1918"/>
<path d="M92.6345 207.937L92.7715 215.218L80.1979 214.608L80.0714 207.857L92.6345 207.937ZM90.5266 209.157L82.2214 209.107L82.3058 213.568L90.6109 213.968L90.5266 209.157Z" fill="#ADADAD"/>
<path d="M91.4121 118.038L94.3421 108.366L100.834 111.197L91.4121 118.038Z" fill="#D8CAC7"/>
<path d="M90.5792 109.207L91.4119 118.038L86.0894 111.787L90.5792 109.207Z" fill="#D8CAC7"/>
<path d="M96.2603 111.747C93.7475 112.216 91.1731 112.311 88.6297 112.027L85.0357 116.028L88.1975 120.339L75.8873 188.353L85.3729 197.355L96.9665 189.503L94.2999 120.799L98.2312 115.478L96.2603 111.747Z" fill="#16333C"/>
<path d="M75.9084 108.627L83.8658 118.819L90.5795 109.207L80.0294 102.545L75.9084 108.627Z" fill="#D8EAEF"/>
<path d="M110.046 107.276L99.9386 118.258L94.3421 108.366L105.988 101.205L110.046 107.276Z" fill="#D8EAEF"/>
<path d="M139.462 167.128L163.861 163.188L167.782 172.63L141.19 176.94L139.462 167.128Z" fill="#D8EAEF"/>
<path d="M99.8857 21.2288C118.246 25.2296 117.75 37.162 117.75 37.162C117.75 37.162 117.181 46.4039 116.823 57.4061C117.631 56.2916 118.83 55.4851 120.206 55.1299C121.581 54.7746 123.045 54.8936 124.338 55.4658C130.587 58.0163 125.971 76.6801 116.475 75.0197C116.064 80.2408 115.526 84.3016 114.82 85.7119C112.154 91.023 100.423 99.1547 90.0207 100.425C79.6182 101.695 66.5596 95.1138 66.5596 83.4214C66.5596 71.7291 66.2962 33.8313 66.2962 33.8313C66.2962 33.8313 69.4896 14.6474 99.8857 21.2288Z" fill="#FFBFA1"/>
<path d="M82.9594 54.8755C82.2743 56.4758 81.6314 58.0661 80.9674 59.6465C80.6513 60.4466 80.3034 61.2268 79.9767 62.0169C79.65 62.8071 79.3127 63.5773 78.9228 64.3474C78.5328 65.1176 78.2166 65.8977 77.8688 66.6579C77.521 67.418 77.131 68.1782 76.6884 68.8983C76.4776 69.2584 76.2773 69.6385 76.0455 69.9786C75.8136 70.3186 75.6133 70.6987 75.3604 71.0288L74.6121 72.029L73.7795 72.9392L73.3473 73.4193L73.79 73.7393C75.2972 74.8296 76.8148 75.8998 78.4274 76.88C77.1837 75.4997 75.8663 74.2094 74.5278 72.9392V73.7393L75.5817 72.8191C75.8979 72.4891 76.193 72.139 76.4881 71.8189C76.7832 71.4989 77.0256 71.0988 77.2997 70.7387C77.5737 70.3827 77.8203 70.0083 78.0374 69.6185C78.5117 68.8683 78.9122 68.0882 79.3127 67.308C79.7132 66.5279 80.0505 65.7177 80.3667 64.9075C81.006 63.2911 81.5479 61.6414 81.9898 59.9665C82.4402 58.2936 82.7642 56.5922 82.9594 54.8755Z" fill="#D69F8A"/>
<path d="M94.089 56.5259C94.089 59.0564 95.28 61.1168 96.745 61.1168C98.21 61.1168 99.4115 59.0164 99.4115 56.5259C99.4115 54.0354 98.2205 51.9249 96.745 51.9249C95.2694 51.9249 94.089 54.0154 94.089 56.5259Z" fill="#222228"/>
<path d="M71.6925 57.5361C71.6925 60.0766 72.8834 62.1271 74.3484 62.1271C75.8134 62.1271 77.036 60.0766 77.036 57.5361C77.036 54.9956 75.845 52.9452 74.3695 52.9452C72.894 52.9452 71.6925 55.0156 71.6925 57.5361Z" fill="#222228"/>
<path d="M89.7572 46.0138H90.5161L92.4027 45.8637C93.151 45.8037 93.9942 45.7137 94.8689 45.6637H95.5224H96.1758C96.6185 45.6637 97.0401 45.6637 97.4722 45.6637C97.9043 45.6637 98.3154 45.7237 98.7159 45.7937C99.1083 45.8499 99.4958 45.9335 99.8752 46.0438C100.062 46.101 100.252 46.1477 100.444 46.1838C100.624 46.2438 100.782 46.3338 100.961 46.4038C101.309 46.5117 101.641 46.6595 101.952 46.8439C102.247 47.014 102.573 47.144 102.826 47.304C103.079 47.464 103.301 47.6141 103.49 47.7441C103.891 47.9842 104.154 48.1242 104.154 48.1242C104.128 47.8819 104.086 47.6414 104.028 47.404C103.965 47.184 103.901 46.8939 103.785 46.5839C103.636 46.2369 103.456 45.9024 103.248 45.5837C103.134 45.3842 103.003 45.1936 102.858 45.0136C102.7 44.8435 102.521 44.6735 102.341 44.5034C102.162 44.3334 101.962 44.1534 101.751 43.9833C101.54 43.8133 101.288 43.7033 101.045 43.5633C100.542 43.2667 99.9951 43.0441 99.422 42.9031C98.8436 42.7483 98.2505 42.6478 97.6514 42.6031C97.0666 42.5873 96.4814 42.6174 95.9018 42.6931C95.3571 42.76 94.8205 42.8772 94.2998 43.0432C93.3897 43.3197 92.5269 43.7207 91.7387 44.2334C91.1873 44.5976 90.6816 45.0204 90.2315 45.4936C90.0574 45.6532 89.8987 45.8273 89.7572 46.0138Z" fill="#664032"/>
<path d="M78.8277 46.0137C78.7288 45.8243 78.6125 45.6435 78.4799 45.4736C78.1495 45.0308 77.7598 44.6307 77.3205 44.2834C76.6937 43.7841 75.9805 43.3916 75.2126 43.1231C74.274 42.7783 73.2631 42.648 72.2616 42.743C71.7293 42.7964 71.2077 42.921 70.7122 43.1131C69.788 43.4648 68.9877 44.0579 68.4041 44.8235C68.1556 45.1269 67.9566 45.4641 67.8139 45.8237C67.6709 46.1063 67.5681 46.4056 67.5082 46.7139C67.4582 46.9484 67.423 47.1855 67.4028 47.424C67.3886 47.6305 67.3886 47.8376 67.4028 48.0441C67.4028 48.0441 67.6136 47.9141 67.9298 47.6741C68.118 47.5447 68.2975 47.4044 68.4673 47.254C68.6883 47.0832 68.9206 46.9262 69.1629 46.7839C69.4025 46.5978 69.6601 46.4337 69.9323 46.2938C70.199 46.1347 70.4814 46.0007 70.7755 45.8937L71.2076 45.7237C71.3446 45.6636 71.5132 45.6536 71.6608 45.6036C71.9642 45.5236 72.2746 45.47 72.5883 45.4436C72.915 45.4436 73.2523 45.4436 73.6422 45.4436C74.0322 45.4436 74.3273 45.4436 74.6962 45.5036C75.3918 45.5536 76.0874 45.6736 76.7093 45.7537L78.2796 45.9837L78.8277 46.0137Z" fill="#664032"/>
<path d="M100.286 79.3005L74.9914 80.5608C74.9914 80.5608 81.0938 91.6931 100.286 79.3005Z" fill="white"/>
<path d="M122.419 54.8756C122.419 54.8756 123.347 34.6314 124.148 32.611C124.949 30.5906 130.282 30.8407 130.282 30.8407C130.282 30.8407 128.416 9.07623 106.041 8.06602C108.766 7.48049 111.601 7.53909 114.297 8.23668C116.993 8.93428 119.467 10.2495 121.502 12.0668C121.502 12.0668 110.025 -4.58655 86.8273 1.23463C86.8273 1.23463 72.6938 4.5253 70.8283 12.1168C71.5775 9.60923 72.9 7.28918 74.7017 5.32183C76.5033 3.35449 78.7398 1.78823 81.2519 0.73453C81.2519 0.73453 62.5547 6.29566 62.5547 20.0085C62.5547 30.8907 66.5597 32.9111 66.5597 32.9111C66.5597 32.9111 70.5542 35.4416 80.1558 30.5106C89.7573 25.5796 102.816 25.5796 106.821 28.3602C110.826 31.1407 109.888 39.3624 109.888 39.3624C109.837 40.4308 110.096 41.492 110.637 42.4303C111.177 43.3686 111.979 44.148 112.955 44.6835L113.081 65.0176L116.422 64.8976L116.823 59.1964C117.084 57.9726 117.785 56.8727 118.806 56.0846C119.826 55.2966 121.104 54.8692 122.419 54.8756Z" fill="#664032"/>
<path d="M123.494 58.6764C120.238 57.116 117.35 62.0871 117.223 67.4081C119.89 67.0181 120.333 70.0187 118.847 72.0191C124.137 73.1193 126.951 60.3367 123.494 58.6764Z" fill="#D69F8A"/>
<path d="M124.833 206.967C124.833 206.967 112.344 215.748 116.654 196.134C116.654 196.134 101.372 192.054 115.358 191.843C115.358 191.843 100.508 185.102 116.654 188.983C116.654 188.983 105.461 175.1 122.462 189.193C122.462 189.193 125.834 192.394 124.401 201.035L124.833 206.967Z" fill="#FFBFA1"/>
<path d="M52.3839 112.107L32.7171 173.26L49.0745 178.981L57.6853 158.557L52.3839 112.107Z" fill="#E6F9FF"/>
<path d="M32.9913 167.229L52.1206 174.72L48.0629 183.412L29.176 175.49L32.9913 167.229Z" fill="#D8EAEF"/>
<path d="M30.1033 217.629C30.1033 217.629 24.4647 211.688 19.6902 212.008C14.9158 212.328 11.3429 212.768 8.31806 216.108C5.2932 219.449 -0.303308 219.969 0.0128784 221.109C0.329065 222.25 0.940361 225.96 8.03349 221.58C8.03349 221.58 10.7105 219.139 11.0583 220.939C11.3324 222.4 7.89647 225.66 4.16547 230.561C-0.92514 237.253 0.919283 236.713 2.43698 236.423C3.95468 236.133 10.1836 229.341 12.5339 227.891C14.3678 226.771 4.32357 239.323 5.88342 240.643C8.46561 242.824 17.3399 228.261 17.4032 230.101C17.4664 231.942 11.9226 240.913 12.6287 242.104C14.7366 245.804 21.8825 230.031 22.81 230.551C23.5372 230.961 20.3542 238.313 21.756 239.403C23.1578 240.493 24.7281 236.693 25.6345 234.402C26.6885 231.682 26.9098 230.401 28.0481 227.831C29.1864 225.26 31.4629 221.36 30.1033 217.629Z" fill="#FFBFA1"/>
</svg>
