<svg width="55" height="25" viewBox="0 0 55 25" fill="none" xmlns="http://www.w3.org/2000/svg">
<path d="M54.2747 12.1742C54.2747 12.1742 42.1528 24.3433 27.2018 24.3433C12.2508 24.3433 0.119568 12.2018 0.119568 12.2018C0.119568 12.2018 12.2415 0.060379 27.2018 0.060379C42.1621 0.060379 54.2747 12.1742 54.2747 12.1742Z" fill="url(#paint0_linear_103_2636)"/>
<path d="M27.2018 21.6421C32.5151 21.6421 36.8225 17.4031 36.8225 12.1742C36.8225 6.94517 32.5151 2.70624 27.2018 2.70624C21.8884 2.70624 17.5811 6.94517 17.5811 12.1742C17.5811 17.4031 21.8884 21.6421 27.2018 21.6421Z" fill="white"/>
<path d="M33.525 12.1742C33.525 10.9434 33.1542 9.74027 32.4594 8.71693C31.7646 7.69359 30.777 6.896 29.6216 6.42501C28.4662 5.95402 27.1948 5.83079 25.9682 6.0709C24.7416 6.31101 23.6149 6.90367 22.7306 7.77394C21.8463 8.64422 21.244 9.75303 21 10.9601C20.7561 12.1673 20.8813 13.4185 21.3599 14.5555C21.8384 15.6926 22.6489 16.6645 23.6888 17.3482C24.7286 18.032 25.9512 18.397 27.2018 18.397C28.8788 18.397 30.4872 17.7414 31.673 16.5744C32.8588 15.4074 33.525 13.8246 33.525 12.1742V12.1742Z" fill="url(#paint1_linear_103_2636)"/>
<path d="M28.4103 11.2522C28.4103 10.8347 28.2844 10.4265 28.0487 10.0793C27.813 9.73217 27.478 9.46157 27.086 9.30178C26.694 9.14199 26.2626 9.10019 25.8465 9.18165C25.4304 9.26311 25.0481 9.46418 24.7481 9.75943C24.4481 10.0547 24.2438 10.4309 24.161 10.8404C24.0783 11.2499 24.1207 11.6744 24.2831 12.0602C24.4455 12.4459 24.7204 12.7756 25.0732 13.0076C25.426 13.2396 25.8408 13.3634 26.265 13.3634C26.8332 13.361 27.3774 13.1378 27.7792 12.7424C28.181 12.347 28.4078 11.8114 28.4103 11.2522Z" fill="white"/>
<defs>
<linearGradient id="paint0_linear_103_2636" x1="18348.9" y1="4237.91" x2="17846.2" y2="3117.16" gradientUnits="userSpaceOnUse">
<stop stop-color="#BA0826"/>
<stop offset="1" stop-color="#FF7F83"/>
</linearGradient>
<linearGradient id="paint1_linear_103_2636" x1="4155.27" y1="2029.87" x2="4089.69" y2="1963.23" gradientUnits="userSpaceOnUse">
<stop stop-color="#BA0826"/>
<stop offset="1" stop-color="#FF7F83"/>
</linearGradient>
</defs>
</svg>
