<svg width="462" height="388" viewBox="0 0 462 388" fill="none" xmlns="http://www.w3.org/2000/svg">
<path opacity="0.1" d="M461.877 380.043C461.877 384.45 426.046 388 381.855 388C337.664 388 301.808 384.45 301.808 380.043C301.808 375.637 337.639 372.162 381.855 372.162C426.071 372.162 461.877 375.637 461.877 380.043Z" fill="#1C1918"/>
<path opacity="0.1" d="M276.577 380.043C276.577 384.45 228.055 388 168.177 388C108.299 388 59.7773 384.45 59.7773 380.043C59.7773 375.637 108.299 372.162 168.177 372.162C228.055 372.162 276.577 375.637 276.577 380.043Z" fill="#1C1918"/>
<path d="M177.645 51.4187H170.645V382.637H177.645V51.4187Z" fill="#4C545B"/>
<path d="M177.645 51.4187H170.645V247.143H177.645V51.4187Z" fill="#181B1E"/>
<path d="M239.084 377.148L235.383 380.95L171.753 304.277L175.454 300.5L239.084 377.148Z" fill="#4C545B"/>
<path d="M109.231 377.148L112.908 380.95L176.537 304.277L172.836 300.5L109.231 377.148Z" fill="#4C545B"/>
<path d="M186.66 293.449H161.631V305.032H186.66V293.449Z" fill="#4C545B"/>
<path d="M348.189 232.438H5.48931L0.050415 226.294V2.1918H348.189V232.438ZM6.39583 225.312H341.794V9.26738H6.44616L6.39583 225.312Z" fill="#848484"/>
<path d="M339.326 5.66667H3.17273V222.819H339.326V5.66667Z" fill="#FFFFF3"/>
<path d="M342.448 226.294H0V2.1918H342.448V226.294ZM6.295 219.344H336.153V9.14147H6.295V219.344Z" fill="#A0A09C"/>
<path d="M8.68719 213.981V10.5516H330.664H336.707V7.40407H5.7663V219.319H8.68719V213.981Z" fill="#848484"/>
<path d="M8.68719 10.5516H330.664H336.707V7.40407H5.7663L8.68719 10.5516Z" fill="#686868"/>
<path d="M0.050415 225.413V226.294L5.48931 232.413H348.24L342.423 225.413H0.050415Z" fill="#686868"/>
<path fill-rule="evenodd" clip-rule="evenodd" d="M301.182 44.0557L270.652 91.3272L222.382 68.0514L180.768 111.271L132.804 100.222L94.6161 154.754L49.2592 138.291L50.1011 135.972L93.6798 151.789L131.737 97.4436L179.96 108.553L221.844 65.0524L269.761 88.1581L299.109 42.7169L301.182 44.0557Z" fill="#EF757C"/>
<path d="M44.6192 136.552C44.7311 137.612 45.1478 138.617 45.8187 139.445C46.4897 140.273 47.3861 140.889 48.3998 141.218C49.4134 141.547 50.5007 141.576 51.5301 141.3C52.5595 141.024 53.487 140.456 54.2003 139.664C54.9136 138.872 55.3822 137.891 55.5493 136.838C55.7165 135.786 55.575 134.707 55.1421 133.733C54.7092 132.76 54.0034 131.932 53.1101 131.351C52.2168 130.77 51.1742 130.46 50.1084 130.459C48.5741 130.543 47.1356 131.232 46.1071 132.374C45.0786 133.515 44.5437 135.018 44.6192 136.552Z" fill="#EF757C"/>
<path d="M88.6843 153.272C88.7916 154.334 89.2051 155.343 89.8747 156.175C90.5443 157.007 91.4411 157.627 92.4561 157.959C93.4711 158.291 94.5607 158.321 95.5926 158.046C96.6245 157.77 97.5542 157.201 98.2688 156.408C98.9835 155.614 99.4523 154.63 99.6183 153.575C99.7843 152.52 99.6403 151.439 99.2039 150.465C98.7676 149.49 98.0575 148.663 97.1601 148.084C96.2626 147.505 95.2163 147.199 94.1483 147.203C92.6231 147.295 91.1949 147.982 90.1725 149.118C89.15 150.253 88.6155 151.745 88.6843 153.272Z" fill="#EF757C"/>
<path d="M132.724 104.322C135.742 104.322 138.188 101.605 138.188 98.2535C138.188 94.9021 135.742 92.1851 132.724 92.1851C129.706 92.1851 127.26 94.9021 127.26 98.2535C127.26 101.605 129.706 104.322 132.724 104.322Z" fill="#EF757C"/>
<path d="M180.667 115.905C183.685 115.905 186.131 113.188 186.131 109.836C186.131 106.485 183.685 103.768 180.667 103.768C177.649 103.768 175.203 106.485 175.203 109.836C175.203 113.188 177.649 115.905 180.667 115.905Z" fill="#EF757C"/>
<path d="M216.901 66.426C217.017 67.4791 217.436 68.4759 218.107 69.2962C218.778 70.1165 219.671 70.7251 220.68 71.0487C221.689 71.3722 222.77 71.3969 223.793 71.1197C224.816 70.8424 225.736 70.2752 226.443 69.4863C227.151 68.6975 227.615 67.7207 227.779 66.674C227.944 65.6273 227.802 64.5554 227.371 63.5876C226.94 62.6198 226.237 61.7974 225.349 61.2198C224.461 60.6422 223.424 60.334 222.365 60.3324C220.833 60.417 219.397 61.1061 218.372 62.2487C217.348 63.3912 216.818 64.8936 216.901 66.426Z" fill="#EF757C"/>
<path d="M295.06 43.8395C295.171 44.8994 295.588 45.9041 296.259 46.7321C296.93 47.5601 297.827 48.176 298.84 48.5051C299.854 48.8343 300.941 48.8628 301.97 48.587C303 48.3112 303.927 47.743 304.641 46.9512C305.354 46.1594 305.822 45.1778 305.99 44.1253C306.157 43.0728 306.015 41.9943 305.582 41.0205C305.15 40.0466 304.444 39.2191 303.55 38.638C302.657 38.0568 301.614 37.747 300.549 37.746C299.014 37.8306 297.576 38.5189 296.547 39.6607C295.519 40.8024 294.984 42.3047 295.06 43.8395Z" fill="#EF757C"/>
<path d="M403.132 347.536L406.506 367.806H414.388L411.744 345.773L403.132 347.536Z" fill="#16333C"/>
<path d="M416.78 358.212C419.742 361.839 423.657 364.569 428.086 366.093C434.884 368.158 441.053 370.752 440.55 374.856C440.55 374.856 430.478 379.892 413.934 374.302V376.04L403.132 375.561V361.209L412.122 361.838L411.442 360.428L416.78 358.212Z" fill="#333030"/>
<path d="M421.211 374.504C435.967 378.281 439.694 374.075 440.55 373.799C440.625 374.147 440.625 374.508 440.55 374.856C440.55 374.856 430.478 379.892 413.934 374.302V376.04L403.132 375.561V372.691C409.218 372.282 415.328 372.894 421.211 374.504Z" fill="#1C1918"/>
<path d="M415.269 366.572C415.347 366.57 415.423 366.551 415.493 366.516C415.562 366.481 415.624 366.432 415.672 366.37C416.782 364.521 418.423 363.047 420.38 362.14C420.441 362.118 420.496 362.084 420.542 362.04C420.589 361.996 420.627 361.943 420.652 361.884C420.678 361.825 420.692 361.762 420.693 361.698C420.694 361.634 420.682 361.57 420.657 361.511C420.612 361.395 420.524 361.302 420.411 361.25C420.298 361.198 420.17 361.192 420.053 361.234C417.957 362.24 416.205 363.843 415.017 365.842C414.973 365.884 414.938 365.935 414.914 365.991C414.89 366.047 414.877 366.108 414.877 366.169C414.877 366.23 414.89 366.291 414.914 366.347C414.938 366.403 414.973 366.454 415.017 366.496C415.092 366.544 415.18 366.571 415.269 366.572Z" fill="#1C1918"/>
<path d="M417.737 367.68C417.814 367.678 417.891 367.659 417.96 367.624C418.03 367.589 418.091 367.54 418.139 367.478C419.26 365.637 420.897 364.165 422.848 363.248C422.964 363.203 423.06 363.116 423.116 363.004C423.171 362.892 423.184 362.764 423.15 362.644C423.1 362.526 423.008 362.43 422.892 362.374C422.777 362.318 422.644 362.307 422.521 362.342C420.43 363.356 418.68 364.957 417.485 366.95C417.441 366.992 417.405 367.043 417.381 367.099C417.357 367.155 417.345 367.216 417.345 367.277C417.345 367.338 417.357 367.399 417.381 367.455C417.405 367.511 417.441 367.562 417.485 367.604C417.56 367.652 417.647 367.679 417.737 367.68Z" fill="#1C1918"/>
<path d="M420.229 368.788C420.307 368.791 420.385 368.771 420.452 368.731C420.519 368.69 420.573 368.631 420.607 368.561C421.754 366.732 423.395 365.266 425.341 364.331C425.456 364.286 425.55 364.197 425.601 364.085C425.653 363.972 425.659 363.843 425.618 363.726C425.598 363.667 425.567 363.613 425.525 363.566C425.484 363.519 425.433 363.482 425.376 363.456C425.319 363.43 425.258 363.416 425.196 363.415C425.133 363.414 425.071 363.426 425.014 363.449C422.86 364.415 421.05 366.014 419.826 368.032C419.743 368.121 419.697 368.238 419.697 368.36C419.697 368.481 419.743 368.598 419.826 368.687C419.876 368.741 419.941 368.78 420.013 368.798C420.084 368.816 420.16 368.812 420.229 368.788Z" fill="#1C1918"/>
<path d="M366.369 347.536L362.995 367.806H355.139L357.758 345.773L366.369 347.536Z" fill="#16333C"/>
<path d="M352.747 358.212C349.785 361.839 345.869 364.569 341.441 366.093C334.617 368.158 327.718 370.752 328.222 374.856C328.222 374.856 339.124 379.892 355.567 374.302V376.04L366.369 375.561V361.209L357.405 361.838L358.06 360.428L352.747 358.212Z" fill="#333030"/>
<path d="M346.175 375.259C340.19 376.333 334.028 375.83 328.297 373.799C328.234 374.148 328.234 374.506 328.297 374.856C328.297 374.856 339.2 379.892 355.643 374.302V376.04L366.445 375.561V371.96C362.517 372.162 356.096 373.673 346.175 375.259Z" fill="#1C1918"/>
<path d="M354.232 366.572C354.158 366.572 354.084 366.554 354.018 366.519C353.952 366.483 353.896 366.433 353.855 366.37C352.738 364.516 351.089 363.042 349.121 362.14C349.007 362.085 348.917 361.992 348.866 361.877C348.815 361.761 348.807 361.631 348.844 361.511C348.894 361.399 348.983 361.309 349.094 361.258C349.205 361.207 349.331 361.199 349.448 361.234C351.6 362.216 353.407 363.821 354.635 365.842C354.718 365.93 354.765 366.047 354.765 366.169C354.765 366.291 354.718 366.408 354.635 366.496C354.577 366.536 354.511 366.564 354.442 366.577C354.373 366.59 354.301 366.588 354.232 366.572Z" fill="#1C1918"/>
<path d="M351.765 367.68C351.687 367.678 351.611 367.659 351.541 367.624C351.471 367.589 351.41 367.539 351.362 367.478C350.242 365.637 348.604 364.165 346.653 363.248C346.594 363.228 346.539 363.197 346.493 363.155C346.446 363.114 346.409 363.063 346.383 363.006C346.357 362.95 346.343 362.888 346.342 362.826C346.341 362.763 346.352 362.701 346.376 362.644C346.417 362.524 346.503 362.424 346.616 362.368C346.729 362.311 346.86 362.302 346.981 362.342C349.128 363.33 350.933 364.934 352.168 366.949C352.23 367.055 352.252 367.18 352.229 367.301C352.205 367.421 352.139 367.529 352.042 367.604C351.957 367.652 351.862 367.678 351.765 367.68Z" fill="#1C1918"/>
<path d="M349.297 368.788C349.216 368.787 349.137 368.766 349.067 368.726C348.996 368.687 348.937 368.63 348.894 368.561C347.761 366.731 346.127 365.263 344.186 364.331C344.116 364.319 344.05 364.292 343.993 364.252C343.935 364.212 343.887 364.159 343.851 364.098C343.816 364.037 343.795 363.969 343.789 363.899C343.783 363.829 343.793 363.759 343.817 363.693C343.842 363.627 343.881 363.567 343.931 363.518C343.981 363.468 344.042 363.431 344.108 363.407C344.174 363.384 344.245 363.376 344.315 363.383C344.385 363.391 344.453 363.413 344.513 363.45C346.61 364.442 348.364 366.038 349.549 368.032C349.593 368.075 349.628 368.125 349.652 368.182C349.676 368.238 349.689 368.298 349.689 368.36C349.689 368.421 349.676 368.481 349.652 368.538C349.628 368.594 349.593 368.645 349.549 368.687C349.516 368.72 349.476 368.745 349.433 368.762C349.39 368.78 349.344 368.788 349.297 368.788Z" fill="#1C1918"/>
<path d="M401.219 185.553L409.427 283.453L417.636 355.14C417.636 355.14 413.657 360.629 398.701 358.136L387.521 287.935L378.557 221.208H373.521L369.29 358.136C369.29 358.136 362.819 363.173 350.859 358.64L352.344 182.38L401.219 185.553Z" fill="#6D6D6D"/>
<path d="M373.571 88.7355L374.226 116.559L390.995 109.056L390.467 80.4261L373.571 88.7355Z" fill="#D69F8A"/>
<path d="M346.578 109.358C346.578 109.358 348.189 159.114 351.412 184.369C361.634 188.193 372.552 189.798 383.441 189.078C397.29 188.524 401.294 185.553 401.294 185.553L423.956 101.527C412.761 99.6376 401.415 98.7947 390.064 99.009L380.269 108.074C380.269 108.074 377.625 101.023 372.362 99.6385C364.405 100.192 355.693 101.124 346.427 102.66L346.578 109.358Z" fill="#E6F9FF"/>
<path d="M440.625 153.7L424.057 101.401L406.96 107.318L425.14 163.52L440.625 153.7Z" fill="#E6F9FF"/>
<path d="M358.714 189.154C356.518 188.753 354.39 188.041 352.394 187.038C351.161 186.636 351.337 187.819 351.186 189.103C351.035 190.387 351.186 191.621 352.394 191.999C354.026 193.061 355.861 193.773 357.783 194.089C358.085 192.452 358.412 190.866 358.714 189.154Z" fill="#1C1918"/>
<path d="M388.931 190.513C383.814 190.936 378.677 191.071 373.546 190.916C369.738 190.824 365.943 190.454 362.189 189.808C362.239 191.496 362.104 193.185 361.787 194.844C365.635 195.548 369.533 195.944 373.445 196.028C375.258 196.028 377.02 196.028 378.758 196.028C382.636 196.028 386.312 195.725 389.56 195.348C389.194 193.76 388.983 192.141 388.931 190.513Z" fill="#1C1918"/>
<path d="M402.704 190.085C402.452 188.826 402.301 187.718 401.067 188.121C398.116 189.081 395.081 189.764 392.003 190.161C392.128 191.797 392.355 193.409 392.607 195.046C395.852 194.508 399.039 193.665 402.125 192.528C402.981 192.326 402.931 191.344 402.704 190.085Z" fill="#1C1918"/>
<path d="M370.323 190.085L370.449 196.279L381.351 196.833V190.161L370.323 190.085ZM379.488 195.675L372.287 195.322V191.243H379.488V195.675Z" fill="#ADADAD"/>
<path d="M380.168 107.973L382.711 99.1348L388.351 101.728L380.168 107.973Z" fill="#D8CAC7"/>
<path d="M379.438 99.9154L380.168 107.973L375.56 102.282L379.438 99.9154Z" fill="#D8CAC7"/>
<path d="M384.373 102.232C382.192 102.662 379.958 102.747 377.751 102.484L374.628 106.185L377.373 110.113L366.697 172.283L374.905 180.542L384.977 173.365L382.661 110.566L386.06 105.707L384.373 102.232Z" fill="#16333C"/>
<path d="M366.722 99.3867L373.621 108.703L379.438 99.9155L370.297 93.8219L366.722 99.3867Z" fill="#D8EAEF"/>
<path d="M396.333 98.1528L387.571 108.174L382.711 99.1349L392.833 92.588L396.333 98.1528Z" fill="#D8EAEF"/>
<path d="M387.521 19.4905C403.46 23.1164 403.032 34.0445 403.032 34.0445C403.032 34.0445 402.528 42.505 402.226 52.5518C402.927 51.5315 403.967 50.7939 405.162 50.471C406.357 50.148 407.628 50.2608 408.747 50.7892C414.161 53.1058 410.158 70.1778 401.924 68.6922C401.849 71.9955 401.367 75.2769 400.488 78.462C398.172 83.3218 387.898 90.7247 378.959 91.883C370.02 93.0413 358.614 87.0232 358.614 76.3721C358.614 65.721 358.387 31.0481 358.387 31.0481C358.387 31.0481 361.157 13.4724 387.521 19.4905Z" fill="#FFBFA1"/>
<path d="M372.84 50.2352C372.418 53.3544 371.632 56.4136 370.499 59.3504C369.958 60.8475 369.275 62.2893 368.459 63.6562C367.703 65.0901 366.687 66.3709 365.463 67.4332V66.8289C366.646 67.962 367.804 69.1454 368.912 70.3792C367.553 69.4476 366.218 68.4656 364.934 67.4332L364.607 67.1814L364.934 66.8289C366.859 64.4627 368.389 61.8013 369.466 58.9475C370.65 56.1022 371.733 53.1813 372.84 50.2352Z" fill="#D69F8A"/>
<path d="M382.484 51.7461C382.484 54.0626 383.517 55.9511 384.801 55.9511C386.085 55.9511 387.118 54.0626 387.118 51.7461C387.118 49.4295 386.085 47.541 384.801 47.541C383.517 47.541 382.484 49.4295 382.484 51.7461Z" fill="#222228"/>
<path d="M363.07 52.6777C363.07 54.9943 364.103 56.8828 365.362 56.8828C366.621 56.8828 367.678 54.9943 367.678 52.6777C367.678 50.3612 366.646 48.4727 365.362 48.4727C364.078 48.4727 363.07 50.3612 363.07 52.6777Z" fill="#222228"/>
<path d="M378.733 42.1525C379.541 41.1696 380.579 40.4001 381.754 39.9115C382.96 39.3855 384.267 39.136 385.582 39.1812C386.963 39.2583 388.285 39.7694 389.359 40.6417C390.375 41.4873 391.039 42.6814 391.222 43.9906C390.377 43.3215 389.456 42.7552 388.477 42.3036C387.555 41.9259 386.576 41.7046 385.582 41.6489C383.289 41.6297 380.998 41.7982 378.733 42.1525Z" fill="#664032"/>
<path d="M369.265 42.1525C367.488 41.652 365.647 41.4144 363.801 41.4474C363.004 41.5178 362.236 41.7767 361.56 42.2028C360.767 42.7391 360.018 43.3369 359.319 43.9906C359.331 42.8818 359.732 41.8124 360.452 40.969C361.234 40.0311 362.358 39.4425 363.574 39.3323C364.687 39.2584 365.8 39.4803 366.8 39.9757C367.799 40.471 368.65 41.222 369.265 42.1525Z" fill="#664032"/>
<path d="M407.085 50.2352C407.085 50.2352 407.891 31.7279 408.571 29.8898C409.251 28.0517 413.909 28.2782 413.909 28.2782C413.909 28.2782 412.272 8.38606 392.859 7.4544C395.224 6.92363 397.683 6.98368 400.02 7.62926C402.356 8.27484 404.497 9.48607 406.254 11.1559C402.897 6.58082 398.198 3.1649 392.81 1.38251C387.422 -0.399872 381.613 -0.460272 376.189 1.20973C376.189 1.20973 363.927 4.20618 362.315 11.1559C362.96 8.86286 364.102 6.74004 365.66 4.93832C367.218 3.1366 369.154 1.70024 371.33 0.731342C371.33 0.731342 355.139 5.76734 355.139 18.3574C355.139 28.4294 358.614 30.1416 358.614 30.1416C358.614 30.1416 362.089 32.4582 370.398 27.9509C378.707 23.4437 390.064 23.4437 393.538 25.9869C397.013 28.5301 396.208 36.0589 396.208 36.0589C396.147 37.0212 396.349 37.9818 396.793 38.8379C397.236 39.694 397.904 40.4133 398.726 40.9186V59.5519L401.621 59.4259L401.974 54.2389C402.217 53.0758 402.863 52.036 403.798 51.3033C404.734 50.5706 405.898 50.1923 407.085 50.2352Z" fill="#664032"/>
<path d="M408.017 53.71C405.172 52.2748 402.679 56.8324 402.553 61.6921C404.87 61.3396 405.272 64.0339 403.988 65.9475C408.621 66.9296 411.14 55.246 408.017 53.71Z" fill="#D69F8A"/>
<path d="M333.283 158.635L362.164 115.98L346.301 102.559L315.581 153.926L333.283 158.635Z" fill="#E6F9FF"/>
<path d="M372.866 76.3217C372.866 79.4188 374.779 81.8613 376.895 81.7857C379.01 81.7102 380.671 79.1419 380.546 76.0699C380.42 72.998 378.657 70.5303 376.517 70.6059C374.377 70.6814 372.765 73.2245 372.866 76.3217Z" fill="#BF6B6B"/>
<path d="M378.808 75.3649C379.428 75.4671 380.02 75.6988 380.545 76.0447C380.545 72.9476 378.632 70.5303 376.517 70.6059C374.402 70.6814 372.765 73.1239 372.866 76.3217C372.877 77.9144 373.457 79.4506 374.502 80.6527C373.823 77.9332 375.333 74.7606 378.808 75.3649Z" fill="#723838"/>
<path d="M437.604 160.473C437.604 160.473 408.798 177.017 389.308 173.794L392.909 165.56C402.027 162.506 410.886 158.725 419.399 154.254C431.535 148.06 437.604 160.473 437.604 160.473Z" fill="#FFBFA1"/>
<path d="M419.751 149.999L441.003 151.912L440.474 161.178L417.887 155.085L419.751 149.999Z" fill="#D8EAEF"/>
<path d="M395.603 165.862C395.603 165.862 404.064 177.47 385.002 173.416C385.002 173.416 380.898 187.517 380.823 174.574C380.823 174.574 374.15 188.247 378.028 173.366C378.028 173.366 364.43 183.589 378.279 168.002C378.279 168.002 380.369 164.981 393.211 165.711L395.603 165.862Z" fill="#FFBFA1"/>
<path d="M379.287 167.121C379.287 167.121 362.517 174.322 378.783 170.294L379.287 167.121Z" fill="#FFBFA1"/>
<path d="M209.358 92.5443L208.245 93.878L278.774 152.766L279.888 151.433L209.358 92.5443Z" fill="#1C1918"/>
<path d="M324.822 171.024L283.275 154.632C282.494 157.102 280.884 159.228 278.718 160.65C278.718 160.65 274.185 161.783 274.613 159.24C274.283 159.489 273.898 159.659 273.491 159.734C273.083 159.81 272.663 159.789 272.265 159.674C271.867 159.559 271.501 159.353 271.196 159.073C270.891 158.792 270.656 158.444 270.509 158.056C270.509 158.056 266.254 158.66 266.279 155.538C266.279 155.538 262.628 155.84 264.34 151.434C265.565 148.49 267.201 145.735 269.2 143.25L272.322 139.725L331.772 158.358L324.822 171.024Z" fill="#FFBFA1"/>
<path d="M282.721 149.545C282.721 149.545 281.941 152.97 276.703 152.391C271.466 151.811 269.98 143.301 269.98 143.301C269.98 143.301 262.678 138.466 265.246 136.829C267.815 135.193 280.883 143.552 282.721 149.545Z" fill="#FFBFA1"/>
<path d="M334.97 158.912L318.2 145.516L314.095 151.711L326.459 169.437L334.97 158.912Z" fill="#D8EAEF"/>
</svg>
