<svg width="78" height="77" viewBox="0 0 78 77" fill="none" xmlns="http://www.w3.org/2000/svg">
<path d="M39.2144 76.6364C60.3938 76.6364 77.5632 59.5418 77.5632 38.4546C77.5632 17.3673 60.3938 0.272736 39.2144 0.272736C18.0349 0.272736 0.865601 17.3673 0.865601 38.4546C0.865601 59.5418 18.0349 76.6364 39.2144 76.6364Z" fill="white"/>
<path d="M34.9194 53.6061C31.8244 53.6061 28.799 52.7172 26.2258 51.0519C23.6526 49.3866 21.6471 47.0198 20.4632 44.2506C19.2792 41.4815 18.9699 38.4346 19.5744 35.4952C20.1789 32.5559 21.67 29.8562 23.8591 27.7376C26.0483 25.6189 28.8371 24.1766 31.8728 23.593C34.9085 23.0095 38.0547 23.3108 40.9135 24.459C43.7724 25.6072 46.2153 27.5506 47.9334 30.0435C49.6515 32.5364 50.5676 35.4667 50.5657 38.4637C50.5632 42.4806 48.9136 46.3321 45.9796 49.1715C43.0457 52.011 39.0674 53.6061 34.9194 53.6061V53.6061ZM34.9194 25.8298C32.339 25.8298 29.8166 26.5708 27.6711 27.959C25.5256 29.3472 23.8535 31.3204 22.866 33.6289C21.8785 35.9375 21.6202 38.4777 22.1236 40.9285C22.627 43.3792 23.8695 45.6304 25.6941 47.3973C27.5187 49.1641 29.8434 50.3674 32.3741 50.8549C34.9049 51.3424 37.5281 51.0922 39.9121 50.1359C42.296 49.1797 44.3336 47.5604 45.7672 45.4828C47.2007 43.4051 47.9659 40.9625 47.9659 38.4637C47.9634 35.1138 46.588 31.9017 44.1419 29.5329C41.6957 27.1641 38.3788 25.8322 34.9194 25.8298Z" fill="url(#paint0_linear_106_2637)"/>
<path d="M34.9194 47.5455C33.1597 47.5455 31.4396 47.0301 29.9765 46.0644C28.5134 45.0988 27.3731 43.7263 26.6997 42.1206C26.0263 40.5148 25.8501 38.7478 26.1934 37.0431C26.5367 35.3385 27.3841 33.7726 28.6283 32.5436C29.8726 31.3146 31.4578 30.4776 33.1837 30.1386C34.9095 29.7995 36.6984 29.9735 38.3241 30.6386C39.9498 31.3038 41.3393 32.4301 42.3169 33.8753C43.2945 35.3205 43.8163 37.0195 43.8163 38.7576C43.8138 41.0875 42.8757 43.3213 41.2077 44.9688C39.5398 46.6164 37.2782 47.543 34.9194 47.5455V47.5455ZM34.9194 32.5043C33.6673 32.5043 32.4433 32.8711 31.4021 33.5582C30.361 34.2453 29.5496 35.2219 29.0704 36.3646C28.5913 37.5072 28.4659 38.7645 28.7102 39.9775C28.9544 41.1905 29.5574 42.3048 30.4428 43.1793C31.3282 44.0538 32.4562 44.6494 33.6843 44.8907C34.9123 45.132 36.1853 45.0081 37.3421 44.5348C38.4989 44.0615 39.4876 43.2601 40.1833 42.2317C40.8789 41.2034 41.2503 39.9944 41.2503 38.7576C41.2503 37.0991 40.5833 35.5086 39.396 34.3358C38.2087 33.1631 36.5984 32.5043 34.9194 32.5043V32.5043Z" fill="url(#paint1_linear_106_2637)"/>
<path d="M68.3595 44.5151L65.1613 39.6827H66.6802C67.023 39.6827 67.3518 39.5538 67.5942 39.3243C67.8366 39.0948 67.9727 38.7836 67.9727 38.459C67.9727 38.1345 67.8366 37.8232 67.5942 37.5937C67.3518 37.3642 67.023 37.2353 66.6802 37.2353H65.1707L68.3595 32.3939H55.84L52.6605 37.2353H35.2916C34.9488 37.2353 34.62 37.3642 34.3776 37.5937C34.1352 37.8232 33.999 38.1345 33.999 38.459C33.999 38.7836 34.1352 39.0948 34.3776 39.3243C34.62 39.5538 34.9488 39.6827 35.2916 39.6827H52.6605L55.84 44.5151H68.3595ZM57.274 34.8414H63.6989L62.1233 37.2353H55.7079L57.274 34.8414ZM62.1139 39.6827L63.6894 42.0677H57.274L55.6984 39.6827H62.1139Z" fill="url(#paint2_linear_106_2637)"/>
<defs>
<linearGradient id="paint0_linear_106_2637" x1="9558.51" y1="2328.45" x2="8622.63" y2="1362.01" gradientUnits="userSpaceOnUse">
<stop stop-color="#3BA1F4"/>
<stop offset="1" stop-color="#15CCEA"/>
</linearGradient>
<linearGradient id="paint1_linear_106_2637" x1="5450.3" y1="1366.96" x2="4907.25" y2="817.17" gradientUnits="userSpaceOnUse">
<stop stop-color="#3BA1F4"/>
<stop offset="1" stop-color="#15CCEA"/>
</linearGradient>
<linearGradient id="paint2_linear_106_2637" x1="10861" y1="830.091" x2="10626" y2="163.903" gradientUnits="userSpaceOnUse">
<stop stop-color="#3BA1F4"/>
<stop offset="1" stop-color="#15CCEA"/>
</linearGradient>
</defs>
</svg>
