<svg width="201" height="191" viewBox="0 0 201 191" fill="none" xmlns="http://www.w3.org/2000/svg">
<path d="M186.503 182.355C206.916 169.261 208.25 105.786 168.772 90.9282C129.294 76.0704 136.608 38.5784 103.395 10.5527C73.1221 -14.9934 23.0373 6.66185 6.35688 73.0973C-5.538 120.47 8.34064 179.896 17.8121 182.355H186.503Z" fill="#ECE1EF"/>
<path d="M156.496 181.084C156.496 181.084 176.763 171.091 180.248 165.879C183.732 160.667 178.609 160.373 178.609 160.373C178.609 160.373 187.654 151.576 186.381 147.874C185.107 144.173 180.36 147.708 180.36 147.708C180.36 147.708 186.24 134.622 183.497 133.321C178.384 130.897 171.226 144.825 171.226 144.825C171.226 144.825 172.76 138.774 169.248 138.97C163.946 139.267 164.163 152.954 164.163 152.954C164.163 152.954 163.565 147.706 160.369 149.411C154.622 152.468 156.496 181.084 156.496 181.084Z" fill="#8282A8"/>
<path d="M159.861 147.314C163.33 146.269 164.135 150.111 164.135 150.111C164.135 150.111 163.935 139.267 169.248 138.97C172.765 138.774 171.226 144.825 171.226 144.825C171.226 144.825 178.384 130.897 183.497 133.321L156.473 180.87C156.271 177.549 154.87 148.815 159.861 147.314Z" fill="#B1B1DE"/>
<path d="M157.008 181.207C157.008 181.207 173.583 183.252 177.873 181.432C182.162 179.612 179.09 177.342 179.09 177.342C179.09 177.342 188.293 175.529 189.016 172.702C189.74 169.875 185.327 170.146 185.327 170.146C185.327 170.146 194.313 164.371 193.132 162.446C190.931 158.867 180.802 164.634 180.802 164.634C180.802 164.634 184.22 161.487 181.948 160.181C178.52 158.21 173.095 166.827 173.095 166.827C173.095 166.827 173.43 164.703 170.743 164.468C165.927 164.049 157.008 181.207 157.008 181.207Z" fill="#8282A8"/>
<path d="M170.51 163.908C173.197 164.143 173.097 166.832 173.097 166.832C173.097 166.832 178.522 158.207 181.95 160.186C184.223 161.492 180.805 164.639 180.805 164.639C180.805 164.639 190.933 158.864 193.134 162.451L156.959 181.112C158.189 178.968 166.009 163.514 170.51 163.908Z" fill="#3E3D51"/>
<path d="M199.955 182.15C199.955 181.767 199.748 181.455 199.497 181.455H1.19554C1.03608 181.489 0.89303 181.576 0.79038 181.703C0.687731 181.829 0.631714 181.987 0.631714 182.15C0.631714 182.313 0.687731 182.471 0.79038 182.598C0.89303 182.725 1.03608 182.812 1.19554 182.846H199.492C199.748 182.846 199.95 182.534 199.95 182.15H199.955Z" fill="#3E3D51"/>
<path d="M49.6596 181.128C49.6596 181.128 23.2418 168.09 18.6991 161.308C14.1564 154.526 20.8337 154.13 20.8337 154.13C20.8337 154.13 9.04363 142.664 10.7027 137.838C12.3618 133.011 18.5509 137.623 18.5509 137.623C18.5509 137.623 10.8817 120.564 14.4606 118.867C21.1072 115.707 30.456 133.863 30.456 133.863C30.456 133.863 28.4492 125.976 33.0328 126.232C39.9478 126.618 39.6615 144.459 39.6615 144.459C39.6615 144.459 40.4438 137.618 44.6107 139.842C52.0881 143.827 49.6596 181.128 49.6596 181.128Z" fill="#8282A8"/>
<path d="M46.0269 137.973C42.3815 135.818 39.6001 140.888 39.6001 140.888C39.6001 140.888 39.9503 126.618 33.0353 126.232C28.4517 125.976 30.4585 133.863 30.4585 133.863C30.4585 133.863 21.12 115.712 14.4631 118.867L49.6902 180.839C49.9382 176.511 50.8687 140.834 46.0269 137.973Z" fill="#B1B1DE"/>
<path d="M48.977 181.289C48.977 181.289 27.3704 183.973 21.777 181.58C16.1836 179.187 20.1921 176.235 20.1921 176.235C20.1921 176.235 8.17702 173.875 7.25161 170.191C6.32619 166.508 12.0602 166.868 12.0602 166.868C12.0602 166.868 0.349355 159.34 1.8883 156.829C4.75657 152.154 17.9603 159.685 17.9603 159.685C17.9603 159.685 13.502 155.579 16.4674 153.877C20.936 151.307 28.0069 162.553 28.0069 162.553C28.0069 162.553 27.5672 159.782 31.0746 159.485C37.3531 158.923 48.977 181.289 48.977 181.289Z" fill="#8282A8"/>
<path d="M31.0542 157.609C27.5519 157.916 28.0069 162.558 28.0069 162.558C28.0069 162.558 21.7463 150.564 16.4469 153.71C13.5071 155.456 17.5845 159.531 17.5845 159.531C17.5845 159.531 4.75658 152.159 1.88831 156.834L49.0409 181.174C47.4381 178.369 36.9236 157.098 31.0542 157.609Z" fill="#3E3D51"/>
<path d="M159.855 160.932H45.5847C41.2184 160.932 37.6803 157.849 37.6803 154.051V149.96C37.6803 146.161 41.2184 143.081 45.5847 143.081H159.855C154.63 148.056 154.538 155.658 159.646 160.72L159.855 160.932Z" fill="#3E3D51"/>
<path d="M158.255 145.134H100.767C96.8097 145.134 93.6091 148.201 93.6091 152.016C93.6091 155.814 96.82 158.895 100.767 158.895H158.286C156.969 156.843 156.266 154.457 156.261 152.019C156.255 149.581 156.947 147.192 158.255 145.134Z" fill="#FBF3FF"/>
<path d="M176.947 160.002H32.992C28.5234 160.002 24.8984 163.412 24.8984 167.617V174.024C24.8984 178.231 28.5234 181.642 32.992 181.642H176.947L176.871 181.567C170.705 175.534 170.738 165.994 176.947 160.002Z" fill="#FF7685"/>
<path d="M174.391 163.205H97.4436C92.9751 163.205 89.3501 166.615 89.3501 170.82C89.3501 175.028 92.9751 178.438 97.4436 178.438H174.391C173.004 176.14 172.271 173.506 172.271 170.822C172.271 168.137 173.004 165.503 174.391 163.205Z" fill="#FBF3FF"/>
<path d="M130.02 170.861H124.14C123.534 170.861 122.953 171.102 122.524 171.531C122.095 171.959 121.855 172.541 121.855 173.147V173.351H130.012L130.02 170.861Z" fill="#3E3D51"/>
<path d="M124.388 170.869C125.791 170.869 127.888 172.055 129.071 173.523L142.998 190.796H151.179L137.934 174.369C136.375 172.436 133.611 170.869 131.761 170.869H124.388Z" fill="#8282A8"/>
<path d="M31.9413 52.6359C31.9228 52.6931 31.8894 52.7444 31.8445 52.7844C31.7995 52.8244 31.7447 52.8517 31.6857 52.8634C31.6242 52.8724 31.5614 52.864 31.5045 52.8391C31.4476 52.8143 31.3987 52.774 31.3636 52.7228L29.9882 50.7339H27.5699C27.5076 50.7352 27.4463 50.7184 27.3933 50.6858C27.3403 50.6532 27.2977 50.606 27.2708 50.5498C27.2432 50.4946 27.2317 50.4327 27.2376 50.3712C27.2435 50.3098 27.2665 50.2512 27.304 50.2022L28.7714 48.2798L28.0198 45.979C28.0003 45.9199 27.9976 45.8566 28.012 45.7961C28.0265 45.7356 28.0575 45.6803 28.1016 45.6365C28.1463 45.5937 28.2018 45.564 28.2622 45.5505C28.3226 45.537 28.3855 45.5402 28.4442 45.5598L30.727 46.3625L32.6801 44.936C32.7303 44.8995 32.7896 44.8777 32.8515 44.8732C32.9134 44.8687 32.9754 44.8816 33.0303 44.9105C33.0852 44.9389 33.1309 44.9824 33.1622 45.0357C33.1934 45.0891 33.2088 45.1503 33.2067 45.2121L33.1505 47.6305L35.1112 49.0467C35.1615 49.083 35.2007 49.1327 35.2242 49.1902C35.2478 49.2476 35.2547 49.3105 35.2444 49.3717C35.234 49.4329 35.2067 49.49 35.1655 49.5365C35.1244 49.5829 35.071 49.6169 35.0115 49.6347L32.6954 50.3274L31.9413 52.6359Z" fill="#FF7685"/>
<path d="M118.7 23.759C118.861 23.3423 118.805 21.8519 120.878 20.4178C121.729 19.835 122.427 19.339 122.616 18.659C122.941 17.4856 121.706 16.9207 120.474 16.9283C120.168 16.9278 119.874 16.8079 119.654 16.5941C119.434 16.3803 119.307 16.0894 119.298 15.7831C119.289 15.4727 119.402 15.1712 119.613 14.9432C119.824 14.7152 120.115 14.5789 120.426 14.5637C121.238 14.5291 122.05 14.6223 122.834 14.8398C125.474 15.5734 126.272 17.368 125.809 19.0297C125.388 20.5635 124.171 21.2895 123.176 21.9184C121.502 22.9819 121.504 24.1655 121.361 24.4978L118.7 23.759ZM117.422 26.3742C117.475 26.1312 117.578 25.902 117.724 25.701C117.87 25.5 118.057 25.3317 118.272 25.2069C118.487 25.0821 118.726 25.0034 118.973 24.976C119.22 24.9485 119.47 24.9728 119.707 25.0474C120.789 25.3491 121.277 26.3026 121.003 27.3686C120.945 27.6115 120.839 27.8402 120.69 28.0411C120.542 28.2419 120.355 28.4108 120.139 28.5376C119.924 28.6644 119.686 28.7466 119.438 28.7791C119.191 28.8117 118.939 28.794 118.698 28.7272C118.458 28.6603 118.233 28.5456 118.038 28.39C117.842 28.2344 117.68 28.0409 117.561 27.8213C117.443 27.6017 117.369 27.3603 117.346 27.1117C117.322 26.8631 117.349 26.6122 117.424 26.3742H117.422Z" fill="#8282A8"/>
<path d="M185.45 50.734L186.432 52.3675C186.457 52.4052 186.492 52.4354 186.533 52.455C186.574 52.4745 186.62 52.4828 186.665 52.4789C186.711 52.475 186.754 52.4591 186.791 52.4327C186.828 52.4064 186.858 52.3707 186.876 52.3292L187.574 50.5576L189.43 50.1281C189.474 50.1156 189.514 50.0917 189.545 50.0588C189.576 50.0258 189.599 49.9851 189.609 49.9408C189.619 49.8965 189.618 49.8503 189.604 49.8068C189.591 49.7633 189.566 49.7242 189.533 49.6935L188.063 48.4818L188.229 46.5824C188.23 46.5368 188.22 46.4916 188.198 46.4515C188.176 46.4114 188.144 46.3779 188.105 46.3544C188.066 46.3309 188.021 46.3184 187.975 46.318C187.93 46.3176 187.885 46.3295 187.845 46.3523L186.24 47.3749L184.484 46.631C184.441 46.6153 184.394 46.6115 184.349 46.6198C184.305 46.6282 184.263 46.6484 184.228 46.6784C184.194 46.7084 184.168 46.7471 184.154 46.7905C184.139 46.8339 184.137 46.8803 184.146 46.925L184.624 48.7681L183.374 50.2074C183.346 50.2433 183.328 50.286 183.322 50.3312C183.316 50.3763 183.322 50.4223 183.34 50.4642C183.358 50.5062 183.386 50.5427 183.423 50.5699C183.46 50.5971 183.503 50.614 183.548 50.6189L185.45 50.734Z" fill="#FF7685"/>
<path d="M140.734 26.4329L138.584 24.9042L139.179 22.2737L139.88 22.4322L139.389 24.5974L141.61 26.1773L140.465 29.0021L142.973 30.3544L141.833 32.8495L140.977 33.0003L142.043 30.6663L139.56 29.3268L140.734 26.4329Z" fill="#FF7685"/>
<path d="M41.7246 37.4075L43.0565 38.5783L44.713 37.8548L46.1114 39.2736L47.635 37.9571L49.289 39.4909L50.8433 38.4505L52.6736 39.6673L52.2135 40.3626L50.8433 39.4526L49.2046 40.5493L47.6145 39.0742L46.0654 40.4112L44.5213 38.8467L42.9031 39.5548L41.6709 38.4683L40.7072 39.156L40.224 38.4786L41.7246 37.4075Z" fill="#8282A8"/>
<path d="M191.951 62.2557C192.606 62.8865 193.059 63.6971 193.254 64.5854C193.448 65.4737 193.376 66.3997 193.044 67.2465C192.713 68.0933 192.138 68.823 191.393 69.3435C190.647 69.8639 189.764 70.1517 188.855 70.1706C187.945 70.1895 187.051 69.9386 186.284 69.4496C185.518 68.9606 184.913 68.2554 184.547 67.4231C184.181 66.5908 184.07 65.6686 184.227 64.773C184.385 63.8775 184.804 63.0486 185.432 62.3912C185.851 61.9532 186.351 61.6021 186.906 61.3582C187.46 61.1143 188.058 60.9822 188.663 60.9696C189.269 60.957 189.871 61.0641 190.435 61.2848C191 61.5055 191.515 61.8355 191.951 62.2557Z" fill="#ECE1EF"/>
<path d="M191.849 66.1131L189.888 66.7164L189.272 68.6746C189.26 68.7099 189.239 68.7413 189.211 68.7653C189.183 68.7893 189.149 68.805 189.112 68.8106C189.075 68.8162 189.038 68.8114 189.004 68.7969C188.97 68.7824 188.94 68.7586 188.919 68.7283L187.738 67.0488L185.693 67.0692C185.655 67.0701 185.618 67.0604 185.586 67.0412C185.554 67.022 185.528 66.9941 185.511 66.9607C185.494 66.9274 185.486 66.8899 185.49 66.8526C185.493 66.8153 185.507 66.7796 185.529 66.7497L186.764 65.1085L186.109 63.1631C186.098 63.1275 186.096 63.0892 186.104 63.0527C186.113 63.0161 186.132 62.9827 186.158 62.9561C186.185 62.9296 186.218 62.911 186.255 62.9024C186.291 62.8937 186.33 62.8955 186.365 62.9074L188.305 63.5721L189.954 62.3501C189.984 62.3285 190.02 62.3157 190.057 62.3129C190.094 62.3102 190.131 62.3177 190.164 62.3346C190.197 62.3515 190.225 62.3771 190.244 62.4087C190.263 62.4403 190.274 62.4767 190.274 62.5137L190.241 64.5589L191.913 65.7501C191.946 65.7713 191.972 65.8019 191.988 65.838C192.004 65.8741 192.009 65.9141 192.002 65.953C191.995 65.9919 191.977 66.0279 191.95 66.0564C191.922 66.0849 191.887 66.1046 191.849 66.1131Z" fill="#8282A8"/>
<path d="M56.4059 23.3141C53.8214 24.7789 54.3301 28.6825 57.2112 29.4622C57.7277 29.6056 58.1757 29.9294 58.474 30.3748L59.4966 31.9086C59.6332 32.1098 59.8403 32.2523 60.077 32.3082C60.3136 32.364 60.5626 32.3291 60.7748 32.2103L61.7539 31.6556C61.9669 31.535 62.1268 31.3387 62.2016 31.1056C62.2765 30.8726 62.2608 30.6199 62.1578 30.3978C61.3755 28.7183 60.9665 28.1533 61.2452 27.1742C62.0786 24.2983 58.9904 21.8492 56.4059 23.3141Z" fill="#B1B1DE"/>
<path d="M59.3841 30.5564C58.6581 29.1376 57.8298 27.6626 57.5946 27.2485C56.0608 27.9157 56.0378 26.0342 57.0143 26.4432C57.2858 26.5726 57.5101 26.7835 57.656 27.0465C58.1621 26.8062 58.6169 26.4702 58.9955 26.0572C58.8352 25.7841 58.739 25.4782 58.7143 25.1625C58.7399 24.7509 59.1515 24.4901 59.4608 24.7688C59.5194 24.8226 59.5666 24.8877 59.5995 24.9602C59.6325 25.0326 59.6505 25.111 59.6525 25.1906C59.6525 25.5204 59.3969 25.8322 59.1847 26.0853C59.696 27.2357 60.2533 28.3861 60.8285 29.5006L60.6878 29.5748C60.1203 28.473 59.5784 27.3456 59.0671 26.2131C58.6885 26.6153 58.2386 26.9438 57.7403 27.182C58.0573 27.7112 58.8575 29.153 59.5298 30.4849L59.3841 30.5564ZM56.705 27.1743C56.8332 27.2223 56.9703 27.2417 57.1067 27.2311C57.2432 27.2205 57.3757 27.1802 57.4949 27.113C57.3657 26.8906 57.1723 26.7124 56.9402 26.6017C56.4136 26.3614 56.3752 27.0005 56.705 27.1667V27.1743ZM58.8626 25.1727C58.8833 25.4381 58.9647 25.6952 59.1003 25.9243C59.3056 25.7293 59.4389 25.4708 59.4787 25.1906C59.4787 25.004 59.3253 24.7969 59.1412 24.8148C59.1233 24.8097 58.8703 25.004 58.8626 25.165V25.1727Z" fill="#FBF3FF"/>
<path d="M58.4459 30.3391C58.4545 30.3516 58.4639 30.3635 58.474 30.3748L59.4966 31.9087C59.6332 32.1098 59.8403 32.2524 60.077 32.3082C60.3136 32.3641 60.5626 32.3291 60.7748 32.2103L61.7539 31.6556C61.967 31.5351 62.1268 31.3387 62.2017 31.1057C62.2765 30.8726 62.2608 30.6199 62.1578 30.3978C61.8101 29.6514 61.5366 29.1196 61.3628 28.6851L58.4459 30.3391Z" fill="#8282A8"/>
<path d="M53.9058 22.8105L52.5304 21.609C52.4987 21.5813 52.4728 21.5477 52.454 21.5099C52.4353 21.4722 52.4242 21.4311 52.4214 21.3891C52.4185 21.3471 52.424 21.3049 52.4374 21.265C52.4509 21.2251 52.4721 21.1883 52.4998 21.1565C52.5275 21.1248 52.5611 21.0989 52.5989 21.0801C52.6366 21.0614 52.6776 21.0503 52.7197 21.0475C52.7617 21.0446 52.8038 21.0501 52.8437 21.0635C52.8837 21.077 52.9205 21.0982 52.9522 21.1259L54.325 22.3248C54.3891 22.3804 54.4285 22.4592 54.4345 22.5438C54.4404 22.6284 54.4126 22.7119 54.357 22.776C54.3014 22.8401 54.2226 22.8794 54.138 22.8854C54.0534 22.8914 53.9698 22.8636 53.9058 22.808V22.8105Z" fill="#B1B1DE"/>
<path d="M53.4431 27.1027L51.5923 27.6139C51.5505 27.6247 51.507 27.6271 51.4643 27.621C51.4216 27.615 51.3804 27.6005 51.3433 27.5786C51.2683 27.5342 51.2139 27.4619 51.1922 27.3775C51.1705 27.2931 51.1833 27.2035 51.2276 27.1285C51.2719 27.0534 51.3443 26.9991 51.4287 26.9774L53.2795 26.4661C53.3201 26.4551 53.3625 26.4521 53.4043 26.4574C53.4461 26.4627 53.4864 26.4762 53.523 26.4971C53.5595 26.518 53.5916 26.5459 53.6174 26.5791C53.6432 26.6124 53.6621 26.6505 53.6732 26.6911C53.6843 26.7317 53.6873 26.7741 53.682 26.8159C53.6766 26.8577 53.6631 26.898 53.6423 26.9345C53.6214 26.9711 53.5935 27.0032 53.5602 27.0289C53.5269 27.0547 53.4889 27.0737 53.4482 27.0848L53.4431 27.1027Z" fill="#B1B1DE"/>
<path d="M53.6859 33.2509C53.6477 33.2333 53.6135 33.2084 53.5851 33.1774C53.5567 33.1465 53.5347 33.1103 53.5205 33.0708C53.5062 33.0313 53.4999 32.9894 53.502 32.9474C53.504 32.9055 53.5144 32.8644 53.5325 32.8265C53.8136 32.2277 54.1509 31.6567 54.5397 31.1214C54.5932 31.0644 54.6657 31.029 54.7435 31.0219C54.8213 31.0147 54.899 31.0363 54.962 31.0826C55.025 31.1289 55.0688 31.1966 55.0852 31.273C55.1016 31.3494 55.0894 31.4292 55.051 31.4972C54.6865 32 54.3699 32.5358 54.1051 33.0975C54.0696 33.1732 54.0056 33.2318 53.9271 33.2605C53.8485 33.2892 53.7619 33.2858 53.6859 33.2509Z" fill="#B1B1DE"/>
<path d="M58.3053 21.0977C58.2635 21.1015 58.2214 21.0971 58.1813 21.0847C58.1412 21.0723 58.1039 21.0521 58.0717 21.0252C58.0394 20.9984 58.0127 20.9655 57.9931 20.9284C57.9736 20.8912 57.9615 20.8506 57.9577 20.8088C57.8808 19.9728 57.718 19.147 57.472 18.3444C57.4556 18.3035 57.4479 18.2596 57.4494 18.2156C57.4508 18.1716 57.4614 18.1283 57.4803 18.0885C57.4993 18.0487 57.5263 18.0133 57.5596 17.9845C57.5929 17.9556 57.6318 17.934 57.6739 17.9209C57.716 17.9078 57.7603 17.9036 57.8041 17.9085C57.8479 17.9133 57.8902 17.9272 57.9284 17.9492C57.9665 17.9712 57.9997 18.0009 58.0259 18.0363C58.0521 18.0718 58.0706 18.1123 58.0804 18.1552C58.3396 19.0003 58.5109 19.8698 58.5917 20.75C58.5995 20.834 58.5738 20.9177 58.5202 20.9828C58.4665 21.048 58.3893 21.0892 58.3053 21.0977Z" fill="#B1B1DE"/>
<path d="M60.9972 22.7261C60.947 22.6581 60.9256 22.573 60.9376 22.4893C60.9495 22.4056 60.9939 22.33 61.0611 22.2788L62.7177 21.0312C62.7855 20.98 62.8708 20.9579 62.955 20.9696C63.0391 20.9814 63.1151 21.0261 63.1663 21.0939C63.2175 21.1617 63.2397 21.247 63.2279 21.3312C63.2162 21.4153 63.1715 21.4913 63.1037 21.5425L61.4446 22.79C61.3766 22.8402 61.2915 22.8617 61.2078 22.8497C61.1241 22.8377 61.0485 22.7934 60.9972 22.7261Z" fill="#B1B1DE"/>
<path d="M65.8825 26.5607C65.8553 26.5703 65.8269 26.5763 65.7981 26.5786C65.0839 26.6349 64.3657 26.6143 63.6559 26.5173C63.5721 26.5052 63.4964 26.4606 63.4452 26.3932C63.394 26.3257 63.3714 26.2408 63.3823 26.1568C63.388 26.1151 63.4018 26.075 63.423 26.0387C63.4442 26.0024 63.4723 25.9707 63.5058 25.9453C63.5393 25.9198 63.5775 25.9013 63.6181 25.8907C63.6588 25.88 63.7011 25.8775 63.7428 25.8833C64.4055 25.9785 65.0766 26.0025 65.7444 25.9548C65.8215 25.9486 65.8982 25.9705 65.9604 26.0165C66.0225 26.0625 66.0659 26.1295 66.0824 26.205C66.099 26.2805 66.0876 26.3595 66.0503 26.4272C66.0131 26.495 65.9526 26.547 65.8799 26.5735L65.8825 26.5607Z" fill="#B1B1DE"/>
<path d="M163.243 25.7478L162.425 27.2612C160.444 30.893 157.833 34.1428 154.712 36.8579L154.364 37.1595C154.364 37.1595 155.034 40.2272 158.107 39.6776C160.48 36.0465 163.297 32.7257 166.492 29.792L167.693 28.8104L163.243 25.7478Z" fill="#B1B1DE"/>
<path d="M167.698 28.8078C167.514 29.0276 166.374 28.5189 165.142 27.6702C163.91 26.8215 163.058 25.9574 163.243 25.7401C163.427 25.5228 164.577 26.0315 165.799 26.8777C167.021 27.7239 167.88 28.5879 167.698 28.8078Z" fill="#D6D6ED"/>
<path d="M167.691 28.8155C167.691 28.8155 164.879 27.2382 164.367 26.3767L164.03 26.8036C164.389 27.1159 164.767 27.4069 165.16 27.6753C166.361 28.5113 167.489 29.0226 167.691 28.8155Z" fill="#8282A8"/>
<path d="M162.581 33.7902C162.22 33.9129 160.622 34.3015 159.209 32.1388C159.027 32.3689 158.841 32.5964 158.651 32.8239C159.62 34.1609 160.681 34.5622 161.42 34.6568C161.538 34.6722 161.691 34.685 161.809 34.6901C162.062 34.391 162.32 34.0868 162.581 33.7902Z" fill="#FF7685"/>
<path d="M159.738 32.2001L158.751 28.6799L158.25 29.7511L157.11 29.5772L159.094 32.5682L159.738 32.2001Z" fill="#FF7685"/>
<path d="M158.953 32.8035L156.19 32.3331L156.834 33.0822L156.192 33.6599L158.864 33.4375L158.953 32.8035Z" fill="#FF7685"/>
<path d="M158.465 33.4835C158.412 33.3306 158.39 33.1688 158.4 33.0074C158.41 32.846 158.452 32.6882 158.523 32.543C158.595 32.3979 158.694 32.2682 158.816 32.1616C158.937 32.0549 159.078 31.9733 159.232 31.9215C159.909 31.6531 160.656 31.9215 160.898 32.5146C161.141 33.1077 160.794 33.8081 160.131 34.0765C159.469 34.345 158.708 34.0765 158.465 33.4835Z" fill="#FF7685"/>
<path d="M169.823 46.6617L171.17 46.222L172.118 48.3105L174.166 47.9117L175.13 49.3587L175.863 48.8704L174.572 46.9352L172.632 47.3136L171.648 45.1406L169.621 45.8002L169.823 46.6617Z" fill="#D6D6ED"/>
<path d="M174.02 124.698L175.368 124.258L176.316 126.347L178.364 125.948L179.327 127.395L180.061 126.907L178.77 124.972L176.83 125.35L175.843 123.177L173.818 123.837L174.02 124.698Z" fill="#FF7685"/>
<path d="M95.212 19.9166C95.0137 20.8958 94.5295 21.7941 93.8207 22.4981C93.1118 23.2021 92.2102 23.6801 91.2297 23.8717C90.2492 24.0632 89.2339 23.9598 88.3122 23.5744C87.3906 23.1889 86.6039 22.5389 86.0516 21.7064C85.4993 20.8739 85.2063 19.8964 85.2096 18.8973C85.2129 17.8983 85.5124 16.9227 86.0701 16.0939C86.6278 15.265 87.4188 14.6202 88.343 14.2408C89.2672 13.8615 90.2831 13.7648 91.2623 13.9628C91.9126 14.0943 92.5307 14.3526 93.0811 14.723C93.6316 15.0934 94.1037 15.5687 94.4705 16.1216C94.8372 16.6744 95.0915 17.2942 95.2187 17.9453C95.3459 18.5965 95.3436 19.2663 95.212 19.9166Z" fill="#B1B1DE"/>
<path d="M87.4533 19.1625C87.383 19.5101 87.3818 19.8682 87.4498 20.2163C87.5179 20.5643 87.6538 20.8956 87.8499 21.1912C88.046 21.4867 88.2984 21.7407 88.5926 21.9387C88.8869 22.1367 89.2172 22.2749 89.5649 22.3452C89.9125 22.4155 90.2706 22.4167 90.6187 22.3486C90.9667 22.2806 91.298 22.1446 91.5936 21.9486C91.8891 21.7525 92.1431 21.5001 92.3411 21.2059C92.5391 20.9116 92.6773 20.5812 92.7476 20.2336L87.4533 19.1625Z" fill="#EFEFEF"/>
<path d="M19.9467 77.1518C19.5352 76.6047 19.0827 76.3286 18.597 76.3286C15.8463 76.3286 15.2277 84.4324 15.2277 87.2699C15.2277 90.5089 15.5856 93.2928 16.2656 95.3226C16.8919 97.1939 17.7253 98.2215 18.6174 98.2215C19.5633 98.2215 20.4274 97.0405 21.0486 94.8982C22.6412 89.4071 22.0532 79.9587 19.9467 77.1518ZM20.5015 94.8267C19.9698 96.6033 19.2591 97.6642 18.597 97.6642C17.9349 97.6642 17.2242 96.6033 16.6925 94.8267C16.1019 92.8454 15.7747 90.1612 15.7747 87.2699C15.7747 84.3787 16.1019 81.6945 16.6925 79.7133C17.2242 77.9238 17.9349 76.8757 18.597 76.8757C19.2591 76.8757 19.9698 77.9366 20.5015 79.7133C21.0946 81.6945 21.4192 84.3787 21.4192 87.2699C21.4192 90.1612 21.0946 92.8454 20.4964 94.8267H20.5015Z" fill="#FF7685"/>
<path d="M27.9456 90.2967C25.7471 86.6462 15.5778 81.2139 10.9456 81.2139C9.87958 81.2139 9.18168 81.5078 8.87747 82.0856C8.57326 82.6633 8.68829 83.2973 9.16123 84.0847C11.3674 87.7454 21.5214 93.1931 26.1357 93.1931C27.2145 93.1931 27.9251 92.8966 28.2294 92.3086C28.5157 91.7615 28.4211 91.0866 27.9456 90.2967ZM27.805 91.9584C27.6388 92.3699 27.0662 92.5872 26.151 92.5872C22.9453 92.5872 15.6494 89.857 11.0504 85.4114C9.29672 83.7166 9.13056 82.855 9.30184 82.4384C9.47312 82.0217 10.0381 81.8121 10.9507 81.8121C12.6584 81.8121 15.3247 82.5508 18.0856 83.7856C21.2018 85.1814 24.0318 87.0245 26.0564 88.9802C27.8101 90.6776 27.9763 91.5366 27.805 91.9584Z" fill="#FF7685"/>
<path d="M28.0402 81.9653C27.7232 81.3773 27.0177 81.0808 25.9772 81.0808C23.8759 81.0808 20.3046 82.3334 16.654 84.353C13.0035 86.3725 10.1046 88.6989 9.07947 90.4193C8.6091 91.2067 8.51706 91.8713 8.80082 92.3954C9.11014 92.968 9.79781 93.2595 10.8459 93.2595C15.4295 93.2595 25.5503 87.7146 27.7692 83.99C28.2422 83.1898 28.3342 82.5073 28.0402 81.9653ZM22.9095 87.7402C19.668 90.0026 15.8795 91.7563 12.7734 92.4312C12.1367 92.5848 11.4854 92.6705 10.8306 92.6868C10.01 92.6868 9.47315 92.5002 9.28142 92.1449C9.08969 91.7895 9.17917 91.3191 9.53706 90.7235C10.4727 89.1539 13.2515 86.8889 16.6157 84.9844C20.233 82.924 23.7455 81.6944 26.0156 81.6944C27.056 81.6944 27.6133 81.9679 27.6721 82.5073C27.7846 83.5835 25.9159 85.6414 22.9095 87.7402Z" fill="#FF7685"/>
<path d="M20.3582 86.9426C20.3577 87.2889 20.2546 87.6272 20.0619 87.9148C19.8691 88.2025 19.5955 88.4265 19.2755 88.5587C18.9554 88.6908 18.6034 88.7251 18.2639 88.6573C17.9244 88.5894 17.6126 88.4224 17.368 88.1774C17.1233 87.9324 16.9568 87.6204 16.8894 87.2808C16.8221 86.9412 16.8569 86.5892 16.9895 86.2694C17.1221 85.9495 17.3466 85.6762 17.6345 85.4839C17.9224 85.2916 18.2609 85.189 18.6071 85.189C18.8373 85.189 19.0652 85.2344 19.2778 85.3225C19.4904 85.4107 19.6836 85.5399 19.8462 85.7028C20.0089 85.8656 20.1378 86.059 20.2257 86.2717C20.3135 86.4845 20.3586 86.7125 20.3582 86.9426Z" fill="#FF7685"/>
<path d="M18.0959 78.7315C18.0964 78.9916 18.0197 79.246 17.8755 79.4625C17.7313 79.679 17.5261 79.8477 17.2859 79.9475C17.0457 80.0473 16.7813 80.0735 16.5262 80.0229C16.271 79.9723 16.0367 79.8471 15.8528 79.6632C15.6688 79.4792 15.5436 79.2449 15.493 78.9898C15.4424 78.7346 15.4686 78.4702 15.5684 78.23C15.6682 77.9898 15.837 77.7846 16.0535 77.6405C16.2699 77.4963 16.5243 77.4195 16.7844 77.42C17.132 77.4207 17.4652 77.5591 17.711 77.8049C17.9568 78.0507 18.0952 78.3839 18.0959 78.7315Z" fill="#FF7685"/>
<path d="M22.1477 94.3128C22.1477 94.5297 22.0834 94.7417 21.9629 94.9221C21.8424 95.1024 21.6711 95.243 21.4707 95.326C21.2703 95.409 21.0498 95.4307 20.8371 95.3884C20.6244 95.3461 20.4289 95.2416 20.2756 95.0882C20.1222 94.9349 20.0177 94.7395 19.9754 94.5267C19.9331 94.314 19.9548 94.0935 20.0378 93.8931C20.1208 93.6927 20.2614 93.5214 20.4418 93.4009C20.6221 93.2804 20.8341 93.2161 21.051 93.2161C21.3419 93.2161 21.6209 93.3316 21.8265 93.5373C22.0322 93.7429 22.1477 94.0219 22.1477 94.3128Z" fill="#FF7685"/>
<path d="M10.3986 90.1867C11.0226 90.1867 11.5285 89.6808 11.5285 89.0568C11.5285 88.4327 11.0226 87.9269 10.3986 87.9269C9.77456 87.9269 9.26868 88.4327 9.26868 89.0568C9.26868 89.6808 9.77456 90.1867 10.3986 90.1867Z" fill="#FF7685"/>
<path d="M28.2754 84.0055C28.2754 84.1895 28.2208 84.3694 28.1185 84.5225C28.0163 84.6755 27.871 84.7947 27.7009 84.8652C27.5309 84.9356 27.3438 84.954 27.1633 84.9181C26.9828 84.8822 26.817 84.7936 26.6868 84.6635C26.5567 84.5333 26.4681 84.3675 26.4322 84.187C26.3963 84.0065 26.4147 83.8194 26.4851 83.6494C26.5556 83.4794 26.6748 83.334 26.8278 83.2318C26.9809 83.1295 27.1608 83.075 27.3448 83.075C27.467 83.075 27.588 83.099 27.7009 83.1458C27.8138 83.1926 27.9164 83.2611 28.0028 83.3475C28.0892 83.4339 28.1578 83.5365 28.2045 83.6494C28.2513 83.7623 28.2754 83.8833 28.2754 84.0055Z" fill="#FF7685"/>
<path d="M14.4964 82.0549C14.4964 82.239 14.4418 82.4191 14.3394 82.5721C14.2371 82.7252 14.0916 82.8445 13.9214 82.9148C13.7512 82.9852 13.564 83.0035 13.3834 82.9674C13.2029 82.9312 13.0371 82.8424 12.907 82.712C12.777 82.5816 12.6886 82.4155 12.6529 82.2349C12.6173 82.0542 12.6361 81.867 12.7069 81.697C12.7778 81.527 12.8974 81.3819 13.0508 81.28C13.2041 81.178 13.3843 81.1239 13.5685 81.1244C13.6905 81.1244 13.8114 81.1485 13.9242 81.1953C14.0369 81.2421 14.1393 81.3106 14.2255 81.3971C14.3117 81.4835 14.38 81.5861 14.4265 81.699C14.473 81.8119 14.4968 81.9328 14.4964 82.0549Z" fill="#FF7685"/>
<path d="M196.921 102.514L192.533 103.949L192.78 104.705L197.168 103.27L196.921 102.514Z" fill="#8282A8"/>
<path d="M189.018 93.7753L186.714 98.0573L187.414 98.4339L189.718 94.152L189.018 93.7753Z" fill="#8282A8"/>
<path d="M190.623 111.976L190.019 112.493L193.315 116.35L193.92 115.834L190.623 111.976Z" fill="#8282A8"/>
<path d="M190.586 112.312L182.6 114.47L176.569 109.459L177.075 108.848L182.791 113.596L189.942 111.663L191.984 104.306L186.708 98.6586L187.288 98.1141L192.869 104.088L190.586 112.312Z" fill="#8282A8"/>
<path d="M178.481 108.496C178.608 108.854 178.625 109.241 178.531 109.609C178.437 109.977 178.237 110.308 177.954 110.562C177.672 110.816 177.321 110.98 176.945 111.035C176.569 111.089 176.186 111.03 175.843 110.867C175.501 110.703 175.215 110.442 175.021 110.116C174.827 109.789 174.734 109.413 174.754 109.034C174.774 108.655 174.905 108.29 175.133 107.986C175.36 107.682 175.672 107.452 176.03 107.325C176.51 107.155 177.038 107.183 177.498 107.403C177.957 107.623 178.311 108.016 178.481 108.496Z" fill="#B1B1DE"/>
<path d="M184.532 113.665C184.659 114.023 184.676 114.41 184.582 114.778C184.488 115.146 184.288 115.477 184.005 115.731C183.723 115.985 183.372 116.149 182.996 116.204C182.62 116.258 182.237 116.199 181.894 116.036C181.552 115.872 181.265 115.611 181.071 115.284C180.877 114.958 180.785 114.582 180.805 114.203C180.824 113.824 180.956 113.459 181.183 113.155C181.411 112.851 181.723 112.621 182.081 112.494C182.561 112.324 183.089 112.352 183.549 112.572C184.008 112.791 184.362 113.184 184.532 113.665Z" fill="#B1B1DE"/>
<path d="M192.102 111.361C192.228 111.719 192.245 112.107 192.152 112.475C192.058 112.842 191.857 113.174 191.575 113.428C191.292 113.682 190.941 113.846 190.566 113.9C190.19 113.955 189.806 113.896 189.464 113.733C189.121 113.569 188.835 113.308 188.641 112.981C188.447 112.655 188.354 112.278 188.374 111.899C188.394 111.52 188.526 111.156 188.753 110.851C188.98 110.547 189.292 110.317 189.65 110.191C189.888 110.106 190.14 110.069 190.392 110.082C190.644 110.095 190.891 110.158 191.119 110.267C191.347 110.376 191.551 110.528 191.72 110.716C191.888 110.904 192.018 111.123 192.102 111.361Z" fill="#B1B1DE"/>
<path d="M195.98 115.963C196.106 116.321 196.123 116.708 196.03 117.076C195.936 117.444 195.735 117.776 195.453 118.029C195.17 118.283 194.819 118.448 194.443 118.502C194.068 118.556 193.684 118.498 193.342 118.334C192.999 118.17 192.713 117.909 192.519 117.583C192.325 117.256 192.232 116.88 192.252 116.501C192.272 116.122 192.404 115.757 192.631 115.453C192.858 115.149 193.17 114.919 193.528 114.792C194.008 114.623 194.537 114.651 194.996 114.87C195.456 115.09 195.81 115.483 195.98 115.963Z" fill="#B1B1DE"/>
<path d="M200.103 101.995C200.231 102.353 200.249 102.741 200.156 103.11C200.063 103.479 199.862 103.812 199.58 104.067C199.297 104.321 198.946 104.487 198.569 104.541C198.193 104.596 197.808 104.538 197.465 104.374C197.122 104.211 196.835 103.949 196.64 103.622C196.445 103.295 196.352 102.918 196.372 102.538C196.392 102.158 196.525 101.793 196.752 101.488C196.98 101.183 197.293 100.953 197.652 100.826C197.889 100.742 198.141 100.705 198.393 100.719C198.645 100.732 198.892 100.794 199.119 100.903C199.347 101.011 199.551 101.163 199.72 101.351C199.889 101.538 200.019 101.757 200.103 101.995Z" fill="#B1B1DE"/>
<path d="M191.928 92.5898C192.055 92.9483 192.073 93.3364 191.979 93.705C191.885 94.0736 191.685 94.4062 191.402 94.6607C191.119 94.9151 190.767 95.08 190.391 95.1345C190.015 95.1889 189.63 95.1305 189.287 94.9666C188.944 94.8027 188.657 94.5407 188.463 94.2137C188.269 93.8867 188.176 93.5094 188.196 93.1296C188.216 92.7498 188.349 92.3846 188.577 92.0801C188.804 91.7756 189.118 91.5455 189.476 91.419C189.957 91.2495 190.485 91.2776 190.944 91.4971C191.404 91.7167 191.758 92.1097 191.928 92.5898Z" fill="#B1B1DE"/>
<path d="M194.556 103.467C194.682 103.825 194.7 104.213 194.606 104.58C194.512 104.948 194.311 105.28 194.029 105.534C193.747 105.788 193.395 105.952 193.02 106.006C192.644 106.06 192.261 106.002 191.918 105.838C191.575 105.675 191.289 105.413 191.095 105.087C190.901 104.761 190.808 104.384 190.828 104.005C190.848 103.626 190.98 103.261 191.207 102.957C191.434 102.653 191.746 102.423 192.104 102.296C192.342 102.212 192.594 102.176 192.846 102.189C193.098 102.202 193.345 102.265 193.573 102.374C193.8 102.482 194.004 102.635 194.173 102.823C194.342 103.01 194.472 103.229 194.556 103.467Z" fill="#B1B1DE"/>
<path d="M188.876 97.6054C189.002 97.9634 189.019 98.3507 188.925 98.7186C188.832 99.0864 188.631 99.4182 188.349 99.672C188.066 99.9257 187.715 100.09 187.339 100.144C186.964 100.199 186.58 100.14 186.238 99.9766C185.895 99.813 185.609 99.5516 185.415 99.2253C185.221 98.8989 185.128 98.5225 185.148 98.1434C185.168 97.7643 185.3 97.3996 185.527 97.0955C185.754 96.7913 186.066 96.5613 186.424 96.4345C186.662 96.3499 186.914 96.3131 187.166 96.3262C187.418 96.3393 187.665 96.402 187.893 96.5108C188.121 96.6196 188.325 96.7723 188.493 96.9601C188.662 97.1479 188.792 97.3672 188.876 97.6054Z" fill="#B1B1DE"/>
<path d="M198.017 83.4839L195.44 82.9471L195.987 80.8636L196.757 81.0656L196.422 82.3387L198.181 82.7042L198.017 83.4839Z" fill="#FF7685"/>
<path d="M23.7377 106.507L23.1574 108.115L20.4656 107.468L19.3254 109.718L17.2317 109.562L17.1525 110.622L19.9543 110.83L21.0331 108.698L23.8349 109.372L24.7066 106.952L23.7377 106.507Z" fill="#B1B1DE"/>
<path d="M21.2734 61.7828L22.682 61.9285L22.6973 64.2215L24.7322 64.6894L25.0237 66.4047L25.8928 66.2564L25.5017 63.9634L23.5742 63.5211L23.5563 61.1334L21.4371 60.9136L21.2734 61.7828Z" fill="#8282A8"/>
<path d="M77.4731 95.3379L73.6232 107.706L61.5033 89.9721V89.9567C61.5033 89.9567 57.0552 87.6969 55.9406 87.4847C54.9436 87.2955 51.7481 86.9939 51.2496 87.5281C51.2264 87.4911 51.1898 87.4645 51.1474 87.454C50.723 87.3441 49.9433 88.7757 49.8334 89.1233C49.7235 89.471 50.6003 91.488 50.6821 91.6388C50.7639 91.7896 50.4572 91.874 50.0712 91.7257C49.6851 91.5775 48.4734 90.1919 48.4734 90.1919C48.4734 90.1919 48.3584 87.9321 47.6298 87.9448C46.9012 87.9576 47.5633 90.7824 47.5633 90.7824L48.2689 91.7283L47.2233 91.0969C47.2233 91.0969 46.5075 89.563 46.3158 89.6551C46.1241 89.7471 45.871 90.5063 46.2698 91.3039C46.6138 91.9111 47.0358 92.4706 47.525 92.9681L49.1099 93.7862C49.1099 93.7862 47.2668 93.6251 46.7223 93.2136C46.1778 92.802 45.9554 93.3797 46.3899 93.8706C46.8245 94.3614 49.2505 95.1999 50.7869 95.366C52.3233 95.5322 57.1114 95.4095 57.7991 95.2842C58.359 95.1794 59.402 95.0286 59.9184 95.3098C60.6009 97.2987 66.5139 118.857 73.6666 121.385C73.6666 121.385 76.9695 120.95 80.7351 112.384C84.5006 103.817 86.5176 98.6664 86.5176 98.6664L77.4731 95.3379ZM55.2325 90.946C54.7008 91.148 52.786 91.2579 52.2824 91.0739C51.7788 90.8898 51.0196 88.9495 51.0196 88.9495C51.1495 88.6198 51.2429 88.277 51.2982 87.927C51.8581 88.5379 54.2355 88.2669 54.7724 88.6121C55.3578 88.9904 55.7745 90.7466 55.2376 90.946H55.2325Z" fill="#F7A491"/>
<path d="M120.518 98.045C120.518 98.045 122.711 103.125 126.771 111.556C130.83 119.987 134.146 120.309 134.146 120.309C141.207 117.548 146.373 95.798 146.984 93.7861C147.495 93.4768 148.538 93.602 149.101 93.6864C149.793 93.7886 154.584 93.7452 156.113 93.5253C157.642 93.3055 160.042 92.3852 160.459 91.879C160.875 91.3729 160.63 90.8028 160.101 91.2348C159.572 91.6668 157.736 91.8867 157.736 91.8867L159.293 91.0175C159.765 90.5033 160.167 89.9291 160.489 89.3098C160.86 88.4995 160.579 87.7377 160.385 87.6635C160.19 87.5894 159.528 89.136 159.528 89.136L158.506 89.8058L159.178 88.8344C159.178 88.8344 159.743 85.9891 159.014 86.0019C158.286 86.0147 158.247 88.2745 158.247 88.2745C158.247 88.2745 157.084 89.7138 156.714 89.8748C156.343 90.0359 156.023 89.9617 156.098 89.8084C156.172 89.655 156.979 87.6073 156.864 87.252C156.749 86.8966 155.913 85.506 155.494 85.6261C155.453 85.6414 155.418 85.6702 155.395 85.7079C154.883 85.1966 151.695 85.6031 150.706 85.8255C149.599 86.0811 145.233 88.4892 145.233 88.4892L133.729 106.64L129.455 94.4124L120.518 98.045ZM151.895 86.9375C152.406 86.5745 154.804 86.7637 155.343 86.1323C155.411 86.4782 155.516 86.8159 155.655 87.1395C155.655 87.1395 154.96 89.1079 154.467 89.3073C153.973 89.5067 152.053 89.4632 151.514 89.2817C150.975 89.1002 151.33 87.3287 151.895 86.9375Z" fill="#F7A491"/>
<path d="M101.278 129.724C97.1819 127.709 92.9211 126.047 88.5423 124.757C78.6976 121.84 65.4402 119.9 57.9167 126.181C53.489 129.872 99.2766 134.737 99.2766 134.737L101.278 129.724Z" fill="#8282A8"/>
<path d="M150.767 128.512C150.767 128.512 146.422 122.121 135.199 122.267C130.833 122.326 124.782 123.195 119.268 124.284C109.428 126.229 100.151 129.501 100.151 129.501L99.2792 134.737L150.767 128.512Z" fill="#8282A8"/>
<path d="M87.0084 137.608L106.928 147.309L122.512 134.849L117.399 123.663L89.1584 125.434L87.0084 137.608Z" fill="#8282A8"/>
<path d="M91.3569 66.765C89.1252 62.2197 89.0076 53.6328 90.7562 48.5916C92.1699 44.5014 95.5571 42.1853 99.9183 41.7124C104.977 41.1602 108.201 42.1546 112.143 44.7289C116.233 47.4105 121.152 50.3172 125.871 51.5008C132.021 53.0346 138.372 54.1799 144.001 57.1018C147.718 59.0319 151.174 61.8976 152.657 65.8115C154.784 71.4151 152.35 77.8648 148.423 82.3897C142.5 89.2152 133.121 92.8708 124.138 91.8687C117.146 91.0839 110.553 87.4922 105.964 82.1826C103.896 79.7898 102.326 78.008 99.8569 76.0703C96.6998 73.588 93.1515 70.436 91.3569 66.765Z" fill="#333343"/>
<path d="M117.895 72.7368C117.895 72.7368 110.116 71.9699 102.452 71.7142C95.6108 71.4969 88.2892 72.7598 87.8086 73.2481C85.8939 75.2293 85.2037 92.2548 86.2748 95.3966C87.3459 98.5384 92.3386 106.691 91.4157 112.013C90.4928 117.336 88.5807 124.749 88.5807 124.749C88.5807 124.749 95.0841 128.469 103.293 128.407C108.216 128.372 115.034 127.385 119.262 124.266C119.262 124.266 116.796 117.668 117.044 112.473C117.292 107.279 119.96 98.4132 121.374 95.2433C122.788 92.0733 120.505 73.2608 117.895 72.7368Z" fill="#FF7685"/>
<path d="M90.8865 74.6771L87.9543 73.1893C87.9543 73.1893 84.631 74.1377 82.9055 76.62C81.4892 78.6651 75.134 97.1836 75.134 97.1836C75.134 97.1836 83.997 100.642 86.8167 100.481L91.1345 89.1207L90.8865 74.6771Z" fill="#FF7685"/>
<path d="M114.804 74.2707L117.951 72.7522C117.951 72.7522 119.953 73.1587 122.522 76.1394C124.143 78.0209 131.324 96.2198 131.324 96.2198C131.324 96.2198 122.586 99.9828 119.764 99.9189L115.055 88.7143L114.804 74.2707Z" fill="#FF7685"/>
<path d="M105.88 61.8951C105.88 61.8951 106.414 69.4953 106.902 71.9162C107.414 74.4189 108.068 85.9201 102.871 87.2878C97.6737 88.6554 98.957 74.2911 98.8267 71.7551C98.6963 69.2192 97.5076 60.5249 97.5076 60.5249L105.88 61.8951Z" fill="#F7A491"/>
<path d="M97.5127 60.5249C97.5127 60.5249 97.753 62.2786 98.024 64.4413C99.9694 65.9138 102.625 66.2793 105.693 64.4771C105.824 64.3978 105.949 64.316 106.074 64.2214C105.964 62.8589 105.895 61.8824 105.895 61.8824L97.5127 60.5249Z" fill="#F47458"/>
<path d="M103.451 44.118C105.479 44.7549 107.214 46.0947 108.342 47.8963C110.157 50.8771 111.187 59.5126 104.763 63.314C98.3385 67.1153 93.6219 61.2842 93.7216 55.7496C93.8213 50.215 95.2453 42.8705 103.451 44.118Z" fill="#F7A491"/>
<path d="M92.3309 53.9704C92.8243 55.3227 93.8647 56.1868 94.6521 55.9005C95.4395 55.6142 95.6746 54.2823 95.1864 52.93C94.6981 51.5776 93.6526 50.7136 92.8652 51.0024C92.0778 51.2913 91.8375 52.6181 92.3309 53.9704Z" fill="#F7A491"/>
<path d="M102.528 43.9059C102.528 43.9059 106.184 52.8891 109.627 53.7966C113.071 54.7041 112.871 59.165 112.871 59.165C112.871 59.165 113.127 48.873 109.96 46.406C106.792 43.9391 102.528 43.9059 102.528 43.9059Z" fill="#333343"/>
<path d="M108.18 55.5911C107.669 57.0124 108.047 58.444 109.009 58.784C109.97 59.124 111.159 58.2472 111.662 56.8232C112.166 55.3993 111.795 53.9703 110.834 53.6303C109.873 53.2903 108.692 54.1672 108.18 55.5911Z" fill="#F7A491"/>
<path d="M70.2871 141.897C70.2871 141.897 67.9864 140.003 65.2613 139.28C62.5361 138.556 62.5873 140.558 61.8868 143.626C61.1864 146.693 60.0053 148.738 58.5124 151.719C57.0195 154.7 58.8473 161.515 59.6858 161.605C61.7079 161.817 62.6461 157.486 64.5608 153.79C66.4755 150.093 71.8133 148.853 73.3676 148.69C78.843 147.93 84.367 147.575 89.8946 147.629C87.9441 143.914 85.1219 140.885 82.2255 137.659C75.1596 140.113 70.2871 141.897 70.2871 141.897Z" fill="#F7A491"/>
<path d="M152.26 131.927C151.309 127.129 147.288 125.171 142.646 125.281C131.945 125.557 101.777 132.452 83.8181 138.086C84.8918 141.951 84.0738 144.477 85.3519 148.455C104.374 147.432 140.059 144.477 150.389 138.531C151.994 137.613 152.721 134.246 152.26 131.927Z" fill="#B1B1DE"/>
<path d="M139.775 152.951C138.425 149.884 137.065 147.879 136.51 144.771C135.853 141.087 136.16 139.029 131.653 140.775C129.068 141.791 126.191 141.776 123.616 140.734C121.926 140.044 119.838 139.2 117.465 138.239C115.916 141.445 114.985 144.914 114.722 148.465C120.346 149.045 124.437 149.61 124.641 149.633C125.544 149.725 131.633 151.011 133.371 154.792C135.11 158.573 135.892 163.279 137.876 162.824C139.018 162.566 141.127 156.009 139.775 152.951Z" fill="#F7A491"/>
<path d="M68.6766 123.609C64.4688 123.491 57.1907 124.286 56.1017 129.039C55.5751 131.34 55.7719 134.576 56.7101 136.746C57.8809 139.459 60.5754 140.934 63.2519 142.082C68.3647 144.242 99.9387 147.596 116.213 149.27C118.133 145.793 119.723 141.928 119.602 138.546C103.891 132.227 76.7369 123.824 68.6766 123.609Z" fill="#D6D6ED"/>
</svg>
