<svg width="272" height="549" viewBox="0 0 272 549" fill="none" xmlns="http://www.w3.org/2000/svg">
<path d="M267.749 86.7895H267.237V32.5582C267.237 28.2824 266.395 24.0484 264.759 20.0981C263.122 16.1478 260.724 12.5585 257.7 9.53517C254.677 6.51183 251.087 4.11366 247.137 2.47761C243.187 0.841559 238.953 -0.000335627 234.677 1.0037e-07H37.3233C28.6888 0.000678063 20.4081 3.43121 14.3028 9.53698C8.19755 15.6428 4.76767 23.9237 4.76767 32.5582V86.7895H4.25639C3.69758 86.7885 3.14406 86.8977 2.62753 87.1109C2.111 87.3241 1.6416 87.6372 1.24623 88.0321C0.850849 88.427 0.537259 88.896 0.323411 89.4123C0.109564 89.9285 -0.000336365 90.4819 7.73323e-07 91.0407V128.553C-0.000335297 129.112 0.1094 129.665 0.322928 130.181C0.536455 130.696 0.849589 131.165 1.24442 131.56C1.63926 131.955 2.10804 132.268 2.62398 132.482C3.13992 132.695 3.6929 132.805 4.25128 132.805H4.76256V141.752H4.25128C3.6929 141.752 3.13992 141.861 2.62398 142.075C2.10804 142.288 1.63926 142.601 1.24442 142.996C0.849589 143.391 0.536455 143.86 0.322928 144.376C0.1094 144.892 -0.000335297 145.445 7.73323e-07 146.003V183.516C-0.000335297 184.074 0.1094 184.627 0.322928 185.143C0.536455 185.659 0.849589 186.128 1.24442 186.522C1.63926 186.917 2.10804 187.23 2.62398 187.444C3.13992 187.658 3.6929 187.767 4.25128 187.767H4.76256V516.299C4.76256 520.575 5.60478 524.809 7.24115 528.759C8.87751 532.709 11.276 536.299 14.2995 539.322C17.3231 542.345 20.9126 544.743 24.863 546.379C28.8135 548.016 33.0475 548.857 37.3233 548.857H234.677C243.312 548.857 251.593 545.427 257.699 539.321C263.805 533.215 267.235 524.934 267.235 516.299V155.812H267.746C268.305 155.813 268.858 155.703 269.374 155.49C269.89 155.276 270.36 154.963 270.755 154.569C271.15 154.174 271.463 153.705 271.677 153.189C271.891 152.673 272 152.119 272 151.561V91.0407C272 90.4824 271.891 89.9294 271.677 89.4135C271.464 88.8975 271.15 88.4287 270.756 88.0339C270.361 87.639 269.892 87.3259 269.376 87.1124C268.86 86.8989 268.307 86.7891 267.749 86.7895Z" fill="#333343"/>
<path d="M231.073 8H40.4433C25.8391 8 14 19.8391 14 34.4433V514.309C14 528.913 25.8391 540.752 40.4433 540.752H231.073C245.678 540.752 257.517 528.913 257.517 514.309V34.4433C257.517 19.8391 245.678 8 231.073 8Z" fill="white"/>
<path fill-rule="evenodd" clip-rule="evenodd" d="M213.932 56.417C213.886 56.3339 213.799 56.2785 213.707 56.2646L209.751 55.7149C209.195 55.6364 208.782 55.1606 208.782 54.5971V50.3615C208.782 50.1213 208.685 49.8903 208.511 49.724L206.443 47.7517H202.041C202.083 47.8995 202.165 48.0381 202.285 48.1489L205.097 50.731C205.276 50.8973 205.382 51.1328 205.382 51.3777V57.2531C205.382 57.8443 205.836 58.3339 206.42 58.3801L214.87 58.9991C215.118 59.0175 215.288 58.7496 215.159 58.5325L213.932 56.417Z" fill="url(#paint0_linear_2_2970)"/>
<path fill-rule="evenodd" clip-rule="evenodd" d="M206.448 47.2482L208.515 45.2805C208.69 45.1142 208.786 44.8832 208.786 44.643V40.4074C208.786 39.8439 209.2 39.3681 209.756 39.2896L213.712 38.7399C213.808 38.7261 213.891 38.6706 213.937 38.5875L215.164 36.4766C215.288 36.2595 215.122 35.9916 214.874 36.0101L206.42 36.6244C205.832 36.666 205.382 37.1602 205.382 37.7514V43.6269C205.382 43.8717 205.276 44.1072 205.097 44.2735L202.285 46.8556C202.165 46.9664 202.087 47.105 202.041 47.2528L206.448 47.2482Z" fill="url(#paint1_linear_2_2970)"/>
<path fill-rule="evenodd" clip-rule="evenodd" d="M208.818 54.8742C208.809 54.8326 208.8 54.7911 208.795 54.7495C208.795 54.7449 208.795 54.7356 208.791 54.731C208.786 54.6895 208.782 54.6433 208.782 54.5971V50.3614C208.782 50.2413 208.759 50.1212 208.713 50.015C208.69 49.9596 208.662 49.9088 208.625 49.8626C208.593 49.8118 208.552 49.7702 208.511 49.7286L206.356 47.6731C206.333 47.6501 206.319 47.627 206.305 47.5992H202.009C202.032 47.8025 202.119 48.0011 202.285 48.1535L205.097 50.7356C205.276 50.9019 205.382 51.1374 205.382 51.3822V57.2576C205.382 57.4054 205.409 57.5486 205.46 57.678C205.496 57.775 205.552 57.8674 205.611 57.9459C205.634 57.9736 205.653 58.0013 205.68 58.0244C205.869 58.2276 206.126 58.3616 206.42 58.3801L211.364 58.7403C209.425 57.5348 208.938 55.5902 208.818 54.8742Z" fill="url(#paint2_linear_2_2970)"/>
<path d="M211.368 58.7403C211.033 58.5279 210.711 58.2923 210.427 58.0152C210.142 57.7334 209.889 57.4285 209.668 57.096C209.448 56.7634 209.273 56.4031 209.131 56.0336C208.988 55.6594 208.878 55.2761 208.818 54.8788C208.809 54.8326 208.8 54.7864 208.795 54.7403C208.791 54.6941 208.791 54.6479 208.786 54.6017C208.791 54.6479 208.791 54.6941 208.795 54.7403C208.805 54.7864 208.814 54.8326 208.823 54.8788C208.965 55.6594 209.255 56.417 209.691 57.0821C209.907 57.4147 210.16 57.7242 210.44 58.0059C210.721 58.2784 211.038 58.5186 211.368 58.7403Z" fill="url(#paint3_linear_2_2970)"/>
<path fill-rule="evenodd" clip-rule="evenodd" d="M206.608 47.0912L208.511 45.2759C208.552 45.2343 208.593 45.1881 208.626 45.142C208.658 45.0911 208.685 45.0403 208.713 44.9895C208.759 44.8833 208.782 44.7632 208.782 44.6431V40.4074C208.782 40.3612 208.786 40.3197 208.791 40.2735C208.791 40.2689 208.791 40.2596 208.796 40.255C208.8 40.2134 208.809 40.1719 208.819 40.1303C208.933 39.4143 209.425 37.4697 211.364 36.2642L206.42 36.6244C206.126 36.6475 205.869 36.7769 205.68 36.9801C205.657 37.0032 205.634 37.0309 205.611 37.0586C205.552 37.1418 205.497 37.2295 205.46 37.3265C205.409 37.4559 205.382 37.5991 205.382 37.7469V43.6223C205.382 43.8671 205.276 44.1027 205.097 44.269L202.285 46.851C202.207 46.9203 202.152 47.0034 202.106 47.0912H206.608Z" fill="url(#paint4_linear_2_2970)"/>
<path d="M208.786 40.4029C208.791 40.3567 208.791 40.3105 208.795 40.2643C208.8 40.2182 208.809 40.172 208.818 40.1258C208.878 39.7332 208.988 39.3452 209.131 38.971C209.273 38.5969 209.453 38.2412 209.668 37.904C209.889 37.5715 210.142 37.262 210.427 36.9848C210.711 36.7077 211.033 36.4675 211.368 36.2596C211.038 36.4814 210.721 36.7215 210.44 36.9987C210.16 37.2805 209.907 37.5899 209.691 37.9225C209.26 38.5876 208.965 39.3452 208.823 40.1258C208.814 40.172 208.805 40.2182 208.795 40.2643C208.791 40.3105 208.786 40.3567 208.786 40.4029Z" fill="url(#paint5_linear_2_2970)"/>
<path fill-rule="evenodd" clip-rule="evenodd" d="M208.786 54.4678V50.3615C208.786 50.2414 208.763 50.1213 208.717 50.015C208.694 49.9596 208.667 49.9088 208.63 49.8626C208.598 49.8118 208.557 49.7702 208.515 49.7287L206.36 47.6732C206.314 47.627 206.287 47.567 206.287 47.5069C206.287 47.4469 206.31 47.3868 206.36 47.3406L208.515 45.2852C208.557 45.2436 208.598 45.1974 208.63 45.1512C208.662 45.1004 208.69 45.0496 208.717 44.9988C208.763 44.8925 208.786 44.7724 208.786 44.6523V40.546C206.719 43.1373 205.097 44.2874 205.097 44.2874L202.285 46.8695C202.096 47.045 202 47.2806 202 47.5161C202 47.7517 202.096 47.9919 202.285 48.1628L205.097 50.7448C205.097 50.7264 206.719 51.8719 208.786 54.4678Z" fill="url(#paint6_linear_2_2970)"/>
<path d="M205.097 50.7263C205.455 50.985 205.786 51.2667 206.112 51.5624C206.438 51.858 206.751 52.1628 207.059 52.4769C207.362 52.7956 207.661 53.119 207.945 53.4515C208.093 53.6132 208.23 53.7841 208.373 53.955L208.786 54.4677C208.506 54.1305 208.226 53.7933 207.936 53.4654C207.647 53.1374 207.348 52.8141 207.04 52.5C206.737 52.1859 206.425 51.8765 206.098 51.5808C205.938 51.433 205.772 51.2852 205.607 51.1466C205.441 50.9988 205.271 50.8603 205.097 50.7263Z" fill="url(#paint7_linear_2_2970)"/>
<path fill-rule="evenodd" clip-rule="evenodd" d="M205.097 44.2728L202.285 46.8549C202.096 47.0304 202 47.2659 202 47.5015C202 47.7371 202.096 47.9773 202.285 48.1482L204.284 49.9819C205.042 48.4992 206.356 47.3306 206.356 47.3306L208.511 45.2751C208.552 45.2336 208.593 45.1874 208.625 45.1412C208.658 45.0904 208.685 45.0396 208.713 44.9888C208.759 44.8825 208.782 44.7624 208.782 44.6423V40.536C206.719 43.1273 205.097 44.2728 205.097 44.2728Z" fill="url(#paint8_linear_2_2970)"/>
<path d="M208.786 40.5322L208.373 41.0449C208.23 41.2112 208.093 41.3821 207.945 41.5484C207.656 41.881 207.362 42.2043 207.059 42.523C206.751 42.8371 206.438 43.142 206.112 43.4376C205.786 43.7332 205.451 44.0196 205.097 44.2736C205.271 44.1443 205.441 44.0011 205.607 43.8579C205.772 43.7147 205.938 43.5716 206.098 43.4237C206.42 43.1281 206.733 42.8186 207.04 42.5046C207.344 42.1905 207.647 41.8671 207.936 41.5392C208.221 41.2066 208.506 40.8694 208.786 40.5322Z" fill="url(#paint9_linear_2_2970)"/>
<path fill-rule="evenodd" clip-rule="evenodd" d="M227.739 38.5829C227.785 38.6661 227.872 38.7215 227.964 38.7354L231.92 39.285C232.476 39.3636 232.89 39.8393 232.89 40.4028V44.6385C232.89 44.8787 232.986 45.1096 233.161 45.2759L235.229 47.2483H239.63C239.589 47.1005 239.506 46.9619 239.387 46.851L236.575 44.269C236.396 44.1027 236.29 43.8671 236.29 43.6223V37.7469C236.29 37.1557 235.835 36.666 235.252 36.6199L226.802 36.0009C226.554 35.9824 226.384 36.2503 226.512 36.4674L227.739 38.5829Z" fill="url(#paint10_linear_2_2970)"/>
<path fill-rule="evenodd" clip-rule="evenodd" d="M235.224 47.7518L233.156 49.7195C232.982 49.8858 232.885 50.1168 232.885 50.3569V54.5926C232.885 55.1561 232.472 55.6319 231.916 55.7104L227.964 56.2647C227.868 56.2786 227.785 56.334 227.739 56.4171L226.513 58.528C226.389 58.7451 226.554 59.013 226.802 58.9945L235.252 58.3756C235.84 58.334 236.29 57.8398 236.29 57.2485V51.3731C236.29 51.1283 236.396 50.8928 236.575 50.7265L239.387 48.1444C239.506 48.0336 239.584 47.895 239.63 47.7472L235.224 47.7518Z" fill="url(#paint11_linear_2_2970)"/>
<path fill-rule="evenodd" clip-rule="evenodd" d="M232.853 40.1252C232.862 40.1668 232.871 40.2083 232.876 40.2499C232.876 40.2545 232.876 40.2638 232.88 40.2684C232.885 40.3099 232.89 40.3561 232.89 40.4023V44.638C232.89 44.7581 232.913 44.8782 232.959 44.9844C232.981 45.0398 233.009 45.0907 233.046 45.1368C233.083 45.183 233.119 45.2292 233.161 45.2708L235.316 47.3263C235.339 47.3494 235.352 47.3725 235.366 47.4002H239.662C239.639 47.1969 239.552 46.9983 239.386 46.8459L236.575 44.2638C236.395 44.0976 236.29 43.862 236.29 43.6172V37.7464C236.29 37.5986 236.262 37.4554 236.212 37.3261C236.175 37.2291 236.12 37.1367 236.06 37.0581C236.037 37.0304 236.019 37.0027 235.991 36.9796C235.803 36.7764 235.545 36.6424 235.251 36.624L230.307 36.2637C232.246 37.4646 232.733 39.4092 232.853 40.1252Z" fill="url(#paint12_linear_2_2970)"/>
<path d="M230.303 36.2596C230.639 36.4721 230.96 36.7077 231.245 36.9848C231.53 37.2666 231.783 37.5715 232.003 37.904C232.224 38.2366 232.398 38.5969 232.541 38.9664C232.683 39.3405 232.793 39.7239 232.853 40.1212C232.862 40.1674 232.872 40.2135 232.876 40.2597C232.881 40.3059 232.881 40.3521 232.885 40.3983C232.881 40.3521 232.881 40.3059 232.876 40.2597C232.867 40.2135 232.858 40.1674 232.849 40.1212C232.706 39.3405 232.417 38.583 231.98 37.9179C231.764 37.5853 231.512 37.2758 231.231 36.9941C230.951 36.7215 230.634 36.4767 230.303 36.2596Z" fill="url(#paint13_linear_2_2970)"/>
<path fill-rule="evenodd" clip-rule="evenodd" d="M235.063 47.9088L233.161 49.7241C233.12 49.7656 233.078 49.8118 233.046 49.858C233.014 49.9088 232.986 49.9596 232.959 50.0105C232.913 50.1167 232.89 50.2368 232.89 50.3569V54.5925C232.89 54.6387 232.885 54.6803 232.881 54.7265C232.881 54.7311 232.881 54.7404 232.876 54.745C232.871 54.7865 232.862 54.8281 232.853 54.8697C232.738 55.5856 232.247 57.5303 230.308 58.7358L235.251 58.3755C235.545 58.3524 235.803 58.2231 235.991 58.0199C236.014 57.9968 236.037 57.9691 236.06 57.9413C236.124 57.8582 236.175 57.7704 236.212 57.6734C236.262 57.5441 236.29 57.4009 236.29 57.2531V51.3731C236.29 51.1283 236.395 50.8927 236.575 50.7264L239.387 48.1444C239.465 48.0751 239.52 47.9919 239.566 47.9042L235.063 47.9088Z" fill="url(#paint14_linear_2_2970)"/>
<path d="M232.885 54.5972C232.881 54.6434 232.881 54.6895 232.876 54.7357C232.872 54.7819 232.862 54.8281 232.853 54.8743C232.793 55.2669 232.683 55.6549 232.541 56.0291C232.398 56.4032 232.219 56.7589 232.003 57.0961C231.783 57.4286 231.53 57.7381 231.245 58.0152C230.96 58.2924 230.639 58.5326 230.303 58.7404C230.634 58.5187 230.951 58.2785 231.231 58.0014C231.512 57.7196 231.764 57.4102 231.98 57.0776C232.412 56.4124 232.706 55.6549 232.849 54.8743C232.858 54.8281 232.867 54.7819 232.876 54.7357C232.881 54.6895 232.885 54.6434 232.885 54.5972Z" fill="url(#paint15_linear_2_2970)"/>
<path fill-rule="evenodd" clip-rule="evenodd" d="M232.885 40.5322V44.6386C232.885 44.7586 232.908 44.8787 232.954 44.985C232.977 45.0404 233.005 45.0912 233.041 45.1374C233.078 45.1836 233.115 45.2298 233.156 45.2714L235.311 47.3268C235.357 47.373 235.385 47.4331 235.385 47.4931C235.385 47.5532 235.362 47.6132 235.311 47.6594L233.156 49.7149C233.115 49.7564 233.074 49.8026 233.041 49.8488C233.009 49.8996 232.982 49.9504 232.954 50.0013C232.908 50.1075 232.885 50.2276 232.885 50.3477V54.454C234.953 51.8627 236.575 50.7126 236.575 50.7126L239.387 48.1305C239.575 47.955 239.672 47.7195 239.672 47.4839C239.672 47.2483 239.575 47.0081 239.387 46.8372L236.575 44.2552C236.575 44.2736 234.953 43.1281 232.885 40.5322Z" fill="url(#paint16_linear_2_2970)"/>
<path d="M236.575 44.2736C236.216 44.015 235.886 43.7332 235.559 43.4376C235.233 43.142 234.921 42.8371 234.613 42.523C234.31 42.2043 234.011 41.881 233.726 41.5484C233.579 41.3867 233.441 41.2158 233.299 41.0449L232.885 40.5322C233.165 40.8694 233.446 41.2066 233.735 41.5346C234.025 41.8625 234.323 42.1858 234.631 42.4999C234.934 42.814 235.247 43.1235 235.573 43.4191C235.734 43.5669 235.899 43.7147 236.065 43.8533C236.23 44.0011 236.4 44.1397 236.575 44.2736Z" fill="url(#paint17_linear_2_2970)"/>
<path fill-rule="evenodd" clip-rule="evenodd" d="M236.575 50.7265L239.387 48.1444C239.575 47.9689 239.672 47.7333 239.672 47.4978C239.672 47.2622 239.575 47.022 239.387 46.8511L237.384 45.0173C236.626 46.5 235.311 47.6687 235.311 47.6687L233.157 49.7241C233.115 49.7657 233.074 49.8119 233.042 49.8581C233.01 49.9089 232.982 49.9597 232.954 50.0105C232.908 50.1168 232.885 50.2368 232.885 50.3569V54.4633C234.953 51.872 236.575 50.7265 236.575 50.7265Z" fill="url(#paint18_linear_2_2970)"/>
<path d="M232.885 54.4678L233.299 53.9551C233.441 53.7889 233.579 53.6179 233.726 53.4517C234.015 53.1191 234.31 52.7958 234.613 52.477C234.921 52.163 235.233 51.8581 235.559 51.5625C235.886 51.2669 236.221 50.9805 236.575 50.7264C236.4 50.8558 236.23 50.999 236.065 51.1422C235.899 51.2853 235.734 51.4285 235.573 51.5763C235.251 51.872 234.939 52.1814 234.631 52.4955C234.328 52.8096 234.025 53.133 233.735 53.4609C233.45 53.7935 233.165 54.126 232.885 54.4678Z" fill="url(#paint19_linear_2_2970)"/>
<path d="M231.075 43.6685C228.906 41.4883 225.378 41.4883 223.209 43.6685L220.852 46.0426L218.49 43.6685C216.322 41.4883 212.793 41.4883 210.629 43.6685C209.577 44.7262 208.998 46.1304 208.998 47.6224C208.998 49.1143 209.577 50.5185 210.629 51.5763C211.681 52.634 213.078 53.216 214.562 53.216C216.046 53.216 217.443 52.634 218.495 51.5763L220.857 49.2021L223.218 51.5763C224.27 52.634 225.667 53.216 227.151 53.216C228.635 53.216 230.032 52.634 231.084 51.5763C232.136 50.5185 232.715 49.1143 232.715 47.6224C232.706 46.1258 232.127 44.7216 231.075 43.6685ZM216.924 49.9965C215.619 51.3083 213.501 51.3083 212.196 49.9965C210.891 48.6847 210.891 46.5554 212.196 45.2436C212.848 44.5877 213.703 44.2597 214.557 44.2597C215.412 44.2597 216.271 44.5877 216.919 45.2436L219.285 47.6177L216.924 49.9965ZM229.508 49.9965C228.203 51.3083 226.085 51.3083 224.78 49.9965L222.419 47.6177L224.78 45.2436C226.085 43.9317 228.203 43.9317 229.508 45.2436C230.813 46.5554 230.813 48.6847 229.508 49.9965Z" fill="url(#paint20_linear_2_2970)"/>
<path opacity="0.1" d="M222.419 47.6224L220.852 49.2021L223.007 48.2137L222.419 47.6224Z" fill="#010101"/>
<path opacity="0.1" d="M220.852 46.0381L219.285 47.6224L218.656 46.985L220.852 46.0381Z" fill="#010101"/>
<path d="M230.39 44.3566C228.603 42.5598 225.69 42.5598 223.898 44.3566L220.852 47.419L220.659 47.6177L217.608 50.6847C215.926 52.3753 213.192 52.3753 211.511 50.6847C209.829 48.9941 209.829 46.2458 211.511 44.5552C212.352 43.71 213.454 43.285 214.562 43.285C215.664 43.285 216.772 43.71 217.613 44.5506L219.974 46.9248L220.172 46.7262L217.81 44.352C216.023 42.5552 213.11 42.5552 211.318 44.352C209.526 46.1488 209.531 49.0773 211.318 50.8787C212.214 51.7794 213.39 52.2275 214.566 52.2275C215.743 52.2275 216.919 51.7794 217.81 50.8787L220.856 47.8163L221.049 47.6177L224.1 44.5506C225.782 42.86 228.516 42.86 230.197 44.5506C231.879 46.2412 231.879 48.9895 230.197 50.6801C228.516 52.3707 225.782 52.3707 224.1 50.6801L221.739 48.3059L221.541 48.5045L223.903 50.8787C224.799 51.7794 225.975 52.2275 227.151 52.2275C228.327 52.2275 229.503 51.7794 230.399 50.8787C232.178 49.0865 232.178 46.158 230.39 44.3566Z" fill="white"/>
<path d="M56.5806 42.6432H40.9866C40.8171 42.6432 40.6546 42.5759 40.5347 42.456C40.4149 42.3361 40.3475 42.1736 40.3475 42.0041C40.3475 41.8346 40.4149 41.672 40.5347 41.5522C40.6546 41.4323 40.8171 41.365 40.9866 41.365H56.5806C56.7501 41.365 56.9127 41.4323 57.0325 41.5522C57.1524 41.672 57.2197 41.8346 57.2197 42.0041C57.2197 42.1736 57.1524 42.3361 57.0325 42.456C56.9127 42.5759 56.7501 42.6432 56.5806 42.6432Z" fill="#3E3D51"/>
<path d="M56.5806 48.395H40.9866C40.8171 48.395 40.6546 48.3277 40.5347 48.2078C40.4149 48.088 40.3475 47.9254 40.3475 47.7559C40.3475 47.5864 40.4149 47.4239 40.5347 47.304C40.6546 47.1842 40.8171 47.1168 40.9866 47.1168H56.5806C56.7501 47.1168 56.9127 47.1842 57.0325 47.304C57.1524 47.4239 57.2197 47.5864 57.2197 47.7559C57.2197 47.9254 57.1524 48.088 57.0325 48.2078C56.9127 48.3277 56.7501 48.395 56.5806 48.395Z" fill="#3E3D51"/>
<path d="M56.5806 54.147H40.9866C40.8171 54.147 40.6546 54.0796 40.5347 53.9598C40.4149 53.8399 40.3475 53.6774 40.3475 53.5079C40.3475 53.3384 40.4149 53.1758 40.5347 53.056C40.6546 52.9361 40.8171 52.8688 40.9866 52.8688H56.5806C56.7501 52.8688 56.9127 52.9361 57.0325 53.056C57.1524 53.1758 57.2197 53.3384 57.2197 53.5079C57.2197 53.6774 57.1524 53.8399 57.0325 53.9598C56.9127 54.0796 56.7501 54.147 56.5806 54.147Z" fill="#3E3D51"/>
<path d="M190.17 456.231C190.106 456.169 190.057 456.094 190.024 456.011C189.991 455.928 189.975 455.84 189.978 455.751C189.976 455.663 189.992 455.576 190.025 455.496C190.058 455.415 190.107 455.341 190.17 455.28C190.231 455.219 190.304 455.17 190.384 455.137C190.465 455.104 190.551 455.087 190.638 455.089C190.723 455.087 190.807 455.103 190.886 455.135C190.964 455.167 191.036 455.215 191.095 455.275C191.157 455.338 191.205 455.412 191.236 455.494C191.268 455.576 191.283 455.663 191.279 455.751C191.282 455.84 191.267 455.928 191.234 456.011C191.202 456.093 191.153 456.168 191.09 456.231C191.031 456.292 190.961 456.34 190.883 456.372C190.805 456.405 190.722 456.421 190.638 456.421C190.551 456.422 190.465 456.406 190.385 456.373C190.304 456.341 190.231 456.292 190.17 456.231Z" fill="#8282A8"/>
<path d="M41.99 348.04H48.71V352H36.86V330.94H41.99V348.04ZM58.7769 352.24C57.1369 352.24 55.6569 351.89 54.3369 351.19C53.0369 350.49 52.0069 349.49 51.2469 348.19C50.5069 346.89 50.1369 345.37 50.1369 343.63C50.1369 341.91 50.5169 340.4 51.2769 339.1C52.0369 337.78 53.0769 336.77 54.3969 336.07C55.7169 335.37 57.1969 335.02 58.8369 335.02C60.4769 335.02 61.9569 335.37 63.2769 336.07C64.5969 336.77 65.6369 337.78 66.3969 339.1C67.1569 340.4 67.5369 341.91 67.5369 343.63C67.5369 345.35 67.1469 346.87 66.3669 348.19C65.6069 349.49 64.5569 350.49 63.2169 351.19C61.8969 351.89 60.4169 352.24 58.7769 352.24ZM58.7769 347.8C59.7569 347.8 60.5869 347.44 61.2669 346.72C61.9669 346 62.3169 344.97 62.3169 343.63C62.3169 342.29 61.9769 341.26 61.2969 340.54C60.6369 339.82 59.8169 339.46 58.8369 339.46C57.8369 339.46 57.0069 339.82 56.3469 340.54C55.6869 341.24 55.3569 342.27 55.3569 343.63C55.3569 344.97 55.6769 346 56.3169 346.72C56.9769 347.44 57.7969 347.8 58.7769 347.8ZM75.3884 338.05C75.9884 337.13 76.7384 336.41 77.6384 335.89C78.5384 335.35 79.5384 335.08 80.6384 335.08V340.51H79.2284C77.9484 340.51 76.9884 340.79 76.3484 341.35C75.7084 341.89 75.3884 342.85 75.3884 344.23V352H70.2584V335.26H75.3884V338.05ZM98.8705 343.36C98.8705 343.84 98.8405 344.34 98.7805 344.86H87.1705C87.2505 345.9 87.5805 346.7 88.1605 347.26C88.7605 347.8 89.4905 348.07 90.3505 348.07C91.6305 348.07 92.5205 347.53 93.0205 346.45H98.4805C98.2005 347.55 97.6905 348.54 96.9505 349.42C96.2305 350.3 95.3205 350.99 94.2205 351.49C93.1205 351.99 91.8905 352.24 90.5305 352.24C88.8905 352.24 87.4305 351.89 86.1505 351.19C84.8705 350.49 83.8705 349.49 83.1505 348.19C82.4305 346.89 82.0705 345.37 82.0705 343.63C82.0705 341.89 82.4205 340.37 83.1205 339.07C83.8405 337.77 84.8405 336.77 86.1205 336.07C87.4005 335.37 88.8705 335.02 90.5305 335.02C92.1505 335.02 93.5905 335.36 94.8505 336.04C96.1105 336.72 97.0905 337.69 97.7905 338.95C98.5105 340.21 98.8705 341.68 98.8705 343.36ZM93.6205 342.01C93.6205 341.13 93.3205 340.43 92.7205 339.91C92.1205 339.39 91.3705 339.13 90.4705 339.13C89.6105 339.13 88.8805 339.38 88.2805 339.88C87.7005 340.38 87.3405 341.09 87.2005 342.01H93.6205ZM122.937 335.08C125.017 335.08 126.667 335.71 127.887 336.97C129.127 338.23 129.747 339.98 129.747 342.22V352H124.647V342.91C124.647 341.83 124.357 341 123.777 340.42C123.217 339.82 122.437 339.52 121.437 339.52C120.437 339.52 119.647 339.82 119.067 340.42C118.507 341 118.227 341.83 118.227 342.91V352H113.127V342.91C113.127 341.83 112.837 341 112.257 340.42C111.697 339.82 110.917 339.52 109.917 339.52C108.917 339.52 108.127 339.82 107.547 340.42C106.987 341 106.707 341.83 106.707 342.91V352H101.577V335.26H106.707V337.36C107.227 336.66 107.907 336.11 108.747 335.71C109.587 335.29 110.537 335.08 111.597 335.08C112.857 335.08 113.977 335.35 114.957 335.89C115.957 336.43 116.737 337.2 117.297 338.2C117.877 337.28 118.667 336.53 119.667 335.95C120.667 335.37 121.757 335.08 122.937 335.08Z" fill="black"/>
<path d="M222.503 307.355C242.916 294.261 244.25 230.786 204.772 215.928C165.294 201.07 172.607 163.578 139.395 135.553C109.122 110.007 59.0373 131.662 42.3568 198.097C30.4619 245.47 44.3406 304.896 53.812 307.355H222.503Z" fill="#ECE1EF"/>
<path d="M192.496 306.084C192.496 306.084 212.763 296.091 216.248 290.879C219.732 285.667 214.609 285.373 214.609 285.373C214.609 285.373 223.654 276.576 222.38 272.874C221.107 269.173 216.36 272.708 216.36 272.708C216.36 272.708 222.24 259.622 219.497 258.321C214.384 255.897 207.226 269.825 207.226 269.825C207.226 269.825 208.76 263.774 205.248 263.97C199.946 264.267 200.163 277.954 200.163 277.954C200.163 277.954 199.565 272.706 196.369 274.411C190.622 277.468 192.496 306.084 192.496 306.084Z" fill="#8282A8"/>
<path d="M195.86 272.314C199.329 271.269 200.135 275.111 200.135 275.111C200.135 275.111 199.935 264.267 205.248 263.97C208.765 263.774 207.226 269.825 207.226 269.825C207.226 269.825 214.384 255.897 219.497 258.321L192.473 305.87C192.271 302.549 190.87 273.815 195.86 272.314Z" fill="#B1B1DE"/>
<path d="M193.008 306.207C193.008 306.207 209.583 308.252 213.873 306.432C218.162 304.612 215.09 302.342 215.09 302.342C215.09 302.342 224.293 300.529 225.016 297.702C225.74 294.875 221.327 295.146 221.327 295.146C221.327 295.146 230.313 289.371 229.132 287.446C226.931 283.867 216.802 289.634 216.802 289.634C216.802 289.634 220.22 286.487 217.948 285.181C214.52 283.21 209.095 291.827 209.095 291.827C209.095 291.827 209.43 289.703 206.743 289.468C201.927 289.049 193.008 306.207 193.008 306.207Z" fill="#8282A8"/>
<path d="M206.51 288.908C209.197 289.143 209.097 291.832 209.097 291.832C209.097 291.832 214.522 283.207 217.95 285.186C220.223 286.492 216.805 289.639 216.805 289.639C216.805 289.639 226.933 283.864 229.134 287.451L192.959 306.112C194.189 303.968 202.009 288.514 206.51 288.908Z" fill="#3E3D51"/>
<path d="M235.955 307.15C235.955 306.767 235.748 306.455 235.497 306.455H37.1955C37.036 306.489 36.893 306.576 36.7903 306.703C36.6877 306.829 36.6317 306.987 36.6317 307.15C36.6317 307.313 36.6877 307.471 36.7903 307.598C36.893 307.725 37.036 307.812 37.1955 307.846H235.492C235.748 307.846 235.95 307.534 235.95 307.15H235.955Z" fill="#3E3D51"/>
<path d="M85.6595 306.128C85.6595 306.128 59.2418 293.09 54.6991 286.308C50.1563 279.526 56.8336 279.13 56.8336 279.13C56.8336 279.13 45.0436 267.664 46.7027 262.838C48.3618 258.011 54.5508 262.623 54.5508 262.623C54.5508 262.623 46.8816 245.564 50.4606 243.867C57.1072 240.707 66.4559 258.863 66.4559 258.863C66.4559 258.863 64.4491 250.976 69.0327 251.232C75.9478 251.618 75.6615 269.459 75.6615 269.459C75.6615 269.459 76.4437 262.618 80.6106 264.842C88.0881 268.827 85.6595 306.128 85.6595 306.128Z" fill="#8282A8"/>
<path d="M82.0269 262.973C78.3815 260.818 75.6001 265.888 75.6001 265.888C75.6001 265.888 75.9503 251.618 69.0353 251.232C64.4517 250.976 66.4585 258.863 66.4585 258.863C66.4585 258.863 57.12 240.712 50.4631 243.867L85.6902 305.839C85.9382 301.511 86.8687 265.834 82.0269 262.973Z" fill="#B1B1DE"/>
<path d="M84.977 306.289C84.977 306.289 63.3704 308.973 57.777 306.58C52.1836 304.187 56.1921 301.235 56.1921 301.235C56.1921 301.235 44.177 298.875 43.2516 295.191C42.3262 291.508 48.0602 291.868 48.0602 291.868C48.0602 291.868 36.3494 284.34 37.8883 281.829C40.7566 277.154 53.9603 284.685 53.9603 284.685C53.9603 284.685 49.502 280.579 52.4674 278.877C56.936 276.307 64.0069 287.553 64.0069 287.553C64.0069 287.553 63.5672 284.782 67.0746 284.485C73.3531 283.923 84.977 306.289 84.977 306.289Z" fill="#8282A8"/>
<path d="M67.0541 282.609C63.5518 282.916 64.0069 287.558 64.0069 287.558C64.0069 287.558 57.7463 275.564 52.4469 278.71C49.507 280.456 53.5845 284.531 53.5845 284.531C53.5845 284.531 40.7565 277.159 37.8882 281.834L85.0409 306.174C83.438 303.369 72.9236 282.098 67.0541 282.609Z" fill="#3E3D51"/>
<path d="M195.855 285.932H81.5847C77.2184 285.932 73.6803 282.849 73.6803 279.051V274.96C73.6803 271.161 77.2184 268.081 81.5847 268.081H195.855C190.63 273.056 190.538 280.658 195.646 285.72L195.855 285.932Z" fill="#3E3D51"/>
<path d="M194.255 270.134H136.767C132.81 270.134 129.609 273.201 129.609 277.016C129.609 280.814 132.82 283.895 136.767 283.895H194.286C192.969 281.843 192.266 279.457 192.26 277.019C192.255 274.581 192.947 272.192 194.255 270.134Z" fill="#FBF3FF"/>
<path d="M212.947 285.002H68.9919C64.5233 285.002 60.8983 288.412 60.8983 292.617V299.024C60.8983 303.231 64.5233 306.642 68.9919 306.642H212.947L212.871 306.567C206.705 300.534 206.738 290.994 212.947 285.002Z" fill="#FF7685"/>
<path d="M210.391 288.205H133.444C128.975 288.205 125.35 291.615 125.35 295.82C125.35 300.028 128.975 303.438 133.444 303.438H210.391C209.004 301.14 208.271 298.506 208.271 295.822C208.271 293.137 209.004 290.503 210.391 288.205Z" fill="#FBF3FF"/>
<path d="M166.02 295.861H160.14C159.534 295.861 158.953 296.102 158.524 296.531C158.095 296.959 157.855 297.541 157.855 298.147V298.351H166.012L166.02 295.861Z" fill="#3E3D51"/>
<path d="M160.388 295.869C161.791 295.869 163.888 297.055 165.071 298.523L178.998 315.796H187.179L173.934 299.369C172.375 297.436 169.611 295.869 167.761 295.869H160.388Z" fill="#8282A8"/>
<path d="M67.9412 177.636C67.9227 177.693 67.8893 177.744 67.8443 177.784C67.7994 177.824 67.7446 177.852 67.6855 177.863C67.6241 177.872 67.5613 177.864 67.5044 177.839C67.4474 177.814 67.3986 177.774 67.3634 177.723L65.9881 175.734H63.5697C63.5075 175.735 63.4462 175.718 63.3932 175.686C63.3401 175.653 63.2976 175.606 63.2706 175.55C63.2431 175.495 63.2316 175.433 63.2375 175.371C63.2433 175.31 63.2663 175.251 63.3039 175.202L64.7712 173.28L64.0197 170.979C64.0001 170.92 63.9974 170.857 64.0119 170.796C64.0263 170.736 64.0574 170.68 64.1015 170.636C64.1462 170.594 64.2017 170.564 64.2621 170.55C64.3225 170.537 64.3854 170.54 64.444 170.56L66.7269 171.362L68.68 169.936C68.7301 169.899 68.7895 169.878 68.8514 169.873C68.9133 169.869 68.9753 169.882 69.0302 169.91C69.0851 169.939 69.1308 169.982 69.162 170.036C69.1933 170.089 69.2087 170.15 69.2066 170.212L69.1503 172.63L71.1111 174.047C71.1614 174.083 71.2006 174.133 71.2241 174.19C71.2476 174.248 71.2546 174.31 71.2442 174.372C71.2339 174.433 71.2065 174.49 71.1654 174.536C71.1242 174.583 71.0709 174.617 71.0114 174.635L68.6953 175.327L67.9412 177.636Z" fill="#FF7685"/>
<path d="M154.7 148.759C154.861 148.342 154.805 146.852 156.878 145.418C157.729 144.835 158.427 144.339 158.616 143.659C158.941 142.486 157.706 141.921 156.474 141.928C156.168 141.928 155.874 141.808 155.654 141.594C155.434 141.38 155.307 141.089 155.298 140.783C155.289 140.473 155.402 140.171 155.613 139.943C155.824 139.715 156.115 139.579 156.426 139.564C157.238 139.529 158.05 139.622 158.834 139.84C161.474 140.573 162.272 142.368 161.809 144.03C161.388 145.564 160.171 146.29 159.176 146.918C157.502 147.982 157.504 149.165 157.361 149.498L154.7 148.759ZM153.422 151.374C153.475 151.131 153.578 150.902 153.724 150.701C153.87 150.5 154.057 150.332 154.272 150.207C154.487 150.082 154.726 150.003 154.973 149.976C155.22 149.948 155.47 149.973 155.707 150.047C156.789 150.349 157.277 151.303 157.003 152.369C156.945 152.612 156.839 152.84 156.69 153.041C156.542 153.242 156.355 153.411 156.139 153.538C155.924 153.664 155.686 153.747 155.438 153.779C155.191 153.812 154.939 153.794 154.698 153.727C154.458 153.66 154.233 153.546 154.038 153.39C153.842 153.234 153.68 153.041 153.561 152.821C153.443 152.602 153.369 152.36 153.346 152.112C153.322 151.863 153.349 151.612 153.424 151.374H153.422Z" fill="#8282A8"/>
<path d="M221.45 175.734L222.432 177.367C222.457 177.405 222.492 177.435 222.533 177.455C222.574 177.475 222.62 177.483 222.665 177.479C222.711 177.475 222.754 177.459 222.791 177.433C222.828 177.406 222.858 177.371 222.876 177.329L223.574 175.558L225.43 175.128C225.474 175.116 225.514 175.092 225.545 175.059C225.576 175.026 225.598 174.985 225.609 174.941C225.619 174.897 225.618 174.85 225.604 174.807C225.591 174.763 225.566 174.724 225.532 174.694L224.063 173.482L224.229 171.582C224.23 171.537 224.22 171.492 224.198 171.452C224.176 171.411 224.144 171.378 224.105 171.354C224.066 171.331 224.021 171.318 223.975 171.318C223.93 171.318 223.885 171.329 223.845 171.352L222.24 172.375L220.484 171.631C220.441 171.615 220.394 171.611 220.349 171.62C220.304 171.628 220.263 171.648 220.228 171.678C220.194 171.708 220.168 171.747 220.153 171.79C220.139 171.834 220.137 171.88 220.146 171.925L220.624 173.768L219.374 175.207C219.346 175.243 219.328 175.286 219.322 175.331C219.316 175.376 219.322 175.422 219.34 175.464C219.358 175.506 219.386 175.543 219.423 175.57C219.459 175.597 219.503 175.614 219.548 175.619L221.45 175.734Z" fill="#FF7685"/>
<path d="M176.734 151.433L174.584 149.904L175.179 147.274L175.88 147.432L175.389 149.597L177.61 151.177L176.465 154.002L178.973 155.354L177.833 157.849L176.976 158L178.042 155.666L175.56 154.327L176.734 151.433Z" fill="#FF7685"/>
<path d="M77.7245 162.407L79.0564 163.578L80.7129 162.855L82.1113 164.274L83.6349 162.957L85.2888 164.491L86.8431 163.45L88.6735 164.667L88.2134 165.363L86.8431 164.453L85.2045 165.549L83.6144 164.074L82.0652 165.411L80.5212 163.847L78.903 164.555L77.6708 163.468L76.707 164.156L76.2239 163.479L77.7245 162.407Z" fill="#8282A8"/>
<path d="M227.951 187.256C228.606 187.886 229.059 188.697 229.254 189.585C229.448 190.474 229.375 191.4 229.044 192.247C228.713 193.093 228.138 193.823 227.392 194.343C226.647 194.864 225.764 195.152 224.855 195.171C223.945 195.19 223.051 194.939 222.284 194.45C221.518 193.961 220.913 193.255 220.547 192.423C220.181 191.591 220.069 190.669 220.227 189.773C220.384 188.877 220.804 188.049 221.432 187.391C221.851 186.953 222.351 186.602 222.906 186.358C223.46 186.114 224.058 185.982 224.663 185.97C225.269 185.957 225.871 186.064 226.435 186.285C226.999 186.506 227.514 186.835 227.951 187.256Z" fill="#ECE1EF"/>
<path d="M227.849 191.113L225.888 191.716L225.272 193.675C225.26 193.71 225.239 193.741 225.211 193.765C225.183 193.789 225.149 193.805 225.112 193.811C225.075 193.816 225.038 193.811 225.004 193.797C224.97 193.782 224.94 193.759 224.919 193.728L223.738 192.049L221.693 192.069C221.655 192.07 221.618 192.06 221.586 192.041C221.554 192.022 221.528 191.994 221.511 191.961C221.494 191.927 221.486 191.89 221.49 191.853C221.493 191.815 221.507 191.78 221.529 191.75L222.764 190.108L222.109 188.163C222.098 188.127 222.096 188.089 222.104 188.053C222.113 188.016 222.132 187.983 222.158 187.956C222.185 187.93 222.218 187.911 222.255 187.902C222.291 187.894 222.329 187.896 222.365 187.907L224.305 188.572L225.954 187.35C225.984 187.329 226.02 187.316 226.057 187.313C226.094 187.31 226.131 187.318 226.164 187.335C226.197 187.351 226.225 187.377 226.244 187.409C226.263 187.44 226.274 187.477 226.274 187.514L226.241 189.559L227.912 190.75C227.946 190.771 227.972 190.802 227.988 190.838C228.004 190.874 228.009 190.914 228.002 190.953C227.995 190.992 227.977 191.028 227.95 191.056C227.922 191.085 227.887 191.105 227.849 191.113Z" fill="#8282A8"/>
<path d="M92.4058 148.314C89.8213 149.779 90.33 153.682 93.2111 154.462C93.7276 154.606 94.1756 154.929 94.4739 155.375L95.4965 156.909C95.6331 157.11 95.8402 157.252 96.0769 157.308C96.3135 157.364 96.5625 157.329 96.7747 157.21L97.7538 156.656C97.9669 156.535 98.1267 156.339 98.2016 156.106C98.2764 155.873 98.2607 155.62 98.1577 155.398C97.3754 153.718 96.9664 153.153 97.2451 152.174C98.0785 149.298 94.9903 146.849 92.4058 148.314Z" fill="#B1B1DE"/>
<path d="M95.384 155.556C94.658 154.138 93.8297 152.663 93.5946 152.248C92.0607 152.916 92.0377 151.034 93.0142 151.443C93.2857 151.573 93.51 151.784 93.6559 152.047C94.162 151.806 94.6169 151.47 94.9955 151.057C94.8351 150.784 94.7389 150.478 94.7143 150.162C94.7398 149.751 95.1514 149.49 95.4607 149.769C95.5193 149.823 95.5665 149.888 95.5995 149.96C95.6324 150.033 95.6504 150.111 95.6524 150.191C95.6524 150.52 95.3968 150.832 95.1846 151.085C95.6959 152.236 96.2532 153.386 96.8284 154.501L96.6878 154.575C96.1203 153.473 95.5783 152.346 95.067 151.213C94.6884 151.615 94.2386 151.944 93.7403 152.182C94.0573 152.711 94.8574 154.153 95.5297 155.485L95.384 155.556ZM92.7049 152.174C92.8331 152.222 92.9702 152.242 93.1067 152.231C93.2431 152.221 93.3756 152.18 93.4949 152.113C93.3656 151.891 93.1723 151.712 92.9401 151.602C92.4135 151.361 92.3752 152 92.7049 152.167V152.174ZM94.8625 150.173C94.8833 150.438 94.9646 150.695 95.1003 150.924C95.3055 150.729 95.4388 150.471 95.4786 150.191C95.4786 150.004 95.3252 149.797 95.1412 149.815C95.1233 149.81 94.8702 150.004 94.8625 150.165V150.173Z" fill="#FBF3FF"/>
<path d="M94.4458 155.339C94.4544 155.352 94.4638 155.364 94.4739 155.375L95.4965 156.909C95.6331 157.11 95.8403 157.252 96.0769 157.308C96.3136 157.364 96.5625 157.329 96.7747 157.21L97.7538 156.656C97.9669 156.535 98.1267 156.339 98.2016 156.106C98.2764 155.873 98.2607 155.62 98.1577 155.398C97.81 154.651 97.5365 154.12 97.3627 153.685L94.4458 155.339Z" fill="#8282A8"/>
<path d="M89.9057 147.811L88.5304 146.609C88.4987 146.581 88.4727 146.548 88.454 146.51C88.4353 146.472 88.4242 146.431 88.4213 146.389C88.4185 146.347 88.4239 146.305 88.4374 146.265C88.4508 146.225 88.472 146.188 88.4997 146.157C88.5274 146.125 88.5611 146.099 88.5988 146.08C88.6365 146.061 88.6776 146.05 88.7196 146.047C88.7616 146.045 88.8038 146.05 88.8437 146.064C88.8836 146.077 88.9205 146.098 88.9522 146.126L90.325 147.325C90.389 147.38 90.4284 147.459 90.4344 147.544C90.4404 147.628 90.4125 147.712 90.3569 147.776C90.3013 147.84 90.2226 147.879 90.1379 147.885C90.0533 147.891 89.9698 147.864 89.9057 147.808V147.811Z" fill="#B1B1DE"/>
<path d="M89.443 152.103L87.5922 152.614C87.5504 152.625 87.5069 152.627 87.4642 152.621C87.4215 152.615 87.3804 152.601 87.3432 152.579C87.2682 152.534 87.2138 152.462 87.1921 152.377C87.1704 152.293 87.1832 152.204 87.2275 152.128C87.2719 152.053 87.3442 151.999 87.4286 151.977L89.2794 151.466C89.32 151.455 89.3625 151.452 89.4042 151.457C89.446 151.463 89.4863 151.476 89.5229 151.497C89.5594 151.518 89.5915 151.546 89.6173 151.579C89.6431 151.612 89.662 151.65 89.6731 151.691C89.6842 151.732 89.6872 151.774 89.6819 151.816C89.6765 151.858 89.6631 151.898 89.6422 151.935C89.6213 151.971 89.5934 152.003 89.5601 152.029C89.5268 152.055 89.4888 152.074 89.4482 152.085L89.443 152.103Z" fill="#B1B1DE"/>
<path d="M89.6859 158.251C89.6477 158.233 89.6135 158.208 89.5851 158.177C89.5567 158.147 89.5347 158.11 89.5205 158.071C89.5062 158.031 89.4999 157.989 89.502 157.947C89.504 157.906 89.5144 157.864 89.5325 157.827C89.8136 157.228 90.1509 156.657 90.5397 156.121C90.5932 156.064 90.6657 156.029 90.7435 156.022C90.8213 156.015 90.899 156.036 90.962 156.083C91.025 156.129 91.0688 156.197 91.0852 156.273C91.1016 156.349 91.0894 156.429 91.051 156.497C90.6865 157 90.3699 157.536 90.1051 158.098C90.0696 158.173 90.0056 158.232 89.9271 158.261C89.8485 158.289 89.7619 158.286 89.6859 158.251Z" fill="#B1B1DE"/>
<path d="M94.3052 146.098C94.2634 146.102 94.2213 146.097 94.1812 146.085C94.1411 146.072 94.1038 146.052 94.0716 146.025C94.0393 145.998 94.0126 145.966 93.993 145.928C93.9735 145.891 93.9614 145.851 93.9576 145.809C93.8807 144.973 93.7179 144.147 93.4719 143.344C93.4555 143.303 93.4479 143.26 93.4493 143.216C93.4507 143.172 93.4613 143.128 93.4802 143.089C93.4992 143.049 93.5262 143.013 93.5595 142.984C93.5928 142.956 93.6317 142.934 93.6738 142.921C93.7159 142.908 93.7602 142.904 93.804 142.908C93.8478 142.913 93.8901 142.927 93.9283 142.949C93.9665 142.971 93.9997 143.001 94.0258 143.036C94.052 143.072 94.0705 143.112 94.0803 143.155C94.3395 144 94.5108 144.87 94.5916 145.75C94.5994 145.834 94.5737 145.918 94.5201 145.983C94.4664 146.048 94.3892 146.089 94.3052 146.098Z" fill="#B1B1DE"/>
<path d="M96.9971 147.726C96.9469 147.658 96.9255 147.573 96.9374 147.489C96.9494 147.406 96.9938 147.33 97.061 147.279L98.7176 146.031C98.7854 145.98 98.8707 145.958 98.9549 145.97C99.039 145.981 99.115 146.026 99.1662 146.094C99.2174 146.162 99.2395 146.247 99.2278 146.331C99.2161 146.415 99.1714 146.491 99.1036 146.543L97.4445 147.79C97.3764 147.84 97.2914 147.862 97.2077 147.85C97.124 147.838 97.0484 147.793 96.9971 147.726Z" fill="#B1B1DE"/>
<path d="M101.882 151.561C101.855 151.57 101.827 151.576 101.798 151.579C101.084 151.635 100.366 151.614 99.6558 151.517C99.572 151.505 99.4963 151.461 99.4451 151.393C99.3939 151.326 99.3713 151.241 99.3823 151.157C99.3879 151.115 99.4018 151.075 99.4229 151.039C99.4441 151.002 99.4723 150.971 99.5057 150.945C99.5392 150.92 99.5774 150.901 99.6181 150.891C99.6587 150.88 99.7011 150.877 99.7427 150.883C100.405 150.978 101.077 151.002 101.744 150.955C101.821 150.949 101.898 150.971 101.96 151.016C102.022 151.062 102.066 151.129 102.082 151.205C102.099 151.281 102.087 151.359 102.05 151.427C102.013 151.495 101.953 151.547 101.88 151.573L101.882 151.561Z" fill="#B1B1DE"/>
<path d="M199.243 150.748L198.425 152.261C196.444 155.893 193.833 159.143 190.712 161.858L190.364 162.16C190.364 162.16 191.034 165.227 194.107 164.678C196.48 161.047 199.297 157.726 202.492 154.792L203.693 153.81L199.243 150.748Z" fill="#B1B1DE"/>
<path d="M203.698 153.808C203.514 154.028 202.374 153.519 201.142 152.67C199.91 151.821 199.058 150.957 199.243 150.74C199.427 150.523 200.577 151.032 201.799 151.878C203.021 152.724 203.88 153.588 203.698 153.808Z" fill="#D6D6ED"/>
<path d="M203.691 153.816C203.691 153.816 200.879 152.238 200.367 151.377L200.03 151.804C200.389 152.116 200.767 152.407 201.16 152.675C202.361 153.511 203.489 154.023 203.691 153.816Z" fill="#8282A8"/>
<path d="M198.58 158.79C198.22 158.913 196.622 159.302 195.209 157.139C195.027 157.369 194.84 157.596 194.651 157.824C195.62 159.161 196.681 159.562 197.42 159.657C197.537 159.672 197.691 159.685 197.808 159.69C198.062 159.391 198.32 159.087 198.58 158.79Z" fill="#FF7685"/>
<path d="M195.738 157.2L194.751 153.68L194.25 154.751L193.11 154.577L195.094 157.568L195.738 157.2Z" fill="#FF7685"/>
<path d="M194.953 157.803L192.189 157.333L192.834 158.082L192.192 158.66L194.863 158.437L194.953 157.803Z" fill="#FF7685"/>
<path d="M194.465 158.483C194.412 158.331 194.39 158.169 194.4 158.007C194.41 157.846 194.452 157.688 194.523 157.543C194.595 157.398 194.694 157.268 194.815 157.162C194.937 157.055 195.078 156.973 195.232 156.922C195.909 156.653 196.656 156.921 196.898 157.515C197.141 158.108 196.794 158.808 196.131 159.077C195.469 159.345 194.708 159.077 194.465 158.483Z" fill="#FF7685"/>
<path d="M205.823 171.662L207.17 171.222L208.118 173.311L210.166 172.912L211.13 174.359L211.863 173.87L210.572 171.935L208.632 172.314L207.648 170.141L205.621 170.8L205.823 171.662Z" fill="#D6D6ED"/>
<path d="M210.02 249.698L211.367 249.258L212.316 251.347L214.364 250.948L215.327 252.395L216.061 251.907L214.77 249.972L212.83 250.35L211.843 248.177L209.818 248.837L210.02 249.698Z" fill="#FF7685"/>
<path d="M131.212 144.917C131.014 145.896 130.529 146.794 129.821 147.498C129.112 148.202 128.21 148.68 127.23 148.872C126.249 149.063 125.234 148.96 124.312 148.574C123.39 148.189 122.604 147.539 122.052 146.706C121.499 145.874 121.206 144.896 121.21 143.897C121.213 142.898 121.512 141.923 122.07 141.094C122.628 140.265 123.419 139.62 124.343 139.241C125.267 138.862 126.283 138.765 127.262 138.963C127.913 139.094 128.531 139.353 129.081 139.723C129.631 140.093 130.104 140.569 130.47 141.122C130.837 141.674 131.091 142.294 131.219 142.945C131.346 143.596 131.344 144.266 131.212 144.917Z" fill="#B1B1DE"/>
<path d="M123.453 144.162C123.383 144.51 123.382 144.868 123.45 145.216C123.518 145.564 123.654 145.896 123.85 146.191C124.046 146.487 124.298 146.741 124.593 146.939C124.887 147.137 125.217 147.275 125.565 147.345C125.912 147.416 126.271 147.417 126.619 147.349C126.967 147.281 127.298 147.145 127.593 146.949C127.889 146.752 128.143 146.5 128.341 146.206C128.539 145.912 128.677 145.581 128.748 145.234L123.453 144.162Z" fill="#EFEFEF"/>
<path d="M55.9466 202.152C55.535 201.605 55.0826 201.329 54.5969 201.329C51.8462 201.329 51.2275 209.432 51.2275 212.27C51.2275 215.509 51.5854 218.293 52.2654 220.323C52.8917 222.194 53.7251 223.222 54.6173 223.222C55.5632 223.222 56.4272 222.04 57.0484 219.898C58.6411 214.407 58.0531 204.959 55.9466 202.152ZM56.5014 219.827C55.9696 221.603 55.259 222.664 54.5969 222.664C53.9348 222.664 53.2241 221.603 52.6923 219.827C52.1018 217.845 51.7746 215.161 51.7746 212.27C51.7746 209.379 52.1018 206.694 52.6923 204.713C53.2241 202.924 53.9348 201.876 54.5969 201.876C55.259 201.876 55.9696 202.937 56.5014 204.713C57.0945 206.694 57.4191 209.379 57.4191 212.27C57.4191 215.161 57.0945 217.845 56.4963 219.827H56.5014Z" fill="#FF7685"/>
<path d="M63.9455 215.297C61.747 211.646 51.5777 206.214 46.9455 206.214C45.8795 206.214 45.1816 206.508 44.8774 207.086C44.5732 207.663 44.6882 208.297 45.1612 209.085C47.3673 212.745 57.5213 218.193 62.1356 218.193C63.2144 218.193 63.9251 217.897 64.2293 217.309C64.5156 216.762 64.421 216.087 63.9455 215.297ZM63.8049 216.958C63.6388 217.37 63.0661 217.587 62.1509 217.587C58.9452 217.587 51.6493 214.857 47.0503 210.411C45.2967 208.717 45.1305 207.855 45.3018 207.438C45.4731 207.022 46.038 206.812 46.9506 206.812C48.6583 206.812 51.3246 207.551 54.0855 208.786C57.2018 210.181 60.0317 212.025 62.0564 213.98C63.81 215.678 63.9762 216.537 63.8049 216.958Z" fill="#FF7685"/>
<path d="M64.0402 206.965C63.7232 206.377 63.0176 206.081 61.9772 206.081C59.8758 206.081 56.3045 207.333 52.654 209.353C49.0035 211.373 46.1046 213.699 45.0794 215.419C44.6091 216.207 44.517 216.871 44.8008 217.395C45.1101 217.968 45.7978 218.259 46.8459 218.259C51.4295 218.259 61.5503 212.715 63.7692 208.99C64.2421 208.19 64.3342 207.507 64.0402 206.965ZM58.9095 212.74C55.668 215.003 51.8794 216.756 48.7734 217.431C48.1366 217.585 47.4854 217.671 46.8306 217.687C46.01 217.687 45.4731 217.5 45.2814 217.145C45.0897 216.79 45.1791 216.319 45.537 215.724C46.4727 214.154 49.2515 211.889 52.6157 209.984C56.233 207.924 59.7455 206.694 62.0155 206.694C63.056 206.694 63.6133 206.968 63.6721 207.507C63.7845 208.584 61.9158 210.641 58.9095 212.74Z" fill="#FF7685"/>
<path d="M56.3582 211.943C56.3577 212.289 56.2546 212.627 56.0618 212.915C55.8691 213.202 55.5954 213.427 55.2754 213.559C54.9554 213.691 54.6034 213.725 54.2639 213.657C53.9243 213.589 53.6126 213.422 53.3679 213.177C53.1233 212.932 52.9567 212.62 52.8894 212.281C52.822 211.941 52.8569 211.589 52.9895 211.269C53.1221 210.95 53.3465 210.676 53.6344 210.484C53.9224 210.292 54.2608 210.189 54.6071 210.189C54.8372 210.189 55.0652 210.234 55.2778 210.323C55.4904 210.411 55.6836 210.54 55.8462 210.703C56.0088 210.866 56.1378 211.059 56.2256 211.272C56.3135 211.485 56.3585 211.712 56.3582 211.943Z" fill="#FF7685"/>
<path d="M54.0958 203.731C54.0963 203.992 54.0196 204.246 53.8754 204.462C53.7312 204.679 53.526 204.848 53.2858 204.948C53.0456 205.047 52.7812 205.074 52.5261 205.023C52.271 204.972 52.0366 204.847 51.8527 204.663C51.6688 204.479 51.5436 204.245 51.493 203.99C51.4423 203.735 51.4686 203.47 51.5684 203.23C51.6681 202.99 51.8369 202.785 52.0534 202.64C52.2699 202.496 52.5243 202.42 52.7844 202.42C53.132 202.421 53.4652 202.559 53.711 202.805C53.9567 203.051 54.0951 203.384 54.0958 203.731Z" fill="#FF7685"/>
<path d="M58.1476 219.313C58.1476 219.53 58.0833 219.742 57.9628 219.922C57.8423 220.102 57.671 220.243 57.4706 220.326C57.2702 220.409 57.0497 220.431 56.837 220.388C56.6243 220.346 56.4289 220.242 56.2755 220.088C56.1221 219.935 56.0176 219.739 55.9753 219.527C55.933 219.314 55.9547 219.093 56.0377 218.893C56.1207 218.693 56.2613 218.521 56.4417 218.401C56.622 218.28 56.834 218.216 57.0509 218.216C57.3418 218.216 57.6208 218.332 57.8264 218.537C58.0321 218.743 58.1476 219.022 58.1476 219.313Z" fill="#FF7685"/>
<path d="M46.3985 215.187C47.0225 215.187 47.5284 214.681 47.5284 214.057C47.5284 213.433 47.0225 212.927 46.3985 212.927C45.7745 212.927 45.2686 213.433 45.2686 214.057C45.2686 214.681 45.7745 215.187 46.3985 215.187Z" fill="#FF7685"/>
<path d="M64.2753 209.005C64.2753 209.19 64.2207 209.369 64.1185 209.522C64.0162 209.675 63.8709 209.795 63.7009 209.865C63.5308 209.936 63.3437 209.954 63.1632 209.918C62.9827 209.882 62.8169 209.794 62.6868 209.663C62.5566 209.533 62.468 209.368 62.4321 209.187C62.3962 209.007 62.4146 208.819 62.4851 208.649C62.5555 208.479 62.6748 208.334 62.8278 208.232C62.9808 208.13 63.1607 208.075 63.3448 208.075C63.467 208.075 63.588 208.099 63.7009 208.146C63.8138 208.193 63.9163 208.261 64.0028 208.348C64.0892 208.434 64.1577 208.536 64.2045 208.649C64.2512 208.762 64.2753 208.883 64.2753 209.005Z" fill="#FF7685"/>
<path d="M50.4964 207.055C50.4964 207.239 50.4417 207.419 50.3394 207.572C50.237 207.725 50.0915 207.844 49.9213 207.915C49.7512 207.985 49.5639 208.003 49.3834 207.967C49.2028 207.931 49.037 207.842 48.907 207.712C48.7769 207.582 48.6885 207.416 48.6529 207.235C48.6173 207.054 48.6361 206.867 48.7069 206.697C48.7777 206.527 48.8974 206.382 49.0507 206.28C49.2041 206.178 49.3843 206.124 49.5684 206.124C49.6905 206.124 49.8114 206.148 49.9241 206.195C50.0369 206.242 50.1393 206.311 50.2255 206.397C50.3117 206.484 50.38 206.586 50.4265 206.699C50.4729 206.812 50.4967 206.933 50.4964 207.055Z" fill="#FF7685"/>
<path d="M232.921 227.514L228.533 228.949L228.78 229.705L233.168 228.27L232.921 227.514Z" fill="#8282A8"/>
<path d="M225.017 218.775L222.714 223.057L223.414 223.434L225.718 219.152L225.017 218.775Z" fill="#8282A8"/>
<path d="M226.623 236.976L226.018 237.493L229.315 241.35L229.92 240.834L226.623 236.976Z" fill="#8282A8"/>
<path d="M226.586 237.312L218.6 239.47L212.569 234.459L213.075 233.848L218.791 238.596L225.941 236.663L227.984 229.306L222.708 223.659L223.288 223.114L228.869 229.088L226.586 237.312Z" fill="#8282A8"/>
<path d="M214.481 233.496C214.608 233.854 214.625 234.241 214.531 234.609C214.437 234.977 214.237 235.308 213.954 235.562C213.672 235.816 213.321 235.98 212.945 236.035C212.569 236.089 212.186 236.03 211.843 235.867C211.501 235.703 211.214 235.442 211.02 235.116C210.827 234.789 210.734 234.413 210.754 234.034C210.773 233.655 210.905 233.29 211.132 232.986C211.36 232.682 211.672 232.452 212.03 232.325C212.51 232.155 213.038 232.183 213.498 232.403C213.957 232.623 214.311 233.016 214.481 233.496Z" fill="#B1B1DE"/>
<path d="M220.532 238.665C220.658 239.023 220.676 239.41 220.582 239.778C220.488 240.146 220.287 240.477 220.005 240.731C219.723 240.985 219.372 241.149 218.996 241.204C218.62 241.258 218.237 241.199 217.894 241.036C217.552 240.872 217.265 240.611 217.071 240.284C216.877 239.958 216.785 239.582 216.804 239.203C216.824 238.824 216.956 238.459 217.183 238.155C217.411 237.851 217.723 237.621 218.081 237.494C218.561 237.324 219.089 237.352 219.549 237.572C220.008 237.791 220.362 238.184 220.532 238.665Z" fill="#B1B1DE"/>
<path d="M228.102 236.361C228.228 236.719 228.245 237.107 228.152 237.475C228.058 237.842 227.857 238.174 227.575 238.428C227.292 238.682 226.941 238.846 226.565 238.9C226.19 238.955 225.806 238.896 225.464 238.733C225.121 238.569 224.835 238.308 224.641 237.981C224.447 237.655 224.354 237.278 224.374 236.899C224.394 236.52 224.526 236.156 224.753 235.851C224.98 235.547 225.292 235.317 225.65 235.191C225.888 235.106 226.14 235.069 226.392 235.082C226.644 235.095 226.891 235.158 227.119 235.267C227.347 235.376 227.551 235.528 227.719 235.716C227.888 235.904 228.018 236.123 228.102 236.361Z" fill="#B1B1DE"/>
<path d="M231.98 240.963C232.106 241.321 232.123 241.708 232.03 242.076C231.936 242.444 231.735 242.776 231.453 243.029C231.17 243.283 230.819 243.448 230.443 243.502C230.068 243.556 229.684 243.498 229.342 243.334C228.999 243.17 228.713 242.909 228.519 242.583C228.325 242.256 228.232 241.88 228.252 241.501C228.272 241.122 228.404 240.757 228.631 240.453C228.858 240.149 229.17 239.919 229.528 239.792C230.008 239.623 230.536 239.651 230.996 239.87C231.456 240.09 231.81 240.483 231.98 240.963Z" fill="#B1B1DE"/>
<path d="M236.103 226.995C236.231 227.353 236.249 227.741 236.156 228.11C236.063 228.479 235.862 228.812 235.58 229.067C235.297 229.321 234.945 229.487 234.569 229.541C234.193 229.596 233.808 229.538 233.465 229.374C233.122 229.211 232.834 228.949 232.64 228.622C232.445 228.295 232.352 227.918 232.372 227.538C232.392 227.158 232.524 226.793 232.752 226.488C232.98 226.183 233.293 225.953 233.652 225.826C233.889 225.742 234.141 225.705 234.393 225.719C234.645 225.732 234.892 225.794 235.119 225.903C235.347 226.011 235.551 226.163 235.72 226.351C235.889 226.538 236.019 226.757 236.103 226.995Z" fill="#B1B1DE"/>
<path d="M227.928 217.59C228.055 217.948 228.073 218.336 227.979 218.705C227.885 219.074 227.685 219.406 227.402 219.661C227.119 219.915 226.767 220.08 226.391 220.134C226.015 220.189 225.63 220.131 225.287 219.967C224.944 219.803 224.657 219.541 224.463 219.214C224.269 218.887 224.176 218.509 224.196 218.13C224.216 217.75 224.349 217.385 224.577 217.08C224.804 216.776 225.118 216.545 225.476 216.419C225.957 216.249 226.485 216.278 226.944 216.497C227.404 216.717 227.758 217.11 227.928 217.59Z" fill="#B1B1DE"/>
<path d="M230.556 228.467C230.682 228.825 230.699 229.213 230.606 229.58C230.512 229.948 230.311 230.28 230.029 230.534C229.747 230.788 229.395 230.952 229.02 231.006C228.644 231.06 228.261 231.002 227.918 230.838C227.575 230.675 227.289 230.413 227.095 230.087C226.901 229.761 226.808 229.384 226.828 229.005C226.848 228.626 226.98 228.261 227.207 227.957C227.434 227.653 227.746 227.423 228.104 227.296C228.342 227.212 228.594 227.176 228.846 227.189C229.098 227.202 229.345 227.265 229.573 227.374C229.8 227.482 230.004 227.635 230.173 227.823C230.342 228.01 230.472 228.229 230.556 228.467Z" fill="#B1B1DE"/>
<path d="M224.875 222.605C225.002 222.963 225.019 223.351 224.925 223.719C224.832 224.086 224.631 224.418 224.348 224.672C224.066 224.926 223.715 225.09 223.339 225.144C222.964 225.199 222.58 225.14 222.238 224.977C221.895 224.813 221.609 224.552 221.415 224.225C221.221 223.899 221.128 223.522 221.148 223.143C221.168 222.764 221.3 222.4 221.527 222.095C221.754 221.791 222.066 221.561 222.424 221.435C222.662 221.35 222.914 221.313 223.166 221.326C223.418 221.339 223.665 221.402 223.893 221.511C224.121 221.62 224.325 221.772 224.493 221.96C224.662 222.148 224.792 222.367 224.875 222.605Z" fill="#B1B1DE"/>
<path d="M234.017 208.484L231.44 207.947L231.987 205.864L232.757 206.066L232.422 207.339L234.181 207.704L234.017 208.484Z" fill="#FF7685"/>
<path d="M59.7377 231.507L59.1574 233.115L56.4656 232.468L55.3254 234.718L53.2317 234.562L53.1525 235.622L55.9543 235.83L57.0331 233.698L59.8349 234.372L60.7066 231.952L59.7377 231.507Z" fill="#B1B1DE"/>
<path d="M57.2734 186.783L58.682 186.928L58.6973 189.222L60.7322 189.689L61.0236 191.405L61.8928 191.256L61.5017 188.963L59.5741 188.521L59.5562 186.133L57.437 185.914L57.2734 186.783Z" fill="#8282A8"/>
<path d="M113.473 220.338L109.623 232.706L97.5033 214.972V214.957C97.5033 214.957 93.0552 212.697 91.9406 212.485C90.9436 212.296 87.7481 211.994 87.2496 212.528C87.2264 212.491 87.1898 212.465 87.1474 212.454C86.723 212.344 85.9433 213.776 85.8334 214.123C85.7235 214.471 86.6003 216.488 86.6821 216.639C86.7639 216.79 86.4571 216.874 86.0711 216.726C85.6851 216.577 84.4734 215.192 84.4734 215.192C84.4734 215.192 84.3583 212.932 83.6298 212.945C82.9012 212.958 83.5633 215.782 83.5633 215.782L84.2689 216.728L83.2233 216.097C83.2233 216.097 82.5075 214.563 82.3158 214.655C82.1241 214.747 81.871 215.506 82.2698 216.304C82.6138 216.911 83.0357 217.471 83.525 217.968L85.1099 218.786C85.1099 218.786 83.2668 218.625 82.7223 218.214C82.1777 217.802 81.9553 218.38 82.3899 218.871C82.8245 219.361 85.2505 220.2 86.7869 220.366C88.3233 220.532 93.1114 220.409 93.7991 220.284C94.3589 220.179 95.402 220.029 95.9183 220.31C96.6009 222.299 102.514 243.857 109.667 246.385C109.667 246.385 112.969 245.95 116.735 237.384C120.501 228.817 122.518 223.666 122.518 223.666L113.473 220.338ZM91.2325 215.946C90.7007 216.148 88.786 216.258 88.2824 216.074C87.7788 215.89 87.0195 213.95 87.0195 213.95C87.1495 213.62 87.2429 213.277 87.2982 212.927C87.858 213.538 90.2355 213.267 90.7723 213.612C91.3577 213.99 91.7744 215.747 91.2376 215.946H91.2325Z" fill="#F7A491"/>
<path d="M156.518 223.045C156.518 223.045 158.711 228.125 162.771 236.556C166.83 244.987 170.146 245.309 170.146 245.309C177.206 242.548 182.373 220.798 182.984 218.786C183.495 218.477 184.538 218.602 185.101 218.686C185.793 218.789 190.584 218.745 192.113 218.525C193.641 218.305 196.042 217.385 196.459 216.879C196.875 216.373 196.63 215.803 196.101 216.235C195.572 216.667 193.736 216.887 193.736 216.887L195.293 216.018C195.765 215.503 196.167 214.929 196.489 214.31C196.86 213.499 196.579 212.738 196.384 212.664C196.19 212.589 195.528 214.136 195.528 214.136L194.506 214.806L195.178 213.834C195.178 213.834 195.743 210.989 195.014 211.002C194.286 211.015 194.247 213.275 194.247 213.275C194.247 213.275 193.084 214.714 192.714 214.875C192.343 215.036 192.023 214.962 192.097 214.808C192.172 214.655 192.979 212.607 192.864 212.252C192.749 211.897 191.913 210.506 191.494 210.626C191.453 210.641 191.418 210.67 191.394 210.708C190.883 210.197 187.695 210.603 186.706 210.825C185.599 211.081 181.233 213.489 181.233 213.489L169.729 231.64L165.455 219.412L156.518 223.045ZM187.895 211.938C188.406 211.575 190.804 211.764 191.343 211.132C191.411 211.478 191.515 211.816 191.655 212.139C191.655 212.139 190.96 214.108 190.466 214.307C189.973 214.507 188.053 214.463 187.514 214.282C186.974 214.1 187.33 212.329 187.895 211.938Z" fill="#F7A491"/>
<path d="M137.278 254.724C133.182 252.709 128.921 251.047 124.542 249.757C114.698 246.84 101.44 244.9 93.9167 251.181C89.489 254.872 135.277 259.737 135.277 259.737L137.278 254.724Z" fill="#8282A8"/>
<path d="M186.767 253.512C186.767 253.512 182.421 247.121 171.199 247.267C166.833 247.326 160.782 248.195 155.267 249.284C145.428 251.229 136.151 254.501 136.151 254.501L135.279 259.737L186.767 253.512Z" fill="#8282A8"/>
<path d="M123.008 262.608L142.928 272.309L158.512 259.849L153.399 248.663L125.158 250.434L123.008 262.608Z" fill="#8282A8"/>
<path d="M127.357 191.765C125.125 187.22 125.008 178.633 126.756 173.592C128.17 169.501 131.557 167.185 135.918 166.712C140.977 166.16 144.201 167.155 148.143 169.729C152.233 172.411 157.152 175.317 161.871 176.501C168.021 178.035 174.371 179.18 180.001 182.102C183.718 184.032 187.174 186.898 188.657 190.811C190.783 196.415 188.35 202.865 184.423 207.39C178.5 214.215 169.121 217.871 160.137 216.869C153.146 216.084 146.553 212.492 141.964 207.183C139.896 204.79 138.326 203.008 135.857 201.07C132.7 198.588 129.151 195.436 127.357 191.765Z" fill="#333343"/>
<path d="M153.895 197.737C153.895 197.737 146.116 196.97 138.452 196.714C131.611 196.497 124.289 197.76 123.809 198.248C121.894 200.229 121.204 217.255 122.275 220.397C123.346 223.538 128.339 231.691 127.416 237.013C126.493 242.336 124.581 249.749 124.581 249.749C124.581 249.749 131.084 253.469 139.293 253.407C144.216 253.372 151.034 252.385 155.262 249.266C155.262 249.266 152.796 242.668 153.043 237.473C153.291 232.279 155.96 223.413 157.374 220.243C158.788 217.073 156.505 198.261 153.895 197.737Z" fill="#FF7685"/>
<path d="M126.886 199.677L123.954 198.189C123.954 198.189 120.631 199.138 118.905 201.62C117.489 203.665 111.134 222.184 111.134 222.184C111.134 222.184 119.997 225.642 122.817 225.481L127.134 214.121L126.886 199.677Z" fill="#FF7685"/>
<path d="M150.804 199.271L153.951 197.752C153.951 197.752 155.953 198.159 158.522 201.139C160.143 203.021 167.323 221.22 167.323 221.22C167.323 221.22 158.586 224.983 155.763 224.919L151.055 213.714L150.804 199.271Z" fill="#FF7685"/>
<path d="M141.88 186.895C141.88 186.895 142.414 194.495 142.902 196.916C143.414 199.419 144.068 210.92 138.871 212.288C133.674 213.655 134.957 199.291 134.827 196.755C134.696 194.219 133.508 185.525 133.508 185.525L141.88 186.895Z" fill="#F7A491"/>
<path d="M133.513 185.525C133.513 185.525 133.753 187.279 134.024 189.441C135.969 190.914 138.625 191.279 141.693 189.477C141.823 189.398 141.949 189.316 142.074 189.221C141.964 187.859 141.895 186.882 141.895 186.882L133.513 185.525Z" fill="#F47458"/>
<path d="M139.451 169.118C141.479 169.755 143.213 171.095 144.342 172.896C146.157 175.877 147.187 184.513 140.763 188.314C134.338 192.115 129.622 186.284 129.722 180.75C129.821 175.215 131.245 167.871 139.451 169.118Z" fill="#F7A491"/>
<path d="M128.331 178.97C128.824 180.323 129.865 181.187 130.652 180.9C131.439 180.614 131.675 179.282 131.186 177.93C130.698 176.578 129.652 175.714 128.865 176.002C128.078 176.291 127.837 177.618 128.331 178.97Z" fill="#F7A491"/>
<path d="M138.528 168.906C138.528 168.906 142.184 177.889 145.627 178.797C149.071 179.704 148.871 184.165 148.871 184.165C148.871 184.165 149.127 173.873 145.96 171.406C142.792 168.939 138.528 168.906 138.528 168.906Z" fill="#333343"/>
<path d="M144.18 180.591C143.669 182.012 144.047 183.444 145.009 183.784C145.97 184.124 147.159 183.247 147.662 181.823C148.166 180.399 147.795 178.97 146.834 178.63C145.873 178.29 144.692 179.167 144.18 180.591Z" fill="#F7A491"/>
<path d="M106.287 266.897C106.287 266.897 103.986 265.003 101.261 264.28C98.536 263.556 98.5872 265.558 97.8867 268.626C97.1863 271.693 96.0052 273.738 94.5123 276.719C93.0194 279.7 94.8472 286.515 95.6857 286.605C97.7078 286.817 98.646 282.486 100.561 278.79C102.475 275.093 107.813 273.853 109.367 273.69C114.843 272.93 120.367 272.575 125.895 272.629C123.944 268.914 121.122 265.885 118.225 262.659C111.16 265.113 106.287 266.897 106.287 266.897Z" fill="#F7A491"/>
<path d="M188.26 256.927C187.309 252.129 183.288 250.171 178.646 250.281C167.945 250.557 137.777 257.452 119.818 263.086C120.892 266.951 120.074 269.477 121.352 273.455C140.374 272.432 176.059 269.477 186.389 263.531C187.994 262.613 188.72 259.246 188.26 256.927Z" fill="#B1B1DE"/>
<path d="M175.775 277.951C174.425 274.884 173.065 272.879 172.51 269.771C171.853 266.087 172.16 264.029 167.653 265.775C165.068 266.791 162.191 266.776 159.616 265.734C157.926 265.044 155.838 264.2 153.465 263.239C151.916 266.445 150.985 269.914 150.722 273.465C156.346 274.045 160.436 274.61 160.641 274.633C161.543 274.725 167.633 276.011 169.371 279.792C171.109 283.573 171.892 288.279 173.875 287.824C175.018 287.566 177.127 281.009 175.775 277.951Z" fill="#F7A491"/>
<path d="M104.677 248.609C100.469 248.491 93.1907 249.286 92.1016 254.039C91.575 256.34 91.7719 259.576 92.7101 261.746C93.8809 264.459 96.5753 265.934 99.2519 267.082C104.365 269.242 135.939 272.596 152.213 274.27C154.132 270.793 155.723 266.928 155.602 263.546C139.891 257.227 112.737 248.824 104.677 248.609Z" fill="#D6D6ED"/>
<defs>
<linearGradient id="paint0_linear_2_2970" x1="213.074" y1="51.4944" x2="208.644" y2="53.2954" gradientUnits="userSpaceOnUse">
<stop stop-color="#00B3CE"/>
<stop offset="1" stop-color="#0E497C"/>
</linearGradient>
<linearGradient id="paint1_linear_2_2970" x1="216.074" y1="40.3309" x2="209.559" y2="41.4024" gradientUnits="userSpaceOnUse">
<stop stop-color="#03AED0"/>
<stop offset="1" stop-color="#163F6C"/>
</linearGradient>
<linearGradient id="paint2_linear_2_2970" x1="208.433" y1="58.4151" x2="206.22" y2="51.5775" gradientUnits="userSpaceOnUse">
<stop stop-color="#03AED0"/>
<stop offset="1" stop-color="#0A2141"/>
</linearGradient>
<linearGradient id="paint3_linear_2_2970" x1="208.77" y1="56.669" x2="211.374" y2="56.669" gradientUnits="userSpaceOnUse">
<stop stop-color="#138FCF"/>
<stop offset="1" stop-color="#90D5E1"/>
</linearGradient>
<linearGradient id="paint4_linear_2_2970" x1="210.522" y1="35.4732" x2="205.303" y2="44.0069" gradientUnits="userSpaceOnUse">
<stop stop-color="#00B3CE"/>
<stop offset="1" stop-color="#044F8E"/>
</linearGradient>
<linearGradient id="paint5_linear_2_2970" x1="211.112" y1="36.0974" x2="208.558" y2="40.2729" gradientUnits="userSpaceOnUse">
<stop stop-color="#90D5E1"/>
<stop offset="0.9897" stop-color="#08AEBF"/>
</linearGradient>
<linearGradient id="paint6_linear_2_2970" x1="212.549" y1="50.6927" x2="206.869" y2="45.9273" gradientUnits="userSpaceOnUse">
<stop stop-color="#03AED0"/>
<stop offset="1" stop-color="#163F6C"/>
</linearGradient>
<linearGradient id="paint7_linear_2_2970" x1="205.088" y1="52.5978" x2="208.795" y2="52.5978" gradientUnits="userSpaceOnUse">
<stop stop-color="#005993"/>
<stop offset="1" stop-color="#A6DFF9"/>
</linearGradient>
<linearGradient id="paint8_linear_2_2970" x1="203.323" y1="47.1591" x2="209.61" y2="43.4759" gradientUnits="userSpaceOnUse">
<stop stop-color="#00B3CE"/>
<stop offset="1" stop-color="#044F8E"/>
</linearGradient>
<linearGradient id="paint9_linear_2_2970" x1="205.088" y1="42.4029" x2="208.795" y2="42.4029" gradientUnits="userSpaceOnUse">
<stop stop-color="#A6DFF9"/>
<stop offset="1" stop-color="#0A71B9"/>
</linearGradient>
<linearGradient id="paint10_linear_2_2970" x1="228.597" y1="43.5054" x2="233.027" y2="41.7044" gradientUnits="userSpaceOnUse">
<stop stop-color="#00B3CE"/>
<stop offset="1" stop-color="#0E497C"/>
</linearGradient>
<linearGradient id="paint11_linear_2_2970" x1="225.597" y1="54.6686" x2="232.112" y2="53.597" gradientUnits="userSpaceOnUse">
<stop stop-color="#03AED0"/>
<stop offset="1" stop-color="#163F6C"/>
</linearGradient>
<linearGradient id="paint12_linear_2_2970" x1="233.237" y1="36.5841" x2="235.451" y2="43.4217" gradientUnits="userSpaceOnUse">
<stop stop-color="#03AED0"/>
<stop offset="1" stop-color="#0A2141"/>
</linearGradient>
<linearGradient id="paint13_linear_2_2970" x1="232.901" y1="38.3313" x2="230.298" y2="38.3313" gradientUnits="userSpaceOnUse">
<stop stop-color="#138FCF"/>
<stop offset="1" stop-color="#90D5E1"/>
</linearGradient>
<linearGradient id="paint14_linear_2_2970" x1="231.148" y1="59.5263" x2="236.368" y2="50.9927" gradientUnits="userSpaceOnUse">
<stop stop-color="#00B3CE"/>
<stop offset="1" stop-color="#044F8E"/>
</linearGradient>
<linearGradient id="paint15_linear_2_2970" x1="230.559" y1="58.9027" x2="233.113" y2="54.7272" gradientUnits="userSpaceOnUse">
<stop stop-color="#90D5E1"/>
<stop offset="0.9897" stop-color="#08AEBF"/>
</linearGradient>
<linearGradient id="paint16_linear_2_2970" x1="229.122" y1="44.3072" x2="234.802" y2="49.0725" gradientUnits="userSpaceOnUse">
<stop stop-color="#03AED0"/>
<stop offset="1" stop-color="#163F6C"/>
</linearGradient>
<linearGradient id="paint17_linear_2_2970" x1="236.583" y1="42.4029" x2="232.876" y2="42.4029" gradientUnits="userSpaceOnUse">
<stop stop-color="#005993"/>
<stop offset="1" stop-color="#A6DFF9"/>
</linearGradient>
<linearGradient id="paint18_linear_2_2970" x1="238.348" y1="47.8397" x2="232.061" y2="51.5228" gradientUnits="userSpaceOnUse">
<stop stop-color="#00B3CE"/>
<stop offset="1" stop-color="#044F8E"/>
</linearGradient>
<linearGradient id="paint19_linear_2_2970" x1="236.583" y1="52.5975" x2="232.876" y2="52.5975" gradientUnits="userSpaceOnUse">
<stop stop-color="#A6DFF9"/>
<stop offset="1" stop-color="#0A71B9"/>
</linearGradient>
<linearGradient id="paint20_linear_2_2970" x1="213.774" y1="54.7364" x2="228.005" y2="40.58" gradientUnits="userSpaceOnUse">
<stop stop-color="#6A4A9E"/>
<stop offset="1" stop-color="#71C9BA"/>
</linearGradient>
</defs>
</svg>
