<svg width="36" height="34" viewBox="0 0 36 34" fill="none" xmlns="http://www.w3.org/2000/svg">
<path d="M29.1053 2.83208C29.199 1.59325 29.1709 0.816681 29.1709 0.816681H6.63206C6.63206 0.816681 6.63206 1.59325 6.68827 2.83208H0.627319L0.721003 3.69186C0.721003 3.82129 2.15425 15.9877 12.4682 16.339C13.5565 17.3333 14.7955 18.1536 16.1403 18.7704C16.4064 19.8226 16.5386 20.9033 16.5338 21.9877C16.5338 24.5023 15.8874 26.6564 14.9788 27.5994H9.89203V33.396H25.9109V27.5994H20.8242C19.8875 26.6749 19.2692 24.5023 19.2692 21.9877C19.2615 20.9037 19.3906 19.823 19.6533 18.7704C20.9981 18.1536 22.2372 17.3333 23.3254 16.339C33.63 15.9877 35.0632 3.82129 35.082 3.69186L35.1663 2.83208H29.1053ZM4.19644 9.40529C3.35456 7.82902 2.7577 6.13672 2.42592 4.38523H6.85688C7.27173 8.08069 8.65701 11.6052 10.8757 14.6102C9.43107 14.3096 8.07648 13.6834 6.9178 12.7804C5.75912 11.8775 4.82773 10.7224 4.19644 9.40529ZM31.5972 9.40529C30.9683 10.724 30.0376 11.8806 28.8785 12.7838C27.7194 13.6871 26.3636 14.3123 24.9179 14.6102C27.1405 11.6073 28.5261 8.08172 28.9367 4.38523H33.377C33.0411 6.1369 32.4411 7.82904 31.5972 9.40529Z" fill="url(#paint0_linear_101_195)"/>
<defs>
<linearGradient id="paint0_linear_101_195" x1="9453.94" y1="12028.8" x2="10136.9" y2="12752.9" gradientUnits="userSpaceOnUse">
<stop stop-color="#4359AA"/>
<stop offset="1" stop-color="#293972"/>
</linearGradient>
</defs>
</svg>
