<svg width="49" height="32" viewBox="0 0 49 32" fill="none" xmlns="http://www.w3.org/2000/svg">
<path d="M29.1617 10.5758C29.4623 14.9671 33.5763 18.4525 38.6203 18.4525C43.6643 18.4525 47.7784 14.9671 48.079 10.5758H45.2611L39.3999 0.471C39.3289 0.351871 39.2273 0.253252 39.1053 0.185085C38.9833 0.116918 38.8452 0.0816121 38.7049 0.0827123H9.77479C9.57706 0.0841386 9.38689 0.157725 9.24113 0.289235C9.09537 0.420744 9.00439 0.600823 8.98579 0.79458L3.30307 10.5758H0.278564C0.58853 14.9671 4.69323 18.4525 9.73721 18.4525C14.7812 18.4525 18.8953 14.9671 19.1958 10.5758H16.4249L11.2401 1.65436H23.4508V21.8454H14.9033V25.2475H8.11223V31.1736H40.048V25.2475H33.2664V21.8454H25.057V1.65436H37.3899L32.205 10.5758H29.1617ZM5.14407 10.5758L9.84051 2.44942L14.537 10.5758H5.14407ZM38.7424 2.44942L43.4389 10.5758H34.0272L38.7424 2.44942Z" fill="url(#paint0_linear_101_236)"/>
<defs>
<linearGradient id="paint0_linear_101_236" x1="16286.4" y1="8954.57" x2="15384.3" y2="7567.67" gradientUnits="userSpaceOnUse">
<stop stop-color="#FF761A"/>
<stop offset="1" stop-color="#FFAB17"/>
</linearGradient>
</defs>
</svg>
